<mxfile host="app.diagrams.net" agent="Mozilla/5.0 (Windows NT 10.0; Win64; x64) AppleWebKit/537.36 (KHTML, like Gecko) Chrome/131.0.0.0 Safari/537.36" version="26.0.3" pages="3">
  <diagram name="POS Repo Structures" id="CtdGuij6LXy3Fm1EJdWT">
    <mxGraphModel dx="2609" dy="609" grid="1" gridSize="10" guides="1" tooltips="1" connect="1" arrows="1" fold="1" page="1" pageScale="1" pageWidth="827" pageHeight="1169" math="0" shadow="0">
      <root>
        <mxCell id="0" />
        <mxCell id="1" parent="0" />
        <mxCell id="gfbkr7vHhkdRTyJHRs2W-52" value="" style="rounded=0;whiteSpace=wrap;html=1;fillColor=light-dark(#008a00, #1f1f3a);fontColor=#ffffff;strokeColor=none;" vertex="1" parent="1">
          <mxGeometry x="-825" width="825" height="40" as="geometry" />
        </mxCell>
        <mxCell id="h7uiS3fmdWrhpwZdUW_i-2" value="&lt;h2&gt;&lt;font face=&quot;Helvetica&quot;&gt;Wing POS: Repository Structures with Microservices&lt;/font&gt;&lt;/h2&gt;" style="text;html=1;align=left;verticalAlign=middle;whiteSpace=wrap;rounded=0;" parent="1" vertex="1">
          <mxGeometry x="-800" y="80" width="480" height="40" as="geometry" />
        </mxCell>
        <mxCell id="gfbkr7vHhkdRTyJHRs2W-17" value="" style="edgeStyle=orthogonalEdgeStyle;rounded=0;orthogonalLoop=1;jettySize=auto;html=1;dashed=1;" edge="1" parent="1" source="gfbkr7vHhkdRTyJHRs2W-3" target="gfbkr7vHhkdRTyJHRs2W-12">
          <mxGeometry relative="1" as="geometry">
            <Array as="points">
              <mxPoint x="-780" y="260" />
            </Array>
          </mxGeometry>
        </mxCell>
        <mxCell id="gfbkr7vHhkdRTyJHRs2W-19" value="" style="group" vertex="1" connectable="0" parent="1">
          <mxGeometry x="-800" y="160" width="120" height="40" as="geometry" />
        </mxCell>
        <mxCell id="gfbkr7vHhkdRTyJHRs2W-3" value="" style="shape=image;verticalLabelPosition=bottom;labelBackgroundColor=default;verticalAlign=top;aspect=fixed;imageAspect=0;image=data:image/svg+xml,PHN2ZyB4bWxuczp4bGluaz0iaHR0cDovL3d3dy53My5vcmcvMTk5OS94bGluayIgeG1sbnM9Imh0dHA6Ly93d3cudzMub3JnLzIwMDAvc3ZnIiB4bWw6c3BhY2U9InByZXNlcnZlIiB3aWR0aD0iNTEycHgiIHZpZXdCb3g9IjAgMCA1MTIgNTEyIiB2ZXJzaW9uPSIxLjEiIHN0eWxlPSJlbmFibGUtYmFja2dyb3VuZDpuZXcgMCAwIDUxMiA1MTI7IiBoZWlnaHQ9IjUxMnB4Ij48ZyBpZD0iX3gzNF80LWJpdGJ1Y2tldCI+PGc+PHBhdGggc3R5bGU9ImZpbGw6IzI2ODRGRjsiIGQ9Ik00MC45MjksNDkuMTc4Yy04LjEwOC0wLjA5Mi0xNC44MzUsNi4zNTgtMTQuOTI4LDE0LjU1OWMwLDAuODI5LDAuMDkzLDEuNzUsMC4xODYsMi41OCAgICBsNjIuNTY2LDM3OS43MzVjMS41NjYsOS41ODIsOS44NiwxNi42OCwxOS42MjcsMTYuNzdoMzAwLjExOGM3LjI4MSwwLjA5MywxMy41NDYtNS4xNTksMTQuNzQ1LTEyLjM0N0w0ODUuODEsNjYuNDA5ICAgIGMxLjI5LTguMDE2LTQuMTQ2LTE1LjU3Mi0xMi4xNjMtMTYuODYyYy0wLjgyOS0wLjA5MS0xLjY1OC0wLjE4NC0yLjU3OC0wLjE4NEw0MC45MjksNDkuMTc4TDQwLjkyOSw0OS4xNzh6IE0zMDQuMzc1LDMyMy41OSAgICBoLTk1LjgzMWwtMjUuODk1LTEzNS40NTZoMTQ0Ljk0NUwzMDQuMzc1LDMyMy41OUwzMDQuMzc1LDMyMy41OXoiLz48L2c+PC9nPjxnIGlkPSJMYXllcl8xIi8+PC9zdmc+;" vertex="1" parent="gfbkr7vHhkdRTyJHRs2W-19">
          <mxGeometry width="40" height="40" as="geometry" />
        </mxCell>
        <mxCell id="gfbkr7vHhkdRTyJHRs2W-4" value="&lt;h2&gt;Bitbucket&lt;/h2&gt;" style="text;html=1;align=center;verticalAlign=middle;whiteSpace=wrap;rounded=0;" vertex="1" parent="gfbkr7vHhkdRTyJHRs2W-19">
          <mxGeometry x="60" y="5" width="60" height="30" as="geometry" />
        </mxCell>
        <mxCell id="gfbkr7vHhkdRTyJHRs2W-51" value="" style="shape=image;verticalLabelPosition=bottom;labelBackgroundColor=default;verticalAlign=top;aspect=fixed;imageAspect=0;image=data:image/svg+xml,PHN2ZyB4bWxucz0iaHR0cDovL3d3dy53My5vcmcvMjAwMC9zdmciIGZpbGw9Im5vbmUiIHZpZXdCb3g9IjAgMCAxMjUyIDMyOSIgaGVpZ2h0PSIzMjkiIHdpZHRoPSIxMjUyIj4mI3hhOzxwYXRoIGZpbGw9IndoaXRlIiBkPSJNNjI3LjI5NCAyNTYuNDg3QzYyMC4wMjkgMjU2LjU4NSA2MTIuODMyIDI1NS4wNzcgNjA2LjIxMyAyNTIuMDcxQzYwMC4wMTYgMjQ5LjIyIDU5NC40OTMgMjQ1LjA4NyA1OTAuMDA5IDIzOS45NDNDNTg1LjQzOSAyMzQuNjQzIDU4MS44ODkgMjI4LjU0MiA1NzkuNTM2IDIyMS45NDlDNTc3LjAyMSAyMTUuMDIgNTc1Ljc0OSAyMDcuNzAyIDU3NS43OCAyMDAuMzNDNTc1LjY3MyAxOTAuNTg5IDU3Ny42MDEgMTgwLjkzNCA1ODEuNDQ1IDE3MS45ODVDNTg0Ljk4NyAxNjMuNzI4IDU4OS45NiAxNTYuMTYxIDU5Ni4xMzQgMTQ5LjYzOEM2MDIgMTQzLjQ2IDYwOC45OTkgMTM4LjQ3MSA2MTYuNzUgMTM0Ljk0MUM2MjQuMTgyIDEzMS40ODkgNjMyLjI3NSAxMjkuNjkgNjQwLjQ2NiAxMjkuNjY3QzY0NS42MTEgMTI5LjU2NiA2NTAuNzM2IDEzMC4zNDYgNjU1LjYxNSAxMzEuOTc1QzY1OS40MTUgMTMzLjI2NiA2NjMuMDQyIDEzNS4wMTUgNjY2LjQxOCAxMzcuMTgzQzY2OS41ODcgMTM5LjMwMyA2NzIuNDY2IDE0MS44MjkgNjc0Ljk4MSAxNDQuNjk2TDY4NC42NzkgODkuNTI1MUM2ODQuNzcgODkuMDI1OSA2ODUuMDMgODguNTczOCA2ODUuNDE5IDg4LjI0ODFDNjg1LjgwOCA4Ny45MjIyIDY4Ni4yOTYgODcuNzQ0IDY4Ni44MDMgODcuNzQzNEg2OTcuNjRDNjk5LjkgODcuNzQzNCA3MDIuMTMzIDg4LjIzODUgNzA0LjE4MiA4OS4xOTQ1QzcwNi4yMzEgOTAuMTUwNSA3MDguMDQ1IDkxLjU0MzIgNzA5LjQ5NyA5My4yNzU4QzcxMC45NTIgOTUuMDA4NSA3MTIuMDA2IDk3LjAzODkgNzEyLjU5MyA5OS4yMjM2QzcxMy4xNzYgMTAxLjQwOCA3MTMuMjc4IDEwMy42OTUgNzEyLjg4MyAxMDUuOTIyTDY4Ni44OSAyNTMuMzg5QzY4Ni44MDMgMjUzLjg4OCA2ODYuNTQyIDI1NC4zNCA2ODYuMTUzIDI1NC42NjVDNjg1Ljc2NyAyNTQuOTkxIDY4NS4yNzcgMjU1LjE2OCA2ODQuNzcgMjU1LjE2OEg2NzYuMjQ3QzY3Mi42MjMgMjU1LjE2OSA2NjkuMDk3IDI1My45ODUgNjY2LjIwNyAyNTEuNzk2QzY2My4zMTYgMjQ5LjYwOCA2NjEuMjE4IDI0Ni41MzQgNjYwLjIzMiAyNDMuMDQzQzY1Ny4zMTEgMjQ1LjYwNiA2NTQuMTMxIDI0Ny44NiA2NTAuNzQ1IDI0OS43NjhDNjQ3LjMyOCAyNTEuNSA2NDMuODExIDI1My4wMTggNjQwLjIwNiAyNTQuMzE2QzYzNi4wNjYgMjU1Ljc5OCA2MzEuNjk0IDI1Ni41MzQgNjI3LjI5NyAyNTYuNDlMNjI3LjI5NCAyNTYuNDg3Wk02MzUuMDY5IDIyNy4zNUM2MzkuNTM0IDIyNy4zNTMgNjQzLjk1MSAyMjYuNDM0IDY0OC4wNDMgMjI0LjY1QzY1Mi4xODYgMjIyLjg3IDY1NS45MTEgMjIwLjI0NSA2NTguOTggMjE2Ljk0MUM2NjIuMTk5IDIxMy40MzcgNjY0Ljc0NCAyMDkuMzY5IDY2Ni40ODYgMjA0Ljk0MUM2NjguNDUzIDE5OS44NTggNjY5LjQxNSAxOTQuNDQgNjY5LjMxOSAxODguOTlDNjY5LjUwMiAxODUuMTIyIDY2OC45MDggMTgxLjI1OSA2NjcuNTcxIDE3Ny42MjVDNjY2LjIzNyAxNzMuOTkxIDY2NC4xODggMTcwLjY2MSA2NjEuNTQ3IDE2Ny44MzJDNjU4LjgxOCAxNjUuMTMzIDY1NS41NTggMTYzLjAzMiA2NTEuOTcyIDE2MS42NTlDNjQ4LjM4OSAxNjAuMjg2IDY0NC41NjEgMTU5LjY3MiA2NDAuNzI2IDE1OS44NTZDNjM2LjI4MyAxNTkuODQ3IDYzMS44ODYgMTYwLjc2OCA2MjcuODE1IDE2Mi41NTdDNjIzLjY4NiAxNjQuMzYgNjE5Ljk2NiAxNjYuOTg0IDYxNi44ODEgMTcwLjI2OUM2MTMuNjI0IDE3My43NTYgNjExLjA1NCAxNzcuODI2IDYwOS4zMDMgMTgyLjI2NkM2MDcuMzM5IDE4Ny4zNSA2MDYuMzc4IDE5Mi43NjYgNjA2LjQ3MyAxOTguMjE2QzYwNi4yOTUgMjAyLjA4OSA2MDYuODk1IDIwNS45NTkgNjA4LjI0MyAyMDkuNTk1QzYwOS41ODggMjEzLjIzIDYxMS42NTQgMjE2LjU1NyA2MTQuMzExIDIxOS4zNzdDNjE3LjAzNyAyMjIuMDYzIDYyMC4yODYgMjI0LjE1OSA2MjMuODU2IDIyNS41MzFDNjI3LjQyNiAyMjYuOTAzIDYzMS4yNDIgMjI3LjUyMiA2MzUuMDYxIDIyNy4zNSIvPiYjeGE7PHBhdGggZmlsbD0iI0FFQkQyNSIgZD0iTTUzNC4xODEgMTMxLjc2OUg1MjUuOTYyQzUyMS4wOTQgMTMxLjc2OCA1MTYuMzAyIDEzMi45ODkgNTEyLjAyNiAxMzUuMzIxQzUwNy43NSAxMzcuNjUyIDUwNC4xMjggMTQxLjAyIDUwMS40OSAxNDUuMTE2QzUwMS40NjIgMTQ1LjE1OSA1MDEuNDI3IDE0NS4xOTYgNTAxLjM4MyAxNDUuMjI0QzUwMS4zNDIgMTQ1LjI1MiA1MDEuMjkyIDE0NS4yNjkgNTAxLjI0MyAxNDUuMjc1QzUwMS4xOTEgMTQ1LjI4MSA1MDEuMTM5IDE0NS4yNzYgNTAxLjA5MiAxNDUuMjU5QzUwMS4wNDMgMTQ1LjI0MiA1MDAuOTk5IDE0NS4yMTUgNTAwLjk2NCAxNDUuMTc5QzQ5OC4wNzkgMTQyLjM4NCA0OTQuODYgMTM5Ljk2MSA0OTEuMzc1IDEzNy45NjNDNDg3LjY5MyAxMzUuNzQ2IDQ4My43NTcgMTMzLjk3NiA0NzkuNjU2IDEzMi42OUM0NzQuNjI2IDEzMS4xMjggNDY5LjM4IDEzMC4zNzIgNDY0LjExMSAxMzAuNDUxQzQ1Ni4xMjYgMTMwLjQ2NSA0NDguMjMgMTMyLjE0NyA0NDAuOTI5IDEzNS4zODZDNDMzLjQ3IDEzOC42MTggNDI2LjY5NyAxNDMuMjQ4IDQyMC45NzQgMTQ5LjAyN0M0MTUuMDczIDE1NC45OCA0MTAuMzU2IDE2Mi4wMDMgNDA3LjA3OSAxNjkuNzIxQzQwMi44ODIgMTgwLjA4MSA0MDAuOTc5IDE5MS4yMjggNDAxLjQ5OSAyMDIuMzk1QzQwMS40NDEgMjA5LjY1MiA0MDIuNzYyIDIxNi44NTMgNDA1LjM4NCAyMjMuNjE5QzQwNy44MjUgMjI5Ljk3NSA0MTEuNTQ4IDIzNS43NjEgNDE2LjMxNyAyNDAuNjE3QzQyMS4wNjggMjQ1LjM5OCA0MjYuNzA2IDI0OS4yMDQgNDMyLjkxMyAyNTEuODIxQzQzOS40MzQgMjU0LjU3NiA0NDYuNDQ5IDI1NS45NjcgNDUzLjUyOCAyNTUuOTA3QzQ1Ny40NzkgMjU1Ljk3NSA0NjEuNDIxIDI1NS41MTQgNDY1LjI1MSAyNTQuNTM2QzQ2OC4xNzQgMjUzLjc1NiA0NzEuMDM0IDI1Mi43NjQgNDczLjgxMiAyNTEuNTY3QzQ3NS42MTcgMjUwLjY2OCA0NzcuMzU3IDI0OS42NDMgNDc5LjAxNyAyNDguNTAyQzQ3OS4wNjQgMjQ4LjQ2MyA0NzkuMTE5IDI0OC40MzkgNDc5LjE3OSAyNDguNDM2QzQ3OS4yMzkgMjQ4LjQzMyA0NzkuMjk3IDI0OC40NSA0NzkuMzQ2IDI0OC40ODNDNDc5LjM5OCAyNDguNTE2IDQ3OS40MzQgMjQ4LjU2NCA0NzkuNDUzIDI0OC42MjFDNDc5LjQ3MiAyNDguNjc3IDQ3OS40NzUgMjQ4LjczOCA0NzkuNDU2IDI0OC43OTVDNDcxLjUzOCAyODcuMzY4IDQ0NC4wODggMzA2LjY5OCA0MTYuMzU4IDMxNi4yOTFDNDE0Ljg2OCAzMTYuODA0IDQxMy42MTYgMzE3Ljg0NSA0MTIuODQxIDMxOS4yMTlDNDEyLjA2OCAzMjAuNTkyIDQxMS44MjQgMzIyLjIwNCA0MTIuMTU2IDMyMy43NDVDNDEyLjQ5IDMyNS4yODkgNDEzLjM3OCAzMjYuNjU0IDQxNC42NDkgMzI3LjU4M0M0MTUuOTIgMzI4LjUxNiA0MTcuNDkgMzI4Ljk0OSA0MTkuMDU5IDMyOC43OThDNDYwLjIxMyAzMjQuNjUzIDUwNi4xNzcgMzA2LjkxOCA1MTYuMDM5IDI1MC41MjhDNTIyLjc5OCAyMTEuOTY4IDUzMy45ODQgMTQ4LjEzNyA1MzYuMzg2IDEzNC40MTNDNTM2LjQ0NCAxMzQuMDg4IDUzNi40MjcgMTMzLjc1NSA1MzYuMzM5IDEzMy40MzZDNTM2LjI1NSAxMzMuMTE3IDUzNi4wOTggMTMyLjgyMSA1MzUuODg3IDEzMi41NjlDNTM1LjY3NCAxMzIuMzE2IDUzNS40MTEgMTMyLjExMyA1MzUuMTA5IDEzMS45NzRDNTM0LjgxMSAxMzEuODM1IDUzNC40ODUgMTMxLjc2MyA1MzQuMTU2IDEzMS43NjRMNTM0LjE4MSAxMzEuNzY5Wk00NzIuNzM1IDIxOS45OThDNDY5LjM2MyAyMjEuNDU1IDQ2NS43MjUgMjIyLjE5NiA0NjIuMDUxIDIyMi4xNzJDNDU4Ljg0NiAyMjIuMzQgNDU1LjY0MSAyMjEuODU1IDQ1Mi42MyAyMjAuNzQ1QzQ0OS42MTkgMjE5LjYzNCA0NDYuODYzIDIxNy45MjIgNDQ0LjUzNSAyMTUuNzEzQzQ0MC4yNDQgMjExLjAyNSA0MzcuODQ3IDIwNC45MTIgNDM3LjgwNiAxOTguNTU3QzQzNy41MDIgMTkyLjc2OSA0MzguNDQ1IDE4Ni45ODMgNDQwLjU2NSAxODEuNTg5QzQ0MS45OTIgMTc4LjE5NCA0NDMuOTk4IDE3NS4wNzIgNDQ2LjQ5MyAxNzIuMzY0QzQ0OC45NTkgMTY5Ljc1MSA0NTEuOTQ1IDE2Ny42ODUgNDU1LjI2IDE2Ni4zQzQ1OC42MzggMTY0Ljg4NiA0NjIuMjY4IDE2NC4xNjggNDY1LjkyOCAxNjQuMTkxQzQ2OS4xMzYgMTY0LjAyMSA0NzIuMzQ0IDE2NC41MDYgNDc1LjM1NyAxNjUuNjE2QzQ3OC4zNzEgMTY2LjcyNSA0ODEuMTI5IDE2OC40MzggNDgzLjQ2MSAxNzAuNjQ3QzQ4NS41ODQgMTcyLjc2NiA0ODcuMjUyIDE3NS4yOTggNDg4LjM2MiAxNzguMDg2QzQ4OS40NzQgMTgwLjg3NSA0OTAgMTgzLjg2MSA0ODkuOTE1IDE4Ni44NjFDNDg5LjgxNyAxOTAuODkzIDQ4OS40NjMgMTk0LjkxNSA0ODguODYgMTk4LjkwMkw0ODguMTEgMjAyLjg4MkM0ODcuOTU0IDIwMy41NyA0ODcuNzUxIDIwNC4yNDYgNDg3LjQ5NiAyMDQuOTAzQzQ4Ni4xMjkgMjA4LjI3MSA0ODQuMTE2IDIxMS4zMzggNDgxLjU3IDIxMy45MzFDNDc5LjA1IDIxNi41MDYgNDc2LjA1IDIxOC41NjYgNDcyLjc0NCAyMTkuOTk1Ii8+JiN4YTs8cGF0aCBmaWxsPSIjQTlDQjM3IiBkPSJNMTkxLjkyMyA4NS40OTc1SDIwMy40ODhDMjA2LjI0OCA4NS40OTcyIDIwOC45NjIgODYuMjAxIDIxMS4zNzQgODcuNTQzQzIxMy43ODcgODguODg0OSAyMTUuODE4IDkwLjgyMDUgMjE3LjI3NSA5My4xNjY3QzIxOC43MzIgOTUuNTEyOSAyMTkuNTY3IDk4LjE5MTkgMjE5LjcwMSAxMDAuOTUxQzIxOS44MzUgMTAzLjcxIDIxOS4yNjUgMTA2LjQ1OCAyMTguMDQzIDEwOC45MzVMMTQ2LjEzNSAyNTQuNjYyQzE0NS45NDcgMjU1LjA0IDE0NS42NTcgMjU1LjM1OCAxNDUuMjk3IDI1NS41ODFDMTQ0LjkzOCAyNTUuODA0IDE0NC41MjQgMjU1LjkyMyAxNDQuMTAyIDI1NS45MjNIMTI5LjM0MkMxMjUuNTkyIDI1NS45MjMgMTIxLjk2OSAyNTQuNTYxIDExOS4xNDcgMjUyLjA5QzExNi4zMjYgMjQ5LjYxOSAxMTQuNDk3IDI0Ni4yMDcgMTE0IDI0Mi40ODhMMTAyLjk1OSAxNjAuNDA0QzEwMi45MTkgMTYwLjEwMyAxMDIuNzg0IDE1OS44MjIgMTAyLjU3MiAxNTkuNjA1QzEwMi4zNjEgMTU5LjM4NyAxMDIuMDg1IDE1OS4yNDMgMTAxLjc4NiAxNTkuMTk1QzEwMS40ODYgMTU5LjE0NyAxMDEuMTc5IDE1OS4xOTcgMTAwLjkxIDE1OS4zMzdDMTAwLjY0MSAxNTkuNDc3IDEwMC40MjQgMTU5LjcwMSAxMDAuMjkyIDE1OS45NzRMNTQuMjQyMiAyNTQuNjM0QzU0LjA1NzMgMjU1LjAxNyA1My43NjY5IDI1NS4zNDEgNTMuNDA2NCAyNTUuNTY2QzUzLjA0NTggMjU1Ljc5MyA1Mi42MjkyIDI1NS45MTEgNTIuMjAzNyAyNTUuOTExSDM3LjM1MjlDMzMuNjI1MiAyNTUuOTEgMzAuMDIzIDI1NC41NjQgMjcuMjA4IDI1Mi4xMThDMjQuMzkzMSAyNDkuNjcyIDIyLjU1MzggMjQ2LjI5MSAyMi4wMjk5IDI0Mi41OThMMC4wMTU4ODk0IDg3LjMwMzNDLTAuMDE2MzA3IDg3LjA3NjYgMC4wMDA1NDExNjMgODYuODQ1OCAwLjA2NTM4MzEgODYuNjI2MkMwLjEzMDIyNSA4Ni40MDYzIDAuMjQxNjA5IDg2LjIwMzIgMC4zOTE3NzQgODYuMDMwNEMwLjU0MTk0IDg1Ljg1NzUgMC43MjY1MTEgODUuNzE5NiAwLjkzNDg2OCA4NS42MjQ3QzEuMTQzMjMgODUuNTI5OCAxLjM2OTQ0IDg1LjQ4IDEuNTk4MzUgODUuNDgwMkgyMC4yMDUzQzI1LjI0ODUgODUuNDgwMiAzMC4xMTk3IDg3LjMxNjggMzMuOTA5OCA5MC42NDYxQzM3LjcgOTMuOTc1NCA0MC4xNTAzIDk4LjU3MDIgNDAuODA0MiAxMDMuNTc1TDUxLjQ4ODEgMTg1LjQ2N0M1MS41MjIxIDE4NS43MzMgNTEuNjQxNiAxODUuOTgxIDUxLjgyNzggMTg2LjE3NEM1Mi4wMTQxIDE4Ni4zNjcgNTIuMjU3NyAxODYuNDk1IDUyLjUyMiAxODYuNTM4QzUyLjc4NjcgMTg2LjU4MSA1My4wNTg3IDE4Ni41MzcgNTMuMjk2NSAxODYuNDE0QzUzLjUzNDMgMTg2LjI5IDUzLjcyNTUgMTg2LjA5MyA1My44NDIyIDE4NS44NTFMMTAxLjk2OCA4Ni43NTU5QzEwMi4xNTUgODYuMzc0IDEwMi40NDYgODYuMDUyMSAxMDIuODA2IDg1LjgyN0MxMDMuMTY3IDg1LjYwMTcgMTAzLjU4NCA4NS40ODA4IDEwNC4wMDkgODUuNDgwMkgxMTguODAyQzEyMS4wNCA4NS40ODAyIDEyMy4yIDg2LjI5NjQgMTI0Ljg4MSA4Ny43NzQ2QzEyNi41NjEgODkuMjUyOSAxMjcuNjQ2IDkxLjI5MjggMTI3LjkzMyA5My41MTM1TDEzOS44MjggMTg1LjQ1OUMxMzkuODYyIDE4NS43MjUgMTM5Ljk4MSAxODUuOTczIDE0MC4xNjggMTg2LjE2NkMxNDAuMzU0IDE4Ni4zNTkgMTQwLjU5NyAxODYuNDg2IDE0MC44NjIgMTg2LjUyOUMxNDEuMTI2IDE4Ni41NzIgMTQxLjM5NyAxODYuNTI5IDE0MS42MzUgMTg2LjQwNkMxNDEuODczIDE4Ni4yODIgMTQyLjA2NSAxODYuMDg1IDE0Mi4xODIgMTg1Ljg0M0wxOTAuNDg4IDg2LjM3OTdDMTkwLjYxOSA4Ni4xMTAyIDE5MC44MjMgODUuODgzIDE5MS4wNzcgODUuNzIzOUMxOTEuMzMxIDg1LjU2NDkgMTkxLjYyNCA4NS40ODAyIDE5MS45MjMgODUuNDgwMiIvPiYjeGE7PHBhdGggZmlsbD0iI0E5Q0IzNyIgZD0iTTIzNC45MTEgMjU1LjkyOEgyMTguODE3QzIxNi41NTcgMjU1LjkyOCAyMTQuMzI1IDI1NS40MzEgMjEyLjI3NyAyNTQuNDc2QzIxMC4yMjkgMjUzLjUyIDIwOC40MTUgMjUyLjEyNiAyMDYuOTYzIDI1MC4zOTRDMjA1LjUxIDI0OC42NjIgMjA0LjQ1NSAyNDYuNjMzIDIwMy44NjkgMjQ0LjQ0OUMyMDMuMjg0IDI0Mi4yNjUgMjAzLjE4NCAyMzkuOTc5IDIwMy41NzcgMjM3Ljc1MkwyMjEuOTYxIDEzMy4zNDlDMjIyLjA1NCAxMzIuODIzIDIyMi4zMjggMTMyLjM0NiAyMjIuNzM3IDEzMi4wMDNDMjIzLjE0NSAxMzEuNjYgMjIzLjY2MSAxMzEuNDczIDIyNC4xOTQgMTMxLjQ3M0gyNDYuNTRDMjQ4LjAzNCAxMzEuNDczIDI0OS41MSAxMzEuOCAyNTAuODYzIDEzMi40MzJDMjUyLjIxNyAxMzMuMDYzIDI1My40MTUgMTMzLjk4MyAyNTQuMzc1IDEzNS4xMjhDMjU1LjMzNSAxMzYuMjcyIDI1Ni4wMzMgMTM3LjYxNCAyNTYuNDE5IDEzOS4wNThDMjU2LjgwNSAxNDAuNTAyIDI1Ni44NzEgMTQyLjAxMiAyNTYuNjExIDE0My40ODRMMjM3LjE0NCAyNTQuMDVDMjM3LjA1MSAyNTQuNTc1IDIzNi43NzYgMjU1LjA1MSAyMzYuMzY4IDI1NS4zOTRDMjM1Ljk2IDI1NS43MzcgMjM1LjQ0NCAyNTUuOTI4IDIzNC45MTEgMjU1LjkyOFoiLz4mI3hhOzxwYXRoIGZpbGw9IiNBOUNCMzciIGQ9Ik0zNDUuMjkzIDEzMC4xMzlDMzUxLjg0OSAxMzAuMDA1IDM1OC4zNTUgMTMxLjI5IDM2NC4zNzEgMTMzLjkwNkMzNjkuNjE1IDEzNi4yMzEgMzc0LjMxMyAxMzkuNjI5IDM3OC4xNjggMTQzLjg4QzM4MS44NzQgMTQ4LjAzOSAzODQuNjgyIDE1Mi45MiAzODYuNDE2IDE1OC4yMTVDMzg4LjIzOCAxNjMuNzM1IDM4OS4xNSAxNjkuNTEyIDM4OS4xMjYgMTc1LjMyNEMzODkuMTIzIDE3OC43NzQgMzg4Ljg1NyAxODIuMjE5IDM4OC4zMzEgMTg1LjYyOEwzNzYuMjU1IDI1NC4wMzlDMzc2LjE2MiAyNTQuNTY0IDM3NS44ODggMjU1LjA0IDM3NS40OCAyNTUuMzgzQzM3NS4wNzIgMjU1LjcyNiAzNzQuNTU3IDI1NS45MTQgMzc0LjAyNSAyNTUuOTE1SDM1Ny44MDJDMzU1LjU0MiAyNTUuOTE1IDM1My4zMTIgMjU1LjQyIDM1MS4yNjMgMjU0LjQ2NEMzNDkuMjEzIDI1My41MDggMzQ3LjQgMjUyLjExNSAzNDUuOTQ4IDI1MC4zODJDMzQ0LjQ5NiAyNDguNjQ5IDM0My40MzggMjQ2LjYxOSAzNDIuODU1IDI0NC40MzRDMzQyLjI2OSAyNDIuMjUgMzQyLjE3IDIzOS45NjMgMzQyLjU2MiAyMzcuNzM2TDM1MC43MDkgMTkxLjU3N0MzNTIuMTE3IDE4My4xMiAzNTEuMjEzIDE3Ni40MDUgMzQ4LjAwMiAxNzEuNDMyQzM0NC43ODkgMTY2LjQ1OSAzMzkuMjE3IDE2My45NyAzMzEuMjg5IDE2My45NjZDMzI1LjIxOCAxNjMuOTM0IDMxOS4zMzYgMTY2LjA5MyAzMTQuNzI1IDE3MC4wNDVDMzA5LjU1MyAxNzQuNjE4IDMwNi4yIDE4MC45MDQgMzA1LjI4NyAxODcuNzVMMjkzLjcyOSAyNTQuMDM5QzI5My42MzkgMjU0LjU2NCAyOTMuMzY1IDI1NS4wNDEgMjkyLjk1NyAyNTUuMzg0QzI5Mi41NDkgMjU1LjcyOCAyOTIuMDM0IDI1NS45MTYgMjkxLjUwMiAyNTUuOTE3SDI3NS4yNzhDMjczLjAxOCAyNTUuOTE3IDI3MC43ODUgMjU1LjQyMiAyNjguNzM4IDI1NC40NjZDMjY2LjY5IDI1My41MTEgMjY0Ljg3NiAyNTIuMTE4IDI2My40MjQgMjUwLjM4NkMyNjEuOTcxIDI0OC42NTQgMjYwLjkxNiAyNDYuNjI1IDI2MC4zMyAyNDQuNDQxQzI1OS43NDUgMjQyLjI1NyAyNTkuNjQ2IDIzOS45NzEgMjYwLjAzOCAyMzcuNzQ0TDI3OC40MjMgMTMzLjM0MUMyNzguNTE0IDEzMi44MTYgMjc4Ljc4OCAxMzIuMzQgMjc5LjE5NiAxMzEuOTk3QzI3OS42MDQgMTMxLjY1NCAyODAuMTE5IDEzMS40NjYgMjgwLjY1MyAxMzEuNDY1SDI5My4xNTdDMjk2LjgwOSAxMzEuNDY1IDMwMC4zNjQgMTMyLjY0OSAzMDMuMjg4IDEzNC44NEMzMDYuMjExIDEzNy4wMzEgMzA4LjM0OCAxNDAuMTExIDMwOS4zNzUgMTQzLjYxOUMzMTIuNzk0IDE0MS4wNzcgMzE2LjQxNiAxMzguODI0IDMyMC4yMDcgMTM2Ljg4M0MzMjMuODg5IDEzNS4xMjIgMzI3LjY4MSAxMzMuNTk5IDMzMS41NiAxMzIuMzIzQzMzNS45ODQgMTMwLjg0NyAzNDAuNjIyIDEzMC4xMDYgMzQ1LjI5IDEzMC4xMzEiLz4mI3hhOzxwYXRoIGZpbGw9IiNBOUNCMzciIGQ9Ik01MzQuMiAxMzEuNDcySDUyNS45NTdDNTIxLjA3OCAxMzEuNDcxIDUxNi4yNzMgMTMyLjY5NiA1MTEuOTg4IDEzNS4wMzRDNTA3LjcwNCAxMzcuMzcyIDUwNC4wNzEgMTQwLjc0OSA1MDEuNDI3IDE0NC44NTRDNTAxLjQwMyAxNDQuODk4IDUwMS4zNjQgMTQ0LjkzNCA1MDEuMzIzIDE0NC45NjFDNTAxLjI3OSAxNDQuOTg5IDUwMS4yMyAxNDUuMDA2IDUwMS4xODEgMTQ1LjAxMkM1MDEuMTI5IDE0NS4wMTggNTAxLjA3NyAxNDUuMDEyIDUwMS4wMyAxNDQuOTk1QzUwMC45ODEgMTQ0Ljk3OCA1MDAuOTM3IDE0NC45NTEgNTAwLjkwMSAxNDQuOTE1QzQ5OC4wMTkgMTQyLjExNSA0OTQuNzk4IDEzOS42ODYgNDkxLjMxMyAxMzcuNjg1QzQ4Ny42MjMgMTM1LjQ1OSA0ODMuNjc4IDEzMy42ODMgNDc5LjU2MyAxMzIuMzk2QzQ3NC41MjIgMTMwLjgzMSA0NjkuMjY1IDEzMC4wNzMgNDYzLjk4NiAxMzAuMTUxQzQ1NS45ODEgMTMwLjE2OCA0NDguMDY2IDEzMS44NTYgNDQwLjc0OSAxMzUuMTA1QzQzMy4yNzYgMTM4LjM0NiA0MjYuNDg3IDE0Mi45ODggNDIwLjc1IDE0OC43NzlDNDE0LjgzNiAxNTQuNzQ2IDQxMC4xMSAxNjEuNzg1IDQwNi44MjIgMTY5LjUyMkM0MDIuNjE3IDE3OS45MDUgNDAwLjcwOCAxOTEuMDc4IDQwMS4yMjggMjAyLjI3QzQwMS4xNzQgMjA5LjU0MyA0MDIuNDk0IDIxNi43NiA0MDUuMTIxIDIyMy41NDFDNDA3LjU3IDIyOS45MTQgNDExLjI5OSAyMzUuNzE2IDQxNi4wNzkgMjQwLjU4NkM0MjAuODQxIDI0NS4zODMgNDI2LjQ5IDI0OS4yIDQzMi43MTQgMjUxLjgyNUM0MzkuMjUxIDI1NC41ODcgNDQ2LjI4MyAyNTUuOTgyIDQ1My4zNzYgMjU1LjkyMUM0NTcuMzM3IDI1NS45ODUgNDYxLjI5IDI1NS41MTkgNDY1LjEyNiAyNTQuNTM1QzQ2OC4wNTcgMjUzLjc1NCA0NzAuOTI1IDI1Mi43NjEgNDczLjcwOSAyNTEuNTYzQzQ3NS41MjIgMjUwLjY2MSA0NzcuMjY3IDI0OS42MzMgNDc4LjkzNiAyNDguNDg3QzQ3OC45ODUgMjQ4LjQ1NCA0NzkuMDQgMjQ4LjQzNyA0NzkuMDk3IDI0OC40MzdDNDc5LjE1MiAyNDguNDM3IDQ3OS4yMSAyNDguNDU0IDQ3OS4yNTYgMjQ4LjQ4NUM0NzkuMzAzIDI0OC41MTcgNDc5LjM0MSAyNDguNTYxIDQ3OS4zNjMgMjQ4LjYxNEM0NzkuMzg1IDI0OC42NjYgNDc5LjM5IDI0OC43MjQgNDc5LjM3OSAyNDguNzhDNDcxLjQzNSAyODcuNDM2IDQ0My45MjcgMzA2LjgyNCA0MTYuMTM3IDMxNi40MzZDNDE0LjY0NCAzMTYuOTQ5IDQxMy4zODkgMzE3Ljk5MSA0MTIuNjExIDMxOS4zN0M0MTEuODM2IDMyMC43NDYgNDExLjU4OSAzMjIuMzYxIDQxMS45MjQgMzIzLjkwN0M0MTIuMjU4IDMyNS40NTMgNDEzLjE0NSAzMjYuODIxIDQxNC40MjIgMzI3Ljc1M0M0MTUuNjk5IDMyOC42ODggNDE3LjI3MSAzMjkuMTIxIDQxOC44NDQgMzI4Ljk3MUM0NjAuMDkzIDMyNC44MTQgNTA2LjE1IDMwNy4wMzggNTE2LjA1NiAyNTAuNTE5QzUyMi44MjkgMjExLjg2MyA1MzQuMDM5IDE0Ny44OTEgNTM2LjQ1IDEzNC4xNEM1MzYuNTA3IDEzMy44MTQgNTM2LjQ5MyAxMzMuNDggNTM2LjQwNiAxMzMuMTZDNTM2LjMyMSAxMzIuODQgNTM2LjE2NyAxMzIuNTQzIDUzNS45NTQgMTMyLjI5QzUzNS43NCAxMzIuMDM2IDUzNS40NzQgMTMxLjgzNCA1MzUuMTc2IDEzMS42OTRDNTM0Ljg3NCAxMzEuNTU1IDUzNC41NDggMTMxLjQ4MiA1MzQuMjE3IDEzMS40ODNMNTM0LjIgMTMxLjQ3MlpNNDcyLjY1NCAyMTkuOTJDNDY5LjI4MSAyMjEuMzc4IDQ2NS42NDMgMjIyLjEyIDQ2MS45NyAyMjIuMDk5QzQ1OC43NTkgMjIyLjI2OSA0NTUuNTQ1IDIyMS43ODMgNDUyLjUyNiAyMjAuNjcxQzQ0OS41MDcgMjE5LjU1OSA0NDYuNzQ5IDIxNy44NDMgNDQ0LjQxMiAyMTUuNjI5QzQ0MC4xMTMgMjEwLjkzIDQzNy43MTEgMjA0LjgwMyA0MzcuNjY3IDE5OC40MzJDNDM3LjM2NiAxOTIuNjM0IDQzOC4zMDggMTg2LjgzNyA0NDAuNDMxIDE4MS40MzRDNDQxLjg2NCAxNzguMDMxIDQ0My44NzUgMTc0LjkwMyA0NDYuMzczIDE3Mi4xODdDNDQ4Ljg0NCAxNjkuNTY5IDQ1MS44MzYgMTY3LjQ5OSA0NTUuMTU0IDE2Ni4xMDlDNDU4LjUzNyAxNjQuNjkzIDQ2Mi4xNzIgMTYzLjk3NCA0NjUuODM4IDE2My45OTZDNDY5LjA1MSAxNjMuODI3IDQ3Mi4yNjUgMTY0LjMxNSA0NzUuMjgxIDE2NS40MjhDNDc4LjMgMTY2LjU0MSA0ODEuMDYxIDE2OC4yNTYgNDgzLjM5NiAxNzAuNDcxQzQ4NS41MjcgMTcyLjU5NCA0ODcuMTk4IDE3NS4xMzEgNDg4LjMxIDE3Ny45MjVDNDg5LjQyMyAxODAuNzIgNDg5Ljk1MSAxODMuNzE0IDQ4OS44NjQgMTg2LjcyQzQ4OS43NjUgMTkwLjc1OSA0ODkuNDEyIDE5NC43ODggNDg4LjgwNiAxOTguNzgzTDQ4OC4wNTYgMjAyLjc3NUM0ODcuODk5IDIwMy40NjQgNDg3LjY5NCAyMDQuMTQgNDg3LjQzOSAyMDQuOEM0ODYuMDY5IDIwOC4xNzUgNDg0LjA1MyAyMTEuMjQ5IDQ4MS41IDIxMy44NDhDNDc4Ljk3NCAyMTYuNDI3IDQ3NS45NjkgMjE4LjQ5IDQ3Mi42NTQgMjE5LjkyMyIvPiYjeGE7PHBhdGggZmlsbD0id2hpdGUiIGQ9Ik05MTYuMjc4IDEzMS40NzJIOTA4LjAzMkM5MDMuMTUzIDEzMS40NzEgODk4LjM1MSAxMzIuNjk2IDg5NC4wNjMgMTM1LjAzNEM4ODkuNzc5IDEzNy4zNzIgODg2LjE0OSAxNDAuNzQ5IDg4My41MDUgMTQ0Ljg1NEM4ODMuNDc4IDE0NC44OTggODgzLjQ0MiAxNDQuOTM0IDg4My4zOTggMTQ0Ljk2MUM4ODMuMzU0IDE0NC45ODkgODgzLjMwNSAxNDUuMDA2IDg4My4yNTYgMTQ1LjAxMkM4ODMuMjA0IDE0NS4wMTggODgzLjE1NSAxNDUuMDEyIDg4My4xMDUgMTQ0Ljk5NUM4ODMuMDU5IDE0NC45NzggODgzLjAxNSAxNDQuOTUxIDg4Mi45NzYgMTQ0LjkxNUM4ODAuMDk0IDE0Mi4xMTUgODc2Ljg3MyAxMzkuNjg2IDg3My4zODggMTM3LjY4NUM4NjkuNjk4IDEzNS40NTkgODY1Ljc1MyAxMzMuNjgzIDg2MS42NDEgMTMyLjM5NkM4NTYuNTk3IDEzMC44MzEgODUxLjM0IDEzMC4wNzMgODQ2LjA2NCAxMzAuMTUxQzgzOC4wNTYgMTMwLjE2OCA4MzAuMTQ0IDEzMS44NTYgODIyLjgyNyAxMzUuMTA1QzgxNS4zNTEgMTM4LjM0NiA4MDguNTYyIDE0Mi45ODggODAyLjgyOCAxNDguNzc5Qzc5Ni45MTEgMTU0Ljc0NiA3OTIuMTg1IDE2MS43ODUgNzg4LjkgMTY5LjUyMkM3ODQuNjkyIDE3OS45MDUgNzgyLjc4MyAxOTEuMDc4IDc4My4zMDYgMjAyLjI3Qzc4My4yNDkgMjA5LjU0MyA3ODQuNTY5IDIxNi43NiA3ODcuMTk5IDIyMy41NDFDNzg5LjY0NiAyMjkuOTE0IDc5My4zNzQgMjM1LjcxNiA3OTguMTU3IDI0MC41ODZDODAyLjkxNiAyNDUuMzgzIDgwOC41NjggMjQ5LjIgODE0Ljc5MiAyNTEuODI1QzgyMS4zMjYgMjU0LjU4NyA4MjguMzU4IDI1NS45ODIgODM1LjQ1MyAyNTUuOTIxQzgzOS40MTIgMjU1Ljk4NSA4NDMuMzY1IDI1NS41MTkgODQ3LjIwMyAyNTQuNTM1Qzg1MC4xMzIgMjUzLjc1NCA4NTMgMjUyLjc2MSA4NTUuNzg2IDI1MS41NjNDODU3LjU5NyAyNTAuNjYxIDg1OS4zNDUgMjQ5LjYzMyA4NjEuMDEzIDI0OC40ODdDODYxLjA2IDI0OC40NTQgODYxLjExNSAyNDguNDM3IDg2MS4xNzIgMjQ4LjQzN0M4NjEuMjMgMjQ4LjQzNyA4NjEuMjg1IDI0OC40NTQgODYxLjMzMSAyNDguNDg1Qzg2MS4zODEgMjQ4LjUxNyA4NjEuNDE2IDI0OC41NjEgODYxLjQzOCAyNDguNjE0Qzg2MS40NiAyNDguNjY2IDg2MS40NjggMjQ4LjcyNCA4NjEuNDU3IDI0OC43OEM4NTMuNTEzIDI4Ny40MzYgODI2LjAwNSAzMDYuODI0IDc5OC4yMTUgMzE2LjQzNkM3OTYuNzE5IDMxNi45NDkgNzk1LjQ2NCAzMTcuOTkxIDc5NC42ODYgMzE5LjM3Qzc5My45MTEgMzIwLjc0NiA3OTMuNjY3IDMyMi4zNjEgNzkzLjk5OSAzMjMuOTA3Qzc5NC4zMzMgMzI1LjQ1MyA3OTUuMjIzIDMyNi44MjEgNzk2LjQ5NyAzMjcuNzUzQzc5Ny43NzQgMzI4LjY4OCA3OTkuMzQ2IDMyOS4xMjEgODAwLjkyMiAzMjguOTcxQzg0Mi4xNzEgMzI0LjgxNCA4ODguMjI1IDMwNy4wMzggODk4LjEzMiAyNTAuNTE5QzkwNC45MDQgMjExLjg2MyA5MTYuMTE3IDE0Ny44OTEgOTE4LjUyOCAxMzQuMTRDOTE4LjU4MiAxMzMuODE0IDkxOC41NjkgMTMzLjQ4IDkxOC40ODQgMTMzLjE2QzkxOC4zOTYgMTMyLjg0IDkxOC4yNDMgMTMyLjU0MyA5MTguMDI5IDEzMi4yOUM5MTcuODE1IDEzMi4wMzYgOTE3LjU0OSAxMzEuODM0IDkxNy4yNTEgMTMxLjY5NEM5MTYuOTUyIDEzMS41NTUgOTE2LjYyNCAxMzEuNDgyIDkxNi4yOTUgMTMxLjQ4M0w5MTYuMjc4IDEzMS40NzJaTTg1NC43MzIgMjE5LjkyQzg1MS4zNTkgMjIxLjM3OCA4NDcuNzIxIDIyMi4xMiA4NDQuMDQ3IDIyMi4wOTlDODQwLjgzNCAyMjIuMjY5IDgzNy42MiAyMjEuNzgzIDgzNC42MDQgMjIwLjY3MUM4MzEuNTg1IDIxOS41NTkgODI4LjgyNCAyMTcuODQzIDgyNi40OSAyMTUuNjI5QzgyMi4xOTEgMjEwLjkzIDgxOS43ODYgMjA0LjgwMyA4MTkuNzQ1IDE5OC40MzJDODE5LjQ0NCAxOTIuNjM0IDgyMC4zODMgMTg2LjgzNyA4MjIuNTA2IDE4MS40MzRDODIzLjkzOSAxNzguMDMxIDgyNS45NSAxNzQuOTAzIDgyOC40NTEgMTcyLjE4N0M4MzAuOTIgMTY5LjU2OSA4MzMuOTExIDE2Ny40OTkgODM3LjIzMSAxNjYuMTA5Qzg0MC42MTIgMTY0LjY5MyA4NDQuMjQ3IDE2My45NzQgODQ3LjkxNiAxNjMuOTk2Qzg1MS4xMjYgMTYzLjgyNyA4NTQuMzQgMTY0LjMxNSA4NTcuMzU5IDE2NS40MjhDODYwLjM3NSAxNjYuNTQxIDg2My4xMzcgMTY4LjI1NiA4NjUuNDczIDE3MC40NzFDODY3LjYwMiAxNzIuNTk0IDg2OS4yNzMgMTc1LjEzMSA4NzAuMzg1IDE3Ny45MjVDODcxLjQ5OCAxODAuNzIgODcyLjAyOSAxODMuNzE0IDg3MS45NDIgMTg2LjcyQzg3MS44NDMgMTkwLjc1OSA4NzEuNDkgMTk0Ljc4OCA4NzAuODg0IDE5OC43ODNMODcwLjEzMyAyMDIuNzc1Qzg2OS45NzUgMjAzLjQ2NCA4NjkuNzY5IDIwNC4xNCA4NjkuNTE3IDIwNC44Qzg2OC4xNDUgMjA4LjE3NSA4NjYuMTI4IDIxMS4yNDkgODYzLjU3OCAyMTMuODQ4Qzg2MS4wNDkgMjE2LjQyNyA4NTguMDQ0IDIxOC40OSA4NTQuNzMyIDIxOS45MjMiLz4mI3hhOzxwYXRoIGZpbGw9IndoaXRlIiBkPSJNMzI0LjIyOCAzNS44MzlDMzI0LjIyOCAzNS44MzkgMzQzLjk3NSAzOS41NDg2IDM1Mi4yNzggNzIuNzgxNUMzNTYuMjI5IDg4LjU5MTkgMzU5LjAwNCAxMDAuMTk3IDM2Mi43OTggMTE1Ljc0NEMzNjIuODk0IDExNi4wNTkgMzYyLjg2OSAxMTYuMzk4IDM2Mi43MyAxMTYuNjk3QzM2Mi41OSAxMTYuOTk1IDM2Mi4zNDkgMTE3LjIzMiAzNjIuMDQ4IDExNy4zNjRDMzYxLjc0NCAxMTcuNDk1IDM2MS40MDcgMTE3LjUxMSAzNjEuMDkyIDExNy40MDlDMzYwLjc3OSAxMTcuMzA3IDM2MC41MTYgMTE3LjA5NSAzNjAuMzQ5IDExNi44MTFDMzU1LjE5MSAxMDcuMjg0IDM0MS4xNzIgODEuNjU0NyAzMjAuNDM5IDY4LjE0NDRDMzA5LjE1NSA2MC43ODg5IDI5NC4xNCA1My4xMDQ0IDI4Mi43MSA2OS42ODI0QzI3My45MDggODIuNDQxNSAyNjcuNDYgOTkuODM5NiAyNjMuODA4IDExMS4wOEMyNjMuNjg5IDExMS40MzQgMjYzLjQ0MyAxMTEuNzMyIDI2My4xMTcgMTExLjkxNUMyNjIuNzkxIDExMi4wOTggMjYyLjQwOCAxMTIuMTUzIDI2Mi4wNDQgMTEyLjA2OUMyNjEuNjggMTExLjk4NSAyNjEuMzYxIDExMS43NjggMjYxLjE0NyAxMTEuNDYyQzI2MC45MzQgMTExLjE1NCAyNjAuODQyIDExMC43NzkgMjYwLjg5IDExMC40MDhDMjYyLjcxNyA5Ny43NDIxIDI2Ny4wODEgODQuMjY1NSAyNjAuMDMyIDc2LjMzMTVDMjUzLjI0NCA2OC42OTA4IDIzMy4yMTMgNzEuMDU2MiAyMTguNTUxIDcxLjEwMjhDMjE4LjI1NyA3MS4xMDM0IDIxNy45NzQgNzAuOTk0IDIxNy43NTggNzAuNzk1QzIxNy41NDIgNzAuNTk1NiAyMTcuNDEgNzAuMzIyIDIxNy4zODcgNzAuMDI5MkMyMTcuMzY0IDY5LjczNjIgMjE3LjQ1MyA2OS40NDU2IDIxNy42MzUgNjkuMjE1M0MyMTcuODE3IDY4Ljk4NSAyMTguMDc5IDY4LjgzMTcgMjE4LjM2OSA2OC43ODcxQzIzNS4xMTEgNjYuMjUzOSAyNjEuMDc5IDYyLjMzMjkgMjY5LjkzOSA1Ni4yMzNDMjc0LjY1MyA1Mi45ODcgMjkwLjE1OSA0MS44NDIxIDI2My44NzMgMjUuMDc3NkMyNDQuNTQgMTIuNzQwNyAyMTkuODkgNS45NDAwOSAyMDguNTU3IDIuMTg0MkMyMDguMyAyLjA5MjgzIDIwOC4wODUgMS45MTA5MSAyMDcuOTUyIDEuNjcyODNDMjA3LjgxOSAxLjQzNDc1IDIwNy43NzcgMS4xNTYzOCAyMDcuODM0IDAuODg5NzNDMjA3Ljg5MSAwLjYyMzA4IDIwOC4wNDMgMC4zODU5ODEgMjA4LjI2MiAwLjIyMzA4NkMyMDguNDggMC4wNjAxOTIzIDIwOC43NTEgLTAuMDE4MTQ3NCAyMDkuMDIyIDAuMDAzNTQ5MzJDMjIwLjQzMiAwLjk0OTM4IDI0Ni45NjUgMi42NjU4NyAyNTQuNjY2IDMuMjQ3MDhDMjY5LjI1OSA0LjM0MzY5IDMwMi40MzUgNi43NDA1OSAzMDcuOTE0IDI0LjA2MTZDMzE3Ljc5OCAxNi4wNzgzIDMyOS45NDYgMTMuNDg5OSAzMzUuNjIyIDE2LjEzODJDMzM2LjU2NCAxNi40ODY0IDMzNS40OTkgMTkuMTcyOSAzMzUuNDk5IDE5LjE3MjlDMzMyLjU5NSAyNS4yNTUxIDMyOC43OTUgMzAuODY4IDMyNC4yMjggMzUuODIyOCIvPiYjeGE7PHBhdGggZmlsbD0id2hpdGUiIGQ9Ik0xMTQyLjc4IDEyOC44NjhDMTE0OC45NyAxMjguODE2IDExNTUuMTIgMTI5LjgyIDExNjAuOTYgMTMxLjgzN0MxMTY2LjM0IDEzMy42NzYgMTE3MS4zMyAxMzYuNTE2IDExNzUuNjUgMTQwLjIwN0MxMTc5LjkgMTQzLjkyNCAxMTgzLjI4IDE0OC41MzkgMTE4NS41MyAxNTMuNzE5QzExODggMTU5LjM5MyAxMTg5LjI0IDE2NS41MjggMTE4OS4xNiAxNzEuNzE3QzExODkuMTUgMTc1LjA3MiAxMTg4Ljg4IDE3OC40MjIgMTE4OC4zNiAxODEuNzM2TDExNzUuOSAyNTIuNTkyQzExNzUuODEgMjUzLjA5MSAxMTc1LjU1IDI1My41NDQgMTE3NS4xNiAyNTMuODdDMTE3NC43OCAyNTQuMTk1IDExNzQuMjkgMjU0LjM3NSAxMTczLjc4IDI1NC4zNzZIMTE2NC4wOEMxMTYwLjc5IDI1NC4zNzkgMTE1Ny41OSAyNTMuMzA3IDExNTQuOTcgMjUxLjMyMkMxMTUyLjM1IDI0OS4zMzggMTE1MC40NSAyNDYuNTUgMTE0OS41NiAyNDMuMzg0TDExNDkuMjMgMjQyLjI0M0MxMTQ2LjQ0IDI0NC44NDYgMTE0My4zNCAyNDcuMTA0IDExNDAuMDEgMjQ4Ljk2OUMxMTM2LjYxIDI1MC44NyAxMTMzLjAzIDI1Mi40MzggMTEyOS4zMyAyNTMuNjUyQzExMjUuMTIgMjU1LjAzOSAxMTIwLjcyIDI1NS43MjkgMTExNi4yOSAyNTUuNjk0QzExMTAuNDUgMjU1Ljc5NyAxMTA0LjY0IDI1NC45MjggMTA5OS4wOSAyNTMuMTIzQzEwOTQuNTEgMjUxLjYyNSAxMDkwLjI2IDI0OS4yNTIgMTA4Ni41OCAyNDYuMTM2QzEwODMuMzEgMjQzLjM0IDEwODAuNyAyMzkuODUxIDEwNzguOTQgMjM1LjkyQzEwNzcuMjMgMjMyLjA2MSAxMDc2LjM1IDIyNy44ODMgMTA3Ni4zNyAyMjMuNjYyQzEwNzYuMTMgMjE2LjE5IDEwNzguMyAyMDguODM5IDEwODIuNTYgMjAyLjY5N0MxMDg2Ljk5IDE5Ni43NDIgMTA5Mi44MiAxOTEuOTg2IDEwOTkuNTUgMTg4Ljg1OUMxMTA3LjY3IDE4NS4wNjQgMTExNi4zIDE4Mi40ODcgMTEyNS4xNyAxODEuMjA5QzExMzUuODcgMTc5LjU2NSAxMTQ2LjY5IDE3OC43NzEgMTE1Ny41MSAxNzguODM1QzExNTguMDMgMTc2LjE1NCAxMTU3Ljk4IDE3My4zOTMgMTE1Ny4zNSAxNzAuNzM1QzExNTYuNzMgMTY4LjA3NiAxMTU1LjU1IDE2NS41ODEgMTE1My44OSAxNjMuNDE0QzExNTIuMDUgMTYxLjI4MyAxMTQ5Ljc1IDE1OS42MTMgMTE0Ny4xNSAxNTguNTM3QzExNDQuNTUgMTU3LjQ2MSAxMTQxLjc0IDE1Ny4wMSAxMTM4Ljk0IDE1Ny4yMTlDMTEzNS45MiAxNTcuMTE0IDExMzIuOTQgMTU3Ljg0NCAxMTMwLjMxIDE1OS4zM0MxMTI4LjE4IDE2MC41NzMgMTEyNi4yNSAxNjIuMTI2IDExMjQuNTcgMTYzLjk0QzExMjMuMTQgMTY1LjU4NiAxMTIxLjkzIDE2Ny40MDkgMTEyMC45NiAxNjkuMzY1QzExMjAuNzcgMTY5Ljc0NiAxMTIwLjQ5IDE3MC4wNjYgMTEyMC4xMyAxNzAuMjg2QzExMTkuNzcgMTcwLjUwNiAxMTE5LjM2IDE3MC42MTcgMTExOC45MyAxNzAuNjA1TDEwOTEuNjMgMTY5LjQ2NEMxMDkxLjI5IDE2OS40NTIgMTA5MC45NyAxNjkuMzYyIDEwOTAuNjcgMTY5LjE5OUMxMDkwLjM4IDE2OS4wMzcgMTA5MC4xMiAxNjguODA3IDEwODkuOTMgMTY4LjUyOUMxMDg5Ljc0IDE2OC4yNTEgMTA4OS42MiAxNjcuOTMyIDEwODkuNTggMTY3LjU5OEMxMDg5LjU0IDE2Ny4yNjUgMTA4OS41NyAxNjYuOTI1IDEwODkuNjggMTY2LjYwOEMxMDkxLjM4IDE2Mi4wNTUgMTA5My42MyAxNTcuNzI3IDEwOTYuMzggMTUzLjcyMkMxMDk5LjcgMTQ4Ljg3MSAxMTAzLjcxIDE0NC41NCAxMTA4LjMgMTQwLjg3MkMxMTEyLjk5IDEzNy4xMzkgMTExOC4yNCAxMzQuMTc5IDExMjMuODUgMTMyLjFDMTEyOS45MSAxMjkuODk1IDExMzYuMzEgMTI4LjgwMSAxMTQyLjc1IDEyOC44N0wxMTQyLjc4IDEyOC44NjhaTTExMjEuNjcgMjMxLjQzN0MxMTI5LjI1IDIzMS42MTYgMTEzNi42MyAyMjkuMDE0IDExNDIuNDIgMjI0LjEyMkMxMTQ4LjA2IDIxOS40NTEgMTE1MS44NiAyMTIuOTM3IDExNTMuMTYgMjA1LjczMkwxMTU0LjM1IDIwMC4zMjVDMTE0Ni43MyAyMDAuMjM5IDExMzkuMTEgMjAwLjY1OCAxMTMxLjU1IDIwMS41NzhDMTEyNi42MiAyMDIuMTE4IDExMjEuNzggMjAzLjM2MSAxMTE3LjE5IDIwNS4yNzJDMTExNC4xNiAyMDYuNSAxMTExLjU3IDIwOC42MTQgMTEwOS43NSAyMTEuMzM4QzExMDguMjggMjEzLjgyNyAxMTA3LjUzIDIxNi42NzMgMTEwNy41OCAyMTkuNTYzQzExMDcuNTkgMjIxLjEyOSAxMTA3Ljk1IDIyMi42NzIgMTEwOC42MSAyMjQuMDkzQzExMDkuMjYgMjI1LjUxMyAxMTEwLjIyIDIyNi43NzggMTExMS40IDIyNy44MDRDMTExNC4yMSAyMzAuMzE5IDExMTcuOTEgMjMxLjYyMiAxMTIxLjY3IDIzMS40MjYiLz4mI3hhOzxwYXRoIGZpbGw9IndoaXRlIiBkPSJNNzQzLjY1NiAyNTcuNzM1SDczMi45NUM3MzAuNjg5IDI1Ny43MzUgNzI4LjQ1NyAyNTcuMjQxIDcyNi40MDggMjU2LjI4NUM3MjQuMzU4IDI1NS4zMyA3MjIuNTQ1IDI1My45MzcgNzIxLjA5MyAyNTIuMjA1QzcxOS42MzggMjUwLjQ3MiA3MTguNTgzIDI0OC40NDIgNzE3Ljk5NyAyNDYuMjU4QzcxNy40MTQgMjQ0LjA3MyA3MTcuMzE1IDI0MS43ODcgNzE3LjcwNyAyMzkuNTZMNzM2LjA2MiAxMzUuMzMyQzczNi4xNDkgMTM0LjgzMyA3MzYuNDEgMTM0LjM4IDczNi43OTkgMTM0LjA1NEM3MzcuMTg1IDEzMy43MjggNzM3LjY3OCAxMzMuNTQ5IDczOC4xODUgMTMzLjU1SDc0OC44OTFDNzUxLjE1MSAxMzMuNTUgNzUzLjM4NCAxMzQuMDQ1IDc1NS40MyAxMzVDNzU3LjQ3OSAxMzUuOTU2IDc1OS4yOTMgMTM3LjM0OSA3NjAuNzQ1IDEzOS4wODFDNzYyLjIgMTQwLjgxMyA3NjMuMjU0IDE0Mi44NDMgNzYzLjg0MSAxNDUuMDI3Qzc2NC40MjQgMTQ3LjIxMSA3NjQuNTI2IDE0OS40OTcgNzY0LjEzNCAxNTEuNzI0TDc0NS43NzkgMjU1Ljk1MkM3NDUuNjkxIDI1Ni40NTEgNzQ1LjQzMSAyNTYuOTA0IDc0NS4wNDIgMjU3LjIzQzc0NC42NTMgMjU3LjU1NiA3NDQuMTYzIDI1Ny43MzUgNzQzLjY1NiAyNTcuNzM1Wk03NTcuMDU4IDExNy4zMzNDNzU0LjkxIDExNy4zOTcgNzUyLjc3IDExNi45OTUgNzUwLjc5MiAxMTYuMTUzQzc0OC44MTQgMTE1LjMxIDc0Ny4wNDIgMTE0LjA0OCA3NDUuNTk4IDExMi40NTRDNzQyLjY4NiAxMDkuNDAyIDc0MS4wODEgMTA1LjMzNSA3NDEuMTE2IDEwMS4xMTZDNzQxLjA5NyA5OC41OTU4IDc0MS42MjMgOTYuMTAxIDc0Mi42NTYgOTMuODAyN0M3NDMuNjkxIDkxLjUwNDggNzQ1LjIxMiA4OS40NTc3IDc0Ny4xMSA4Ny44MDIxQzc1MC42MzYgODQuMzA1OCA3NTUuMzg0IDgyLjMyMDQgNzYwLjM0OCA4Mi4yNjYxQzc2Mi40OTggODIuMjAxOSA3NjQuNjM1IDgyLjYwNDcgNzY2LjYxNiA4My40NDYzQzc2OC41OTQgODQuMjg4MiA3NzAuMzY2IDg1LjU0ODggNzcxLjgxMyA4Ny4xNDE5Qzc3NC43MTcgOTAuMTk3MSA3NzYuMzI1IDk0LjI2MjIgNzc2LjI5MiA5OC40Nzk1Qzc3Ni4zMTEgMTAxLjAwMSA3NzUuNzg1IDEwMy40OTYgNzc0Ljc1IDEwNS43OTRDNzczLjcxNCAxMDguMDkzIDc3Mi4xOTYgMTEwLjE0MSA3NzAuMjk4IDExMS43OTdDNzY2Ljc2OSAxMTUuMjkzIDc2Mi4wMjIgMTE3LjI3OSA3NTcuMDU4IDExNy4zMzNaIi8+JiN4YTs8cGF0aCBmaWxsPSJ3aGl0ZSIgZD0iTTk1MS44NjIgMjU3LjczNUg5NDEuMTU2QzkzOC44OTYgMjU3LjczNSA5MzYuNjYzIDI1Ny4yNDEgOTM0LjYxNCAyNTYuMjg1QzkzMi41NjQgMjU1LjMzIDkzMC43NTEgMjUzLjkzNyA5MjkuMjk5IDI1Mi4yMDVDOTI3Ljg0NCAyNTAuNDcyIDkyNi43ODkgMjQ4LjQ0MiA5MjYuMjAzIDI0Ni4yNThDOTI1LjYyIDI0NC4wNzMgOTI1LjUyMSAyNDEuNzg3IDkyNS45MTMgMjM5LjU2TDk0NC4yNjggMTM1LjMzMkM5NDQuMzU1IDEzNC44MzMgOTQ0LjYxNiAxMzQuMzggOTQ1LjAwNSAxMzQuMDU0Qzk0NS4zOTEgMTMzLjcyOCA5NDUuODg0IDEzMy41NDkgOTQ2LjM5MSAxMzMuNTVIOTU3LjA5N0M5NTkuMzU3IDEzMy41NSA5NjEuNTkgMTM0LjA0NSA5NjMuNjM2IDEzNUM5NjUuNjg2IDEzNS45NTYgOTY3LjQ5OSAxMzcuMzQ5IDk2OC45NTEgMTM5LjA4MUM5NzAuNDA2IDE0MC44MTMgOTcxLjQ2MSAxNDIuODQzIDk3Mi4wNDcgMTQ1LjAyN0M5NzIuNjMgMTQ3LjIxMSA5NzIuNzMyIDE0OS40OTcgOTcyLjM0IDE1MS43MjRMOTUzLjk4NSAyNTUuOTUyQzk1My44OTcgMjU2LjQ1MSA5NTMuNjM3IDI1Ni45MDQgOTUzLjI0OCAyNTcuMjNDOTUyLjg1OSAyNTcuNTU2IDk1Mi4zNjkgMjU3LjczNSA5NTEuODYyIDI1Ny43MzVaTTk2NS4yNjQgMTE3LjMzM0M5NjMuMTE2IDExNy4zOTcgOTYwLjk3NiAxMTYuOTk1IDk1OC45OTggMTE2LjE1M0M5NTcuMDIgMTE1LjMxIDk1NS4yNDggMTE0LjA0OCA5NTMuODA0IDExMi40NTRDOTUwLjg5MiAxMDkuNDAyIDk0OS4yODcgMTA1LjMzNSA5NDkuMzIyIDEwMS4xMTZDOTQ5LjMwMyA5OC41OTU4IDk0OS44MjkgOTYuMTAxIDk1MC44NjIgOTMuODAyN0M5NTEuODk3IDkxLjUwNDggOTUzLjQxOCA4OS40NTc3IDk1NS4zMTYgODcuODAyMUM5NTguODQyIDg0LjMwNTggOTYzLjU5IDgyLjMyMDQgOTY4LjU1NCA4Mi4yNjYxQzk3MC43MDQgODIuMjAxOSA5NzIuODQxIDgyLjYwNDcgOTc0LjgyMiA4My40NDYzQzk3Ni44IDg0LjI4ODIgOTc4LjU3MiA4NS41NDg4IDk4MC4wMTkgODcuMTQxOUM5ODIuOTIzIDkwLjE5NzEgOTg0LjUzMSA5NC4yNjIyIDk4NC40OTggOTguNDc5NUM5ODQuNTE3IDEwMS4wMDEgOTgzLjk5MSAxMDMuNDk2IDk4Mi45NTYgMTA1Ljc5NEM5ODEuOTIgMTA4LjA5MyA5ODAuNDAyIDExMC4xNDEgOTc4LjUwNCAxMTEuNzk3Qzk3NC45NzUgMTE1LjI5MyA5NzAuMjI4IDExNy4yNzkgOTY1LjI2NCAxMTcuMzMzWiIvPiYjeGE7PHBhdGggZmlsbD0id2hpdGUiIGQ9Ik0xMDI5LjYyIDIwOS44ODhDMTAyOS4wMiAyMTIuMjYgMTAyOC45NyAyMTQuNzM2IDEwMjkuNDYgMjE3LjEzMkMxMDI5Ljk1IDIxOS41MjkgMTAzMC45NyAyMjEuNzg0IDEwMzIuNDUgMjIzLjczMUMxMDM0LjUxIDIyNS45NTIgMTAzNy4xMSAyMjcuNTk4IDEwMzkuOTkgMjI4LjUwNkMxMDQyLjg4IDIyOS40MTMgMTA0NS45NSAyMjkuNTUgMTA0OC45MSAyMjguOTA0QzEwNDkuMjUgMjI4LjgzNiAxMDQ5LjYxIDIyOC44NTMgMTA0OS45NSAyMjguOTU0QzEwNTAuMjggMjI5LjA1NSAxMDUwLjU5IDIyOS4yMzcgMTA1MC44NCAyMjkuNDg0QzEwNTEuMDkgMjI5LjczMSAxMDUxLjI3IDIzMC4wMzUgMTA1MS4zOCAyMzAuMzdDMTA1MS40OCAyMzAuNzA0IDEwNTEuNTEgMjMxLjA2IDEwNTEuNDQgMjMxLjQwNkwxMDQ3LjM4IDI1My45MjVDMTA0Ny4zMSAyNTQuMzI4IDEwNDcuMTIgMjU0LjcwMyAxMDQ2Ljg1IDI1NS4wMDZDMTA0Ni41NyAyNTUuMzA4IDEwNDYuMjEgMjU1LjUyNCAxMDQ1LjgyIDI1NS42MjlDMTA0Mi42MyAyNTYuNDI3IDEwMzkuMzcgMjU2LjgzIDEwMzYuMDkgMjU2LjgzQzEwMzAuNDUgMjU2Ljk1OSAxMDI0Ljg1IDI1NS45NSAxMDE5LjYyIDI1My44NjJDMTAxNS4xNSAyNTIuMDIgMTAxMS4xMyAyNDkuMjM1IDEwMDcuODMgMjQ1LjY5OEMxMDA0LjU0IDI0Mi4xNiAxMDAyLjA0IDIzNy45NTQgMTAwMC41MiAyMzMuMzY0Qzk5OC45IDIyOC40NzUgOTk4LjEgMjIzLjM1MyA5OTguMTQ3IDIxOC4yMDRDOTk4LjE0NCAyMTQuOTggOTk4LjQwNyAyMTEuNzYxIDk5OC45MzggMjA4LjU4TDEwMDcuMDYgMTYyLjE3QzEwMDcuMTIgMTYxLjg2MSAxMDA3LjEgMTYxLjU0NSAxMDA3LjAyIDE2MS4yNDNDMTAwNi45NCAxNjAuOTQgMTAwNi44IDE2MC42NTkgMTAwNi42IDE2MC40MThDMTAwNi40IDE2MC4xNzggMTAwNi4xNSAxNTkuOTgzIDEwMDUuODcgMTU5Ljg0OUMxMDA1LjU4IDE1OS43MTQgMTAwNS4yNyAxNTkuNjQzIDEwMDQuOTYgMTU5LjYzOUMxMDAyLjk4IDE1OS42MTggMTAwMS4wMyAxNTkuMTY3IDk5OS4yNDUgMTU4LjMxOEM5OTcuNDU2IDE1Ny40NjkgOTk1Ljg3NSAxNTYuMjQyIDk5NC42MDcgMTU0LjcyMUM5OTMuMzM5IDE1My4yMDEgOTkyLjQxMyAxNTEuNDIzIDk5MS44OTggMTQ5LjUxMUM5OTEuMzgzIDE0Ny41OTkgOTkxLjI5IDE0NS41OTcgOTkxLjYyMSAxNDMuNjQ1TDk5My40NCAxMzMuMDQyQzk5My41MjggMTMyLjU0MSA5OTMuNzg4IDEzMi4wODYgOTk0LjE3NyAxMzEuNzU4Qzk5NC41NjYgMTMxLjQzMSA5OTUuMDU5IDEzMS4yNTEgOTk1LjU2OSAxMzEuMjVIMTAwNy40NEMxMDEwIDEzMS4yNTEgMTAxMi40OCAxMzAuMzQxIDEwMTQuNDIgMTI4LjY4MUMxMDE2LjM3IDEyNy4wMjIgMTAxNy42NiAxMjQuNzIzIDEwMTguMDcgMTIyLjE5NkMxMDE4LjIxIDEyMS4zMjkgMTAxOC4zOCAxMjAuMzM4IDEwMTguNTYgMTE5LjE5NkwxMDIxLjI4IDEwMy4yNDVDMTAyMS4zNiAxMDIuNzQzIDEwMjEuNjIgMTAyLjI4OCAxMDIyLjAxIDEwMS45NTlDMTAyMi40IDEwMS42MzEgMTAyMi44OSAxMDEuNDUgMTAyMy40IDEwMS40NUgxMDMwLjYzQzEwMzIuODMgMTAxLjQ1IDEwMzQuOTkgMTAxLjkyOCAxMDM2Ljk4IDEwMi44NTFDMTAzOC45NyAxMDMuNzc0IDEwNDAuNzMgMTA1LjExOSAxMDQyLjE1IDEwNi43OTRDMTA0My41NyAxMDguNDY5IDEwNDQuNiAxMTAuNDMyIDEwNDUuMTggMTEyLjU0N0MxMDQ1Ljc2IDExNC42NjMgMTA0NS44OCAxMTYuODggMTA0NS41MSAxMTkuMDQzTDEwNDMuODggMTI4Ljc4M0MxMDQzLjgzIDEyOS4wOTIgMTA0My44NSAxMjkuNDA5IDEwNDMuOTMgMTI5LjcxMUMxMDQ0LjAxIDEzMC4wMTMgMTA0NC4xNyAxMzAuMjkzIDEwNDQuMzcgMTMwLjUzMUMxMDQ0LjU3IDEzMC43NyAxMDQ0LjgzIDEzMC45NiAxMDQ1LjExIDEzMS4wOUMxMDQ1LjQgMTMxLjIyMSAxMDQ1LjcxIDEzMS4yODcgMTA0Ni4wMiAxMzEuMjg0TDEwNjcuNzcgMTMxLjEyMkMxMDY4LjA4IDEzMS4xMTkgMTA2OC4zOSAxMzEuMTg1IDEwNjguNjggMTMxLjMxNUMxMDY4Ljk2IDEzMS40NDUgMTA2OS4yMiAxMzEuNjM2IDEwNjkuNDIgMTMxLjg3NEMxMDY5LjYyIDEzMi4xMTIgMTA2OS43NyAxMzIuMzkyIDEwNjkuODYgMTMyLjY5NUMxMDY5Ljk0IDEzMi45OTcgMTA2OS45NiAxMzMuMzE0IDEwNjkuOTEgMTMzLjYyNEwxMDY3LjcgMTQ3LjAzOEwxMDY1Ljk4IDE1Ny44MjZDMTA2NS45IDE1OC4zMzIgMTA2NS42NCAxNTguNzkyIDEwNjUuMjUgMTU5LjEyNUMxMDY0Ljg2IDE1OS40NTggMTA2NC4zNiAxNTkuNjQgMTA2My44NSAxNTkuNjM5SDEwNDAuMzhDMTAzOS44OCAxNTkuNjQgMTAzOS4zOSAxNTkuODE5IDEwMzkgMTYwLjE0NEMxMDM4LjYxIDE2MC40NjkgMTAzOC4zNSAxNjAuOTIxIDEwMzguMjYgMTYxLjQxOUwxMDI5LjYyIDIwOS44ODhaIi8+JiN4YTs8cGF0aCBmaWxsPSJ3aGl0ZSIgZD0iTTEyMjUuMjggMjUzLjI4MkMxMjI1LjE5IDI1My43ODEgMTIyNC45MyAyNTQuMjMzIDEyMjQuNTQgMjU0LjU1OUMxMjI0LjE1IDI1NC44ODUgMTIyMy42NiAyNTUuMDY0IDEyMjMuMTYgMjU1LjA2NUgxMjExLjk4QzEyMDkuNzcgMjU1LjA2NSAxMjA3LjYgMjU0LjU4MyAxMjA1LjYgMjUzLjY1MUMxMjAzLjYxIDI1Mi43MiAxMjAxLjg0IDI1MS4zNjMgMTIwMC40MiAyNDkuNjc1QzExOTkuMDEgMjQ3Ljk4NyAxMTk3Ljk4IDI0Ni4wMDkgMTE5Ny40MSAyNDMuODhDMTE5Ni44NCAyNDEuNzUyIDExOTYuNzQgMjM5LjUyNCAxMTk3LjEyIDIzNy4zNTNMMTIyMy42IDg2Ljc4MDZDMTIyMy42OSA4Ni4yODExIDEyMjMuOTUgODUuODI4NSAxMjI0LjMzIDg1LjUwMjhDMTIyNC43MiA4NS4xNzcxIDEyMjUuMjEgODQuOTk5NSAxMjI1LjcyIDg1LjAwMTFIMTIzNi45MkMxMjM5LjEyIDg1LjAwMDggMTI0MS4zIDg1LjQ4MjggMTI0My4yOSA4Ni40MTI3QzEyNDUuMjggODcuMzQyNyAxMjQ3LjA1IDg4LjY5ODMgMTI0OC40NiA5MC4zODQxQzEyNDkuODggOTIuMDcwMiAxMjUwLjkxIDk0LjA0NTcgMTI1MS40OCA5Ni4xNzIzQzEyNTIuMDUgOTguMjk4OSAxMjUyLjE1IDEwMC41MjUgMTI1MS43NyAxMDIuNjk0TDEyMjUuMjggMjUzLjI4MloiLz4mI3hhOzwvc3ZnPg==;" vertex="1" parent="1">
          <mxGeometry x="-800" y="5.8100000000000005" width="108.08" height="28.37" as="geometry" />
        </mxCell>
        <mxCell id="gfbkr7vHhkdRTyJHRs2W-21" value="" style="fillColor=light-dark(#FFFFFF,#FFFFFF);strokeColor=none;dashed=0;outlineConnect=0;html=1;labelPosition=center;verticalLabelPosition=bottom;verticalAlign=top;part=1;movable=0;resizable=0;rotatable=0;shape=mxgraph.ibm_cloud.microservices--1" vertex="1" parent="1">
          <mxGeometry x="-1108" y="632" width="24" height="24" as="geometry">
            <mxPoint x="12" y="12" as="offset" />
          </mxGeometry>
        </mxCell>
        <mxCell id="gfbkr7vHhkdRTyJHRs2W-55" style="edgeStyle=orthogonalEdgeStyle;rounded=0;orthogonalLoop=1;jettySize=auto;html=1;entryX=-0.04;entryY=0.525;entryDx=0;entryDy=0;entryPerimeter=0;dashed=1;" edge="1" parent="1" source="gfbkr7vHhkdRTyJHRs2W-12" target="gfbkr7vHhkdRTyJHRs2W-54">
          <mxGeometry relative="1" as="geometry">
            <Array as="points">
              <mxPoint x="-660" y="340" />
            </Array>
          </mxGeometry>
        </mxCell>
        <mxCell id="gfbkr7vHhkdRTyJHRs2W-61" value="" style="group" vertex="1" connectable="0" parent="1">
          <mxGeometry x="-680" y="240" width="210" height="40" as="geometry" />
        </mxCell>
        <mxCell id="gfbkr7vHhkdRTyJHRs2W-12" value="" style="shape=image;verticalLabelPosition=bottom;labelBackgroundColor=default;verticalAlign=top;aspect=fixed;imageAspect=0;image=data:image/svg+xml,PHN2ZyB4bWxucz0iaHR0cDovL3d3dy53My5vcmcvMjAwMC9zdmciIGZpbGw9Im5vbmUiIHZpZXdCb3g9IjAgMCA0MCA0MCIgaGVpZ2h0PSI0MCIgd2lkdGg9IjQwIj4mI3hhOzxnIGNsaXAtcGF0aD0idXJsKCNjbGlwMF8yNDg1XzM4MjcxKSI+JiN4YTs8cGF0aCBmaWxsPSIjRTU4NzFBIiBkPSJNNDAgMjBDNDAgMzEuMDQ1NyAzMS4wNDU3IDQwIDIwIDQwQzguOTU0MzEgNDAgMCAzMS4wNDU3IDAgMjBDMCA4Ljk1NDMxIDguOTU0MzEgMCAyMCAwQzMxLjA0NTcgMCA0MCA4Ljk1NDMxIDQwIDIwWiIvPiYjeGE7PHBhdGggZmlsbD0iI0U1ODcxQSIgZD0iTTM4Ljg4OTEgMjBDMzguODg5MSAzMC40MzIxIDMwLjQzMjMgMzguODg4OSAyMC4wMDAyIDM4Ljg4ODlDOS41NjgxOCAzOC44ODg5IDEuMTExMzMgMzAuNDMyMSAxLjExMTMzIDIwQzEuMTExMzMgOS41NjgwMyA5LjU2ODE4IDEuMTExMTUgMjAuMDAwMiAxLjExMTE1QzMwLjQzMjMgMS4xMTExNSAzOC44ODkxIDkuNTY4MDMgMzguODg5MSAyMFoiLz4mI3hhOzxwYXRoIGZpbGw9IndoaXRlIiBkPSJNMjAgMzkuMDM3NEMzMC41MTQxIDM5LjAzNzQgMzkuMDM3NCAzMC41MTQxIDM5LjAzNzQgMjBDMzkuMDM3NCA5LjQ4NTg3IDMwLjUxNDEgMC45NjI1NjYgMjAgMC45NjI1NjZDOS40ODU5NCAwLjk2MjU2NiAwLjk2MjU2OCA5LjQ4NTg3IDAuOTYyNTY4IDIwQzAuOTYyNTY4IDMwLjUxNDEgOS40ODU5NCAzOS4wMzc0IDIwIDM5LjAzNzRaTTIwIDQwQzMxLjA0NTcgNDAgNDAgMzEuMDQ1NyA0MCAyMEM0MCA4Ljk1NDM0IDMxLjA0NTcgMCAyMCAwQzguOTU0MzEgMCAwIDguOTU0MzQgMCAyMEMwIDMxLjA0NTcgOC45NTQzMSA0MCAyMCA0MFoiIGNsaXAtcnVsZT0iZXZlbm9kZCIgZmlsbC1ydWxlPSJldmVub2RkIi8+JiN4YTs8cGF0aCBmaWxsPSJ3aGl0ZSIgZD0iTTIwLjM0NjMgMy4yMzI1NEMyMC41NjU3IDMuMDQxMjkgMjAuODU0OSAyLjk2MjI5IDIxLjEzNTQgMy4wMTY5NkMyMy40OTg2IDMuNDc3NDQgMjcuNDc0MSA0Ljk2MDg4IDMwLjcyMiA3LjkwNTIzQzM0LjAwNjYgMTAuODgyOSAzNi41NjEgMTUuMzc5IDM1Ljg5MzMgMjEuNzM2OUMzNC42NjM4IDMzLjQ0NiAyNi4xODg0IDM3LjIyNTggMjAuOTE5IDM2Ljk4OTdDMjAuNDA1MiAzNi45NjY2IDIwIDM2LjUyMzIgMjAgMzUuOTg0VjQuMDA2NTlDMjAgMy43MDc0MyAyMC4xMjY5IDMuNDIzNzggMjAuMzQ2MyAzLjIzMjU0Wk0yMS45MiA1LjI3MjExVjM0Ljk3MjNDMjYuMzk3OSAzNC43MjM4IDMyLjk1NzQgMzEuMzAxOCAzMy45ODQ5IDIxLjUxNjdDMzQuNTcwNyAxNS45Mzc4IDMyLjM2ODIgMTIuMDU4OSAyOS40NjYzIDkuNDI4MTVDMjcuMDA0NSA3LjE5NjQgMjQuMDUgNS44ODEwNiAyMS45MiA1LjI3MjExWiIgY2xpcC1ydWxlPSJldmVub2RkIiBmaWxsLXJ1bGU9ImV2ZW5vZGQiLz4mI3hhOzxwYXRoIGZpbGw9IndoaXRlIiBkPSJNMTcuMDE1NiAzQzE3LjU1OTIgMyAxOCAzLjQ1MDY3IDE4IDQuMDA2NThWMzUuOTkzNEMxOCAzNi4yOTU0IDE3Ljg2NzQgMzYuNTgxNCAxNy42Mzg3IDM2Ljc3MjZDMTcuNDEwMiAzNi45NjM4IDE3LjEwOTcgMzcuMDM5OSAxNi44MjAyIDM2Ljk4QzE1LjE2NDYgMzYuNjM3MSAxMi45ODYxIDM1Ljc2MDEgMTAuODk2MiAzNC4xOTQyQzcuMTU1MzYgMzEuMzkxMiAzLjcwNDQ3IDI2LjM3OTIgNC4wMjAxIDE4LjM0NTdDNC4wMjc2NiAxNy4yMTI0IDQuNjEzMzUgMTQuNzg4MyA2Ljc5MjkyIDEzLjAxMTRDNy4yMTgwMSAxMi42NjQ5IDcuODM3MzYgMTIuNzM2MyA4LjE3NjI2IDEzLjE3MUM4LjUxNTE2IDEzLjYwNTYgOC40NDUyOCAxNC4yMzkgOC4wMjAxOSAxNC41ODU1QzYuMzcwNTggMTUuOTMwMyA1Ljk4ODc1IDE3Ljc1MDcgNS45ODg3NyAxOC4zNjhDNS45ODg3NyAxOC4zODE3IDUuOTg4NDkgMTguMzk1NCA1Ljk4Nzk1IDE4LjQwOTFDNS43NDI5MiAyNC41MzUgNy44Nzc4MiAyOC42MTY0IDEwLjQ5MzcgMzEuMjE3MlY4LjU3NjE2QzEwLjQ5MzcgOC4wMjAyMyAxMC45MzQ0IDcuNTY5NTUgMTEuNDc4IDcuNTY5NTVDMTIuMDIxNyA3LjU2OTU1IDEyLjQ2MjQgOC4wMjAyMyAxMi40NjI0IDguNTc2MTZWMzIuODYxN0MxMy43MDU0IDMzLjczIDE0Ljk1MzUgMzQuMzIxMiAxNi4wMzEzIDM0LjY4MzNWNC4wMDY1OEMxNi4wMzEzIDMuNDUwNjcgMTYuNDcyIDMgMTcuMDE1NiAzWiIgY2xpcC1ydWxlPSJldmVub2RkIiBmaWxsLXJ1bGU9ImV2ZW5vZGQiLz4mI3hhOzwvZz4mI3hhOzxkZWZzPiYjeGE7PGNsaXBQYXRoIGlkPSJjbGlwMF8yNDg1XzM4MjcxIj4mI3hhOzxyZWN0IGZpbGw9IndoaXRlIiBoZWlnaHQ9IjQwIiB3aWR0aD0iNDAiLz4mI3hhOzwvY2xpcFBhdGg+JiN4YTs8L2RlZnM+JiN4YTs8L3N2Zz4=;dashed=1;" vertex="1" parent="gfbkr7vHhkdRTyJHRs2W-61">
          <mxGeometry width="40" height="40" as="geometry" />
        </mxCell>
        <mxCell id="gfbkr7vHhkdRTyJHRs2W-9" value="&lt;h4&gt;POS Project&lt;/h4&gt;" style="text;html=1;align=left;verticalAlign=middle;whiteSpace=wrap;rounded=0;" vertex="1" parent="gfbkr7vHhkdRTyJHRs2W-61">
          <mxGeometry x="50" y="5" width="160" height="30" as="geometry" />
        </mxCell>
        <mxCell id="gfbkr7vHhkdRTyJHRs2W-62" value="" style="group" vertex="1" connectable="0" parent="1">
          <mxGeometry x="-560" y="319" width="210" height="41" as="geometry" />
        </mxCell>
        <mxCell id="gfbkr7vHhkdRTyJHRs2W-54" value="" style="sketch=0;html=1;aspect=fixed;strokeColor=none;shadow=0;fillColor=#3B8DF1;verticalAlign=top;labelPosition=center;verticalLabelPosition=bottom;shape=mxgraph.gcp2.repository_primary" vertex="1" parent="gfbkr7vHhkdRTyJHRs2W-62">
          <mxGeometry width="41" height="41" as="geometry" />
        </mxCell>
        <mxCell id="gfbkr7vHhkdRTyJHRs2W-29" value="&lt;h4&gt;Auth Service&lt;/h4&gt;" style="text;html=1;align=left;verticalAlign=middle;whiteSpace=wrap;rounded=0;" vertex="1" parent="gfbkr7vHhkdRTyJHRs2W-62">
          <mxGeometry x="50" y="5.5" width="160" height="30" as="geometry" />
        </mxCell>
        <mxCell id="gfbkr7vHhkdRTyJHRs2W-75" value="" style="group" vertex="1" connectable="0" parent="1">
          <mxGeometry x="-660" y="340" width="310" height="80" as="geometry" />
        </mxCell>
        <mxCell id="gfbkr7vHhkdRTyJHRs2W-71" style="edgeStyle=orthogonalEdgeStyle;rounded=0;orthogonalLoop=1;jettySize=auto;html=1;entryX=-0.04;entryY=0.525;entryDx=0;entryDy=0;entryPerimeter=0;dashed=1;" edge="1" parent="gfbkr7vHhkdRTyJHRs2W-75" target="gfbkr7vHhkdRTyJHRs2W-73">
          <mxGeometry relative="1" as="geometry">
            <mxPoint as="sourcePoint" />
            <Array as="points">
              <mxPoint y="60" />
            </Array>
          </mxGeometry>
        </mxCell>
        <mxCell id="gfbkr7vHhkdRTyJHRs2W-72" value="" style="group" vertex="1" connectable="0" parent="gfbkr7vHhkdRTyJHRs2W-75">
          <mxGeometry x="100" y="39" width="210" height="41" as="geometry" />
        </mxCell>
        <mxCell id="gfbkr7vHhkdRTyJHRs2W-73" value="" style="sketch=0;html=1;aspect=fixed;strokeColor=none;shadow=0;fillColor=#3B8DF1;verticalAlign=top;labelPosition=center;verticalLabelPosition=bottom;shape=mxgraph.gcp2.repository_primary" vertex="1" parent="gfbkr7vHhkdRTyJHRs2W-72">
          <mxGeometry width="41" height="41" as="geometry" />
        </mxCell>
        <mxCell id="gfbkr7vHhkdRTyJHRs2W-74" value="&lt;h4&gt;Core Service&lt;/h4&gt;" style="text;html=1;align=left;verticalAlign=middle;whiteSpace=wrap;rounded=0;" vertex="1" parent="gfbkr7vHhkdRTyJHRs2W-72">
          <mxGeometry x="50" y="5.5" width="160" height="30" as="geometry" />
        </mxCell>
        <mxCell id="gfbkr7vHhkdRTyJHRs2W-76" value="" style="group" vertex="1" connectable="0" parent="1">
          <mxGeometry x="-660" y="400" width="310" height="80" as="geometry" />
        </mxCell>
        <mxCell id="gfbkr7vHhkdRTyJHRs2W-77" style="edgeStyle=orthogonalEdgeStyle;rounded=0;orthogonalLoop=1;jettySize=auto;html=1;entryX=-0.04;entryY=0.525;entryDx=0;entryDy=0;entryPerimeter=0;dashed=1;" edge="1" parent="gfbkr7vHhkdRTyJHRs2W-76" target="gfbkr7vHhkdRTyJHRs2W-79">
          <mxGeometry relative="1" as="geometry">
            <mxPoint as="sourcePoint" />
            <Array as="points">
              <mxPoint y="60" />
            </Array>
          </mxGeometry>
        </mxCell>
        <mxCell id="gfbkr7vHhkdRTyJHRs2W-78" value="" style="group" vertex="1" connectable="0" parent="gfbkr7vHhkdRTyJHRs2W-76">
          <mxGeometry x="100" y="39" width="210" height="41" as="geometry" />
        </mxCell>
        <mxCell id="gfbkr7vHhkdRTyJHRs2W-79" value="" style="sketch=0;html=1;aspect=fixed;strokeColor=none;shadow=0;fillColor=#3B8DF1;verticalAlign=top;labelPosition=center;verticalLabelPosition=bottom;shape=mxgraph.gcp2.repository_primary" vertex="1" parent="gfbkr7vHhkdRTyJHRs2W-78">
          <mxGeometry width="41" height="41" as="geometry" />
        </mxCell>
        <mxCell id="gfbkr7vHhkdRTyJHRs2W-80" value="&lt;h4&gt;Auth Service&lt;/h4&gt;" style="text;html=1;align=left;verticalAlign=middle;whiteSpace=wrap;rounded=0;" vertex="1" parent="gfbkr7vHhkdRTyJHRs2W-78">
          <mxGeometry x="50" y="5.5" width="160" height="30" as="geometry" />
        </mxCell>
        <mxCell id="gfbkr7vHhkdRTyJHRs2W-81" value="" style="group" vertex="1" connectable="0" parent="1">
          <mxGeometry x="-660" y="460" width="310" height="80" as="geometry" />
        </mxCell>
        <mxCell id="gfbkr7vHhkdRTyJHRs2W-82" style="edgeStyle=orthogonalEdgeStyle;rounded=0;orthogonalLoop=1;jettySize=auto;html=1;entryX=-0.04;entryY=0.525;entryDx=0;entryDy=0;entryPerimeter=0;dashed=1;" edge="1" parent="gfbkr7vHhkdRTyJHRs2W-81" target="gfbkr7vHhkdRTyJHRs2W-84">
          <mxGeometry relative="1" as="geometry">
            <mxPoint as="sourcePoint" />
            <Array as="points">
              <mxPoint y="60" />
            </Array>
          </mxGeometry>
        </mxCell>
        <mxCell id="gfbkr7vHhkdRTyJHRs2W-83" value="" style="group" vertex="1" connectable="0" parent="gfbkr7vHhkdRTyJHRs2W-81">
          <mxGeometry x="100" y="39" width="210" height="41" as="geometry" />
        </mxCell>
        <mxCell id="gfbkr7vHhkdRTyJHRs2W-84" value="" style="sketch=0;html=1;aspect=fixed;strokeColor=none;shadow=0;fillColor=#3B8DF1;verticalAlign=top;labelPosition=center;verticalLabelPosition=bottom;shape=mxgraph.gcp2.repository_primary" vertex="1" parent="gfbkr7vHhkdRTyJHRs2W-83">
          <mxGeometry width="41" height="41" as="geometry" />
        </mxCell>
        <mxCell id="gfbkr7vHhkdRTyJHRs2W-85" value="&lt;h4&gt;Auth Service&lt;/h4&gt;" style="text;html=1;align=left;verticalAlign=middle;whiteSpace=wrap;rounded=0;" vertex="1" parent="gfbkr7vHhkdRTyJHRs2W-83">
          <mxGeometry x="50" y="5.5" width="160" height="30" as="geometry" />
        </mxCell>
        <mxCell id="gfbkr7vHhkdRTyJHRs2W-86" value="" style="group" vertex="1" connectable="0" parent="1">
          <mxGeometry x="-660" y="520" width="310" height="80" as="geometry" />
        </mxCell>
        <mxCell id="gfbkr7vHhkdRTyJHRs2W-87" style="edgeStyle=orthogonalEdgeStyle;rounded=0;orthogonalLoop=1;jettySize=auto;html=1;entryX=-0.04;entryY=0.525;entryDx=0;entryDy=0;entryPerimeter=0;dashed=1;" edge="1" parent="gfbkr7vHhkdRTyJHRs2W-86" target="gfbkr7vHhkdRTyJHRs2W-89">
          <mxGeometry relative="1" as="geometry">
            <mxPoint as="sourcePoint" />
            <Array as="points">
              <mxPoint y="60" />
            </Array>
          </mxGeometry>
        </mxCell>
        <mxCell id="gfbkr7vHhkdRTyJHRs2W-88" value="" style="group" vertex="1" connectable="0" parent="gfbkr7vHhkdRTyJHRs2W-86">
          <mxGeometry x="100" y="39" width="210" height="41" as="geometry" />
        </mxCell>
        <mxCell id="gfbkr7vHhkdRTyJHRs2W-89" value="" style="sketch=0;html=1;aspect=fixed;strokeColor=none;shadow=0;fillColor=#3B8DF1;verticalAlign=top;labelPosition=center;verticalLabelPosition=bottom;shape=mxgraph.gcp2.repository_primary" vertex="1" parent="gfbkr7vHhkdRTyJHRs2W-88">
          <mxGeometry width="41" height="41" as="geometry" />
        </mxCell>
        <mxCell id="gfbkr7vHhkdRTyJHRs2W-90" value="&lt;h4&gt;Auth Service&lt;/h4&gt;" style="text;html=1;align=left;verticalAlign=middle;whiteSpace=wrap;rounded=0;" vertex="1" parent="gfbkr7vHhkdRTyJHRs2W-88">
          <mxGeometry x="50" y="5.5" width="160" height="30" as="geometry" />
        </mxCell>
        <mxCell id="gfbkr7vHhkdRTyJHRs2W-91" value="Service Repositories" style="text;html=1;align=left;verticalAlign=middle;whiteSpace=wrap;rounded=0;" vertex="1" parent="1">
          <mxGeometry x="-780" y="324.5" width="130" height="30" as="geometry" />
        </mxCell>
      </root>
    </mxGraphModel>
  </diagram>
  <diagram name="Sharing JWT Tokens" id="URNHPwklBo5mgYPYL-IM">
    <mxGraphModel dx="2704" dy="670" grid="1" gridSize="10" guides="1" tooltips="1" connect="1" arrows="1" fold="1" page="1" pageScale="1" pageWidth="827" pageHeight="1169" math="0" shadow="0">
      <root>
        <mxCell id="k5EVcIYilxEmQTRuFI4G-0" />
        <mxCell id="k5EVcIYilxEmQTRuFI4G-1" parent="k5EVcIYilxEmQTRuFI4G-0" />
        <mxCell id="k5EVcIYilxEmQTRuFI4G-2" value="" style="rounded=0;whiteSpace=wrap;html=1;fillColor=light-dark(#008a00, #1f1f3a);fontColor=#ffffff;strokeColor=none;" vertex="1" parent="k5EVcIYilxEmQTRuFI4G-1">
          <mxGeometry x="-825" width="825" height="40" as="geometry" />
        </mxCell>
        <mxCell id="k5EVcIYilxEmQTRuFI4G-3" value="&lt;h2&gt;&lt;p data-pm-slice=&quot;1 1 []&quot;&gt;Sharing JWT Tokens&lt;/p&gt;&lt;/h2&gt;" style="text;html=1;align=left;verticalAlign=middle;whiteSpace=wrap;rounded=0;" vertex="1" parent="k5EVcIYilxEmQTRuFI4G-1">
          <mxGeometry x="-800" y="80" width="480" height="40" as="geometry" />
        </mxCell>
        <mxCell id="k5EVcIYilxEmQTRuFI4G-8" value="" style="shape=image;verticalLabelPosition=bottom;labelBackgroundColor=default;verticalAlign=top;aspect=fixed;imageAspect=0;image=data:image/svg+xml,PHN2ZyB4bWxucz0iaHR0cDovL3d3dy53My5vcmcvMjAwMC9zdmciIGZpbGw9Im5vbmUiIHZpZXdCb3g9IjAgMCAxMjUyIDMyOSIgaGVpZ2h0PSIzMjkiIHdpZHRoPSIxMjUyIj4mI3hhOzxwYXRoIGZpbGw9IndoaXRlIiBkPSJNNjI3LjI5NCAyNTYuNDg3QzYyMC4wMjkgMjU2LjU4NSA2MTIuODMyIDI1NS4wNzcgNjA2LjIxMyAyNTIuMDcxQzYwMC4wMTYgMjQ5LjIyIDU5NC40OTMgMjQ1LjA4NyA1OTAuMDA5IDIzOS45NDNDNTg1LjQzOSAyMzQuNjQzIDU4MS44ODkgMjI4LjU0MiA1NzkuNTM2IDIyMS45NDlDNTc3LjAyMSAyMTUuMDIgNTc1Ljc0OSAyMDcuNzAyIDU3NS43OCAyMDAuMzNDNTc1LjY3MyAxOTAuNTg5IDU3Ny42MDEgMTgwLjkzNCA1ODEuNDQ1IDE3MS45ODVDNTg0Ljk4NyAxNjMuNzI4IDU4OS45NiAxNTYuMTYxIDU5Ni4xMzQgMTQ5LjYzOEM2MDIgMTQzLjQ2IDYwOC45OTkgMTM4LjQ3MSA2MTYuNzUgMTM0Ljk0MUM2MjQuMTgyIDEzMS40ODkgNjMyLjI3NSAxMjkuNjkgNjQwLjQ2NiAxMjkuNjY3QzY0NS42MTEgMTI5LjU2NiA2NTAuNzM2IDEzMC4zNDYgNjU1LjYxNSAxMzEuOTc1QzY1OS40MTUgMTMzLjI2NiA2NjMuMDQyIDEzNS4wMTUgNjY2LjQxOCAxMzcuMTgzQzY2OS41ODcgMTM5LjMwMyA2NzIuNDY2IDE0MS44MjkgNjc0Ljk4MSAxNDQuNjk2TDY4NC42NzkgODkuNTI1MUM2ODQuNzcgODkuMDI1OSA2ODUuMDMgODguNTczOCA2ODUuNDE5IDg4LjI0ODFDNjg1LjgwOCA4Ny45MjIyIDY4Ni4yOTYgODcuNzQ0IDY4Ni44MDMgODcuNzQzNEg2OTcuNjRDNjk5LjkgODcuNzQzNCA3MDIuMTMzIDg4LjIzODUgNzA0LjE4MiA4OS4xOTQ1QzcwNi4yMzEgOTAuMTUwNSA3MDguMDQ1IDkxLjU0MzIgNzA5LjQ5NyA5My4yNzU4QzcxMC45NTIgOTUuMDA4NSA3MTIuMDA2IDk3LjAzODkgNzEyLjU5MyA5OS4yMjM2QzcxMy4xNzYgMTAxLjQwOCA3MTMuMjc4IDEwMy42OTUgNzEyLjg4MyAxMDUuOTIyTDY4Ni44OSAyNTMuMzg5QzY4Ni44MDMgMjUzLjg4OCA2ODYuNTQyIDI1NC4zNCA2ODYuMTUzIDI1NC42NjVDNjg1Ljc2NyAyNTQuOTkxIDY4NS4yNzcgMjU1LjE2OCA2ODQuNzcgMjU1LjE2OEg2NzYuMjQ3QzY3Mi42MjMgMjU1LjE2OSA2NjkuMDk3IDI1My45ODUgNjY2LjIwNyAyNTEuNzk2QzY2My4zMTYgMjQ5LjYwOCA2NjEuMjE4IDI0Ni41MzQgNjYwLjIzMiAyNDMuMDQzQzY1Ny4zMTEgMjQ1LjYwNiA2NTQuMTMxIDI0Ny44NiA2NTAuNzQ1IDI0OS43NjhDNjQ3LjMyOCAyNTEuNSA2NDMuODExIDI1My4wMTggNjQwLjIwNiAyNTQuMzE2QzYzNi4wNjYgMjU1Ljc5OCA2MzEuNjk0IDI1Ni41MzQgNjI3LjI5NyAyNTYuNDlMNjI3LjI5NCAyNTYuNDg3Wk02MzUuMDY5IDIyNy4zNUM2MzkuNTM0IDIyNy4zNTMgNjQzLjk1MSAyMjYuNDM0IDY0OC4wNDMgMjI0LjY1QzY1Mi4xODYgMjIyLjg3IDY1NS45MTEgMjIwLjI0NSA2NTguOTggMjE2Ljk0MUM2NjIuMTk5IDIxMy40MzcgNjY0Ljc0NCAyMDkuMzY5IDY2Ni40ODYgMjA0Ljk0MUM2NjguNDUzIDE5OS44NTggNjY5LjQxNSAxOTQuNDQgNjY5LjMxOSAxODguOTlDNjY5LjUwMiAxODUuMTIyIDY2OC45MDggMTgxLjI1OSA2NjcuNTcxIDE3Ny42MjVDNjY2LjIzNyAxNzMuOTkxIDY2NC4xODggMTcwLjY2MSA2NjEuNTQ3IDE2Ny44MzJDNjU4LjgxOCAxNjUuMTMzIDY1NS41NTggMTYzLjAzMiA2NTEuOTcyIDE2MS42NTlDNjQ4LjM4OSAxNjAuMjg2IDY0NC41NjEgMTU5LjY3MiA2NDAuNzI2IDE1OS44NTZDNjM2LjI4MyAxNTkuODQ3IDYzMS44ODYgMTYwLjc2OCA2MjcuODE1IDE2Mi41NTdDNjIzLjY4NiAxNjQuMzYgNjE5Ljk2NiAxNjYuOTg0IDYxNi44ODEgMTcwLjI2OUM2MTMuNjI0IDE3My43NTYgNjExLjA1NCAxNzcuODI2IDYwOS4zMDMgMTgyLjI2NkM2MDcuMzM5IDE4Ny4zNSA2MDYuMzc4IDE5Mi43NjYgNjA2LjQ3MyAxOTguMjE2QzYwNi4yOTUgMjAyLjA4OSA2MDYuODk1IDIwNS45NTkgNjA4LjI0MyAyMDkuNTk1QzYwOS41ODggMjEzLjIzIDYxMS42NTQgMjE2LjU1NyA2MTQuMzExIDIxOS4zNzdDNjE3LjAzNyAyMjIuMDYzIDYyMC4yODYgMjI0LjE1OSA2MjMuODU2IDIyNS41MzFDNjI3LjQyNiAyMjYuOTAzIDYzMS4yNDIgMjI3LjUyMiA2MzUuMDYxIDIyNy4zNSIvPiYjeGE7PHBhdGggZmlsbD0iI0FFQkQyNSIgZD0iTTUzNC4xODEgMTMxLjc2OUg1MjUuOTYyQzUyMS4wOTQgMTMxLjc2OCA1MTYuMzAyIDEzMi45ODkgNTEyLjAyNiAxMzUuMzIxQzUwNy43NSAxMzcuNjUyIDUwNC4xMjggMTQxLjAyIDUwMS40OSAxNDUuMTE2QzUwMS40NjIgMTQ1LjE1OSA1MDEuNDI3IDE0NS4xOTYgNTAxLjM4MyAxNDUuMjI0QzUwMS4zNDIgMTQ1LjI1MiA1MDEuMjkyIDE0NS4yNjkgNTAxLjI0MyAxNDUuMjc1QzUwMS4xOTEgMTQ1LjI4MSA1MDEuMTM5IDE0NS4yNzYgNTAxLjA5MiAxNDUuMjU5QzUwMS4wNDMgMTQ1LjI0MiA1MDAuOTk5IDE0NS4yMTUgNTAwLjk2NCAxNDUuMTc5QzQ5OC4wNzkgMTQyLjM4NCA0OTQuODYgMTM5Ljk2MSA0OTEuMzc1IDEzNy45NjNDNDg3LjY5MyAxMzUuNzQ2IDQ4My43NTcgMTMzLjk3NiA0NzkuNjU2IDEzMi42OUM0NzQuNjI2IDEzMS4xMjggNDY5LjM4IDEzMC4zNzIgNDY0LjExMSAxMzAuNDUxQzQ1Ni4xMjYgMTMwLjQ2NSA0NDguMjMgMTMyLjE0NyA0NDAuOTI5IDEzNS4zODZDNDMzLjQ3IDEzOC42MTggNDI2LjY5NyAxNDMuMjQ4IDQyMC45NzQgMTQ5LjAyN0M0MTUuMDczIDE1NC45OCA0MTAuMzU2IDE2Mi4wMDMgNDA3LjA3OSAxNjkuNzIxQzQwMi44ODIgMTgwLjA4MSA0MDAuOTc5IDE5MS4yMjggNDAxLjQ5OSAyMDIuMzk1QzQwMS40NDEgMjA5LjY1MiA0MDIuNzYyIDIxNi44NTMgNDA1LjM4NCAyMjMuNjE5QzQwNy44MjUgMjI5Ljk3NSA0MTEuNTQ4IDIzNS43NjEgNDE2LjMxNyAyNDAuNjE3QzQyMS4wNjggMjQ1LjM5OCA0MjYuNzA2IDI0OS4yMDQgNDMyLjkxMyAyNTEuODIxQzQzOS40MzQgMjU0LjU3NiA0NDYuNDQ5IDI1NS45NjcgNDUzLjUyOCAyNTUuOTA3QzQ1Ny40NzkgMjU1Ljk3NSA0NjEuNDIxIDI1NS41MTQgNDY1LjI1MSAyNTQuNTM2QzQ2OC4xNzQgMjUzLjc1NiA0NzEuMDM0IDI1Mi43NjQgNDczLjgxMiAyNTEuNTY3QzQ3NS42MTcgMjUwLjY2OCA0NzcuMzU3IDI0OS42NDMgNDc5LjAxNyAyNDguNTAyQzQ3OS4wNjQgMjQ4LjQ2MyA0NzkuMTE5IDI0OC40MzkgNDc5LjE3OSAyNDguNDM2QzQ3OS4yMzkgMjQ4LjQzMyA0NzkuMjk3IDI0OC40NSA0NzkuMzQ2IDI0OC40ODNDNDc5LjM5OCAyNDguNTE2IDQ3OS40MzQgMjQ4LjU2NCA0NzkuNDUzIDI0OC42MjFDNDc5LjQ3MiAyNDguNjc3IDQ3OS40NzUgMjQ4LjczOCA0NzkuNDU2IDI0OC43OTVDNDcxLjUzOCAyODcuMzY4IDQ0NC4wODggMzA2LjY5OCA0MTYuMzU4IDMxNi4yOTFDNDE0Ljg2OCAzMTYuODA0IDQxMy42MTYgMzE3Ljg0NSA0MTIuODQxIDMxOS4yMTlDNDEyLjA2OCAzMjAuNTkyIDQxMS44MjQgMzIyLjIwNCA0MTIuMTU2IDMyMy43NDVDNDEyLjQ5IDMyNS4yODkgNDEzLjM3OCAzMjYuNjU0IDQxNC42NDkgMzI3LjU4M0M0MTUuOTIgMzI4LjUxNiA0MTcuNDkgMzI4Ljk0OSA0MTkuMDU5IDMyOC43OThDNDYwLjIxMyAzMjQuNjUzIDUwNi4xNzcgMzA2LjkxOCA1MTYuMDM5IDI1MC41MjhDNTIyLjc5OCAyMTEuOTY4IDUzMy45ODQgMTQ4LjEzNyA1MzYuMzg2IDEzNC40MTNDNTM2LjQ0NCAxMzQuMDg4IDUzNi40MjcgMTMzLjc1NSA1MzYuMzM5IDEzMy40MzZDNTM2LjI1NSAxMzMuMTE3IDUzNi4wOTggMTMyLjgyMSA1MzUuODg3IDEzMi41NjlDNTM1LjY3NCAxMzIuMzE2IDUzNS40MTEgMTMyLjExMyA1MzUuMTA5IDEzMS45NzRDNTM0LjgxMSAxMzEuODM1IDUzNC40ODUgMTMxLjc2MyA1MzQuMTU2IDEzMS43NjRMNTM0LjE4MSAxMzEuNzY5Wk00NzIuNzM1IDIxOS45OThDNDY5LjM2MyAyMjEuNDU1IDQ2NS43MjUgMjIyLjE5NiA0NjIuMDUxIDIyMi4xNzJDNDU4Ljg0NiAyMjIuMzQgNDU1LjY0MSAyMjEuODU1IDQ1Mi42MyAyMjAuNzQ1QzQ0OS42MTkgMjE5LjYzNCA0NDYuODYzIDIxNy45MjIgNDQ0LjUzNSAyMTUuNzEzQzQ0MC4yNDQgMjExLjAyNSA0MzcuODQ3IDIwNC45MTIgNDM3LjgwNiAxOTguNTU3QzQzNy41MDIgMTkyLjc2OSA0MzguNDQ1IDE4Ni45ODMgNDQwLjU2NSAxODEuNTg5QzQ0MS45OTIgMTc4LjE5NCA0NDMuOTk4IDE3NS4wNzIgNDQ2LjQ5MyAxNzIuMzY0QzQ0OC45NTkgMTY5Ljc1MSA0NTEuOTQ1IDE2Ny42ODUgNDU1LjI2IDE2Ni4zQzQ1OC42MzggMTY0Ljg4NiA0NjIuMjY4IDE2NC4xNjggNDY1LjkyOCAxNjQuMTkxQzQ2OS4xMzYgMTY0LjAyMSA0NzIuMzQ0IDE2NC41MDYgNDc1LjM1NyAxNjUuNjE2QzQ3OC4zNzEgMTY2LjcyNSA0ODEuMTI5IDE2OC40MzggNDgzLjQ2MSAxNzAuNjQ3QzQ4NS41ODQgMTcyLjc2NiA0ODcuMjUyIDE3NS4yOTggNDg4LjM2MiAxNzguMDg2QzQ4OS40NzQgMTgwLjg3NSA0OTAgMTgzLjg2MSA0ODkuOTE1IDE4Ni44NjFDNDg5LjgxNyAxOTAuODkzIDQ4OS40NjMgMTk0LjkxNSA0ODguODYgMTk4LjkwMkw0ODguMTEgMjAyLjg4MkM0ODcuOTU0IDIwMy41NyA0ODcuNzUxIDIwNC4yNDYgNDg3LjQ5NiAyMDQuOTAzQzQ4Ni4xMjkgMjA4LjI3MSA0ODQuMTE2IDIxMS4zMzggNDgxLjU3IDIxMy45MzFDNDc5LjA1IDIxNi41MDYgNDc2LjA1IDIxOC41NjYgNDcyLjc0NCAyMTkuOTk1Ii8+JiN4YTs8cGF0aCBmaWxsPSIjQTlDQjM3IiBkPSJNMTkxLjkyMyA4NS40OTc1SDIwMy40ODhDMjA2LjI0OCA4NS40OTcyIDIwOC45NjIgODYuMjAxIDIxMS4zNzQgODcuNTQzQzIxMy43ODcgODguODg0OSAyMTUuODE4IDkwLjgyMDUgMjE3LjI3NSA5My4xNjY3QzIxOC43MzIgOTUuNTEyOSAyMTkuNTY3IDk4LjE5MTkgMjE5LjcwMSAxMDAuOTUxQzIxOS44MzUgMTAzLjcxIDIxOS4yNjUgMTA2LjQ1OCAyMTguMDQzIDEwOC45MzVMMTQ2LjEzNSAyNTQuNjYyQzE0NS45NDcgMjU1LjA0IDE0NS42NTcgMjU1LjM1OCAxNDUuMjk3IDI1NS41ODFDMTQ0LjkzOCAyNTUuODA0IDE0NC41MjQgMjU1LjkyMyAxNDQuMTAyIDI1NS45MjNIMTI5LjM0MkMxMjUuNTkyIDI1NS45MjMgMTIxLjk2OSAyNTQuNTYxIDExOS4xNDcgMjUyLjA5QzExNi4zMjYgMjQ5LjYxOSAxMTQuNDk3IDI0Ni4yMDcgMTE0IDI0Mi40ODhMMTAyLjk1OSAxNjAuNDA0QzEwMi45MTkgMTYwLjEwMyAxMDIuNzg0IDE1OS44MjIgMTAyLjU3MiAxNTkuNjA1QzEwMi4zNjEgMTU5LjM4NyAxMDIuMDg1IDE1OS4yNDMgMTAxLjc4NiAxNTkuMTk1QzEwMS40ODYgMTU5LjE0NyAxMDEuMTc5IDE1OS4xOTcgMTAwLjkxIDE1OS4zMzdDMTAwLjY0MSAxNTkuNDc3IDEwMC40MjQgMTU5LjcwMSAxMDAuMjkyIDE1OS45NzRMNTQuMjQyMiAyNTQuNjM0QzU0LjA1NzMgMjU1LjAxNyA1My43NjY5IDI1NS4zNDEgNTMuNDA2NCAyNTUuNTY2QzUzLjA0NTggMjU1Ljc5MyA1Mi42MjkyIDI1NS45MTEgNTIuMjAzNyAyNTUuOTExSDM3LjM1MjlDMzMuNjI1MiAyNTUuOTEgMzAuMDIzIDI1NC41NjQgMjcuMjA4IDI1Mi4xMThDMjQuMzkzMSAyNDkuNjcyIDIyLjU1MzggMjQ2LjI5MSAyMi4wMjk5IDI0Mi41OThMMC4wMTU4ODk0IDg3LjMwMzNDLTAuMDE2MzA3IDg3LjA3NjYgMC4wMDA1NDExNjMgODYuODQ1OCAwLjA2NTM4MzEgODYuNjI2MkMwLjEzMDIyNSA4Ni40MDYzIDAuMjQxNjA5IDg2LjIwMzIgMC4zOTE3NzQgODYuMDMwNEMwLjU0MTk0IDg1Ljg1NzUgMC43MjY1MTEgODUuNzE5NiAwLjkzNDg2OCA4NS42MjQ3QzEuMTQzMjMgODUuNTI5OCAxLjM2OTQ0IDg1LjQ4IDEuNTk4MzUgODUuNDgwMkgyMC4yMDUzQzI1LjI0ODUgODUuNDgwMiAzMC4xMTk3IDg3LjMxNjggMzMuOTA5OCA5MC42NDYxQzM3LjcgOTMuOTc1NCA0MC4xNTAzIDk4LjU3MDIgNDAuODA0MiAxMDMuNTc1TDUxLjQ4ODEgMTg1LjQ2N0M1MS41MjIxIDE4NS43MzMgNTEuNjQxNiAxODUuOTgxIDUxLjgyNzggMTg2LjE3NEM1Mi4wMTQxIDE4Ni4zNjcgNTIuMjU3NyAxODYuNDk1IDUyLjUyMiAxODYuNTM4QzUyLjc4NjcgMTg2LjU4MSA1My4wNTg3IDE4Ni41MzcgNTMuMjk2NSAxODYuNDE0QzUzLjUzNDMgMTg2LjI5IDUzLjcyNTUgMTg2LjA5MyA1My44NDIyIDE4NS44NTFMMTAxLjk2OCA4Ni43NTU5QzEwMi4xNTUgODYuMzc0IDEwMi40NDYgODYuMDUyMSAxMDIuODA2IDg1LjgyN0MxMDMuMTY3IDg1LjYwMTcgMTAzLjU4NCA4NS40ODA4IDEwNC4wMDkgODUuNDgwMkgxMTguODAyQzEyMS4wNCA4NS40ODAyIDEyMy4yIDg2LjI5NjQgMTI0Ljg4MSA4Ny43NzQ2QzEyNi41NjEgODkuMjUyOSAxMjcuNjQ2IDkxLjI5MjggMTI3LjkzMyA5My41MTM1TDEzOS44MjggMTg1LjQ1OUMxMzkuODYyIDE4NS43MjUgMTM5Ljk4MSAxODUuOTczIDE0MC4xNjggMTg2LjE2NkMxNDAuMzU0IDE4Ni4zNTkgMTQwLjU5NyAxODYuNDg2IDE0MC44NjIgMTg2LjUyOUMxNDEuMTI2IDE4Ni41NzIgMTQxLjM5NyAxODYuNTI5IDE0MS42MzUgMTg2LjQwNkMxNDEuODczIDE4Ni4yODIgMTQyLjA2NSAxODYuMDg1IDE0Mi4xODIgMTg1Ljg0M0wxOTAuNDg4IDg2LjM3OTdDMTkwLjYxOSA4Ni4xMTAyIDE5MC44MjMgODUuODgzIDE5MS4wNzcgODUuNzIzOUMxOTEuMzMxIDg1LjU2NDkgMTkxLjYyNCA4NS40ODAyIDE5MS45MjMgODUuNDgwMiIvPiYjeGE7PHBhdGggZmlsbD0iI0E5Q0IzNyIgZD0iTTIzNC45MTEgMjU1LjkyOEgyMTguODE3QzIxNi41NTcgMjU1LjkyOCAyMTQuMzI1IDI1NS40MzEgMjEyLjI3NyAyNTQuNDc2QzIxMC4yMjkgMjUzLjUyIDIwOC40MTUgMjUyLjEyNiAyMDYuOTYzIDI1MC4zOTRDMjA1LjUxIDI0OC42NjIgMjA0LjQ1NSAyNDYuNjMzIDIwMy44NjkgMjQ0LjQ0OUMyMDMuMjg0IDI0Mi4yNjUgMjAzLjE4NCAyMzkuOTc5IDIwMy41NzcgMjM3Ljc1MkwyMjEuOTYxIDEzMy4zNDlDMjIyLjA1NCAxMzIuODIzIDIyMi4zMjggMTMyLjM0NiAyMjIuNzM3IDEzMi4wMDNDMjIzLjE0NSAxMzEuNjYgMjIzLjY2MSAxMzEuNDczIDIyNC4xOTQgMTMxLjQ3M0gyNDYuNTRDMjQ4LjAzNCAxMzEuNDczIDI0OS41MSAxMzEuOCAyNTAuODYzIDEzMi40MzJDMjUyLjIxNyAxMzMuMDYzIDI1My40MTUgMTMzLjk4MyAyNTQuMzc1IDEzNS4xMjhDMjU1LjMzNSAxMzYuMjcyIDI1Ni4wMzMgMTM3LjYxNCAyNTYuNDE5IDEzOS4wNThDMjU2LjgwNSAxNDAuNTAyIDI1Ni44NzEgMTQyLjAxMiAyNTYuNjExIDE0My40ODRMMjM3LjE0NCAyNTQuMDVDMjM3LjA1MSAyNTQuNTc1IDIzNi43NzYgMjU1LjA1MSAyMzYuMzY4IDI1NS4zOTRDMjM1Ljk2IDI1NS43MzcgMjM1LjQ0NCAyNTUuOTI4IDIzNC45MTEgMjU1LjkyOFoiLz4mI3hhOzxwYXRoIGZpbGw9IiNBOUNCMzciIGQ9Ik0zNDUuMjkzIDEzMC4xMzlDMzUxLjg0OSAxMzAuMDA1IDM1OC4zNTUgMTMxLjI5IDM2NC4zNzEgMTMzLjkwNkMzNjkuNjE1IDEzNi4yMzEgMzc0LjMxMyAxMzkuNjI5IDM3OC4xNjggMTQzLjg4QzM4MS44NzQgMTQ4LjAzOSAzODQuNjgyIDE1Mi45MiAzODYuNDE2IDE1OC4yMTVDMzg4LjIzOCAxNjMuNzM1IDM4OS4xNSAxNjkuNTEyIDM4OS4xMjYgMTc1LjMyNEMzODkuMTIzIDE3OC43NzQgMzg4Ljg1NyAxODIuMjE5IDM4OC4zMzEgMTg1LjYyOEwzNzYuMjU1IDI1NC4wMzlDMzc2LjE2MiAyNTQuNTY0IDM3NS44ODggMjU1LjA0IDM3NS40OCAyNTUuMzgzQzM3NS4wNzIgMjU1LjcyNiAzNzQuNTU3IDI1NS45MTQgMzc0LjAyNSAyNTUuOTE1SDM1Ny44MDJDMzU1LjU0MiAyNTUuOTE1IDM1My4zMTIgMjU1LjQyIDM1MS4yNjMgMjU0LjQ2NEMzNDkuMjEzIDI1My41MDggMzQ3LjQgMjUyLjExNSAzNDUuOTQ4IDI1MC4zODJDMzQ0LjQ5NiAyNDguNjQ5IDM0My40MzggMjQ2LjYxOSAzNDIuODU1IDI0NC40MzRDMzQyLjI2OSAyNDIuMjUgMzQyLjE3IDIzOS45NjMgMzQyLjU2MiAyMzcuNzM2TDM1MC43MDkgMTkxLjU3N0MzNTIuMTE3IDE4My4xMiAzNTEuMjEzIDE3Ni40MDUgMzQ4LjAwMiAxNzEuNDMyQzM0NC43ODkgMTY2LjQ1OSAzMzkuMjE3IDE2My45NyAzMzEuMjg5IDE2My45NjZDMzI1LjIxOCAxNjMuOTM0IDMxOS4zMzYgMTY2LjA5MyAzMTQuNzI1IDE3MC4wNDVDMzA5LjU1MyAxNzQuNjE4IDMwNi4yIDE4MC45MDQgMzA1LjI4NyAxODcuNzVMMjkzLjcyOSAyNTQuMDM5QzI5My42MzkgMjU0LjU2NCAyOTMuMzY1IDI1NS4wNDEgMjkyLjk1NyAyNTUuMzg0QzI5Mi41NDkgMjU1LjcyOCAyOTIuMDM0IDI1NS45MTYgMjkxLjUwMiAyNTUuOTE3SDI3NS4yNzhDMjczLjAxOCAyNTUuOTE3IDI3MC43ODUgMjU1LjQyMiAyNjguNzM4IDI1NC40NjZDMjY2LjY5IDI1My41MTEgMjY0Ljg3NiAyNTIuMTE4IDI2My40MjQgMjUwLjM4NkMyNjEuOTcxIDI0OC42NTQgMjYwLjkxNiAyNDYuNjI1IDI2MC4zMyAyNDQuNDQxQzI1OS43NDUgMjQyLjI1NyAyNTkuNjQ2IDIzOS45NzEgMjYwLjAzOCAyMzcuNzQ0TDI3OC40MjMgMTMzLjM0MUMyNzguNTE0IDEzMi44MTYgMjc4Ljc4OCAxMzIuMzQgMjc5LjE5NiAxMzEuOTk3QzI3OS42MDQgMTMxLjY1NCAyODAuMTE5IDEzMS40NjYgMjgwLjY1MyAxMzEuNDY1SDI5My4xNTdDMjk2LjgwOSAxMzEuNDY1IDMwMC4zNjQgMTMyLjY0OSAzMDMuMjg4IDEzNC44NEMzMDYuMjExIDEzNy4wMzEgMzA4LjM0OCAxNDAuMTExIDMwOS4zNzUgMTQzLjYxOUMzMTIuNzk0IDE0MS4wNzcgMzE2LjQxNiAxMzguODI0IDMyMC4yMDcgMTM2Ljg4M0MzMjMuODg5IDEzNS4xMjIgMzI3LjY4MSAxMzMuNTk5IDMzMS41NiAxMzIuMzIzQzMzNS45ODQgMTMwLjg0NyAzNDAuNjIyIDEzMC4xMDYgMzQ1LjI5IDEzMC4xMzEiLz4mI3hhOzxwYXRoIGZpbGw9IiNBOUNCMzciIGQ9Ik01MzQuMiAxMzEuNDcySDUyNS45NTdDNTIxLjA3OCAxMzEuNDcxIDUxNi4yNzMgMTMyLjY5NiA1MTEuOTg4IDEzNS4wMzRDNTA3LjcwNCAxMzcuMzcyIDUwNC4wNzEgMTQwLjc0OSA1MDEuNDI3IDE0NC44NTRDNTAxLjQwMyAxNDQuODk4IDUwMS4zNjQgMTQ0LjkzNCA1MDEuMzIzIDE0NC45NjFDNTAxLjI3OSAxNDQuOTg5IDUwMS4yMyAxNDUuMDA2IDUwMS4xODEgMTQ1LjAxMkM1MDEuMTI5IDE0NS4wMTggNTAxLjA3NyAxNDUuMDEyIDUwMS4wMyAxNDQuOTk1QzUwMC45ODEgMTQ0Ljk3OCA1MDAuOTM3IDE0NC45NTEgNTAwLjkwMSAxNDQuOTE1QzQ5OC4wMTkgMTQyLjExNSA0OTQuNzk4IDEzOS42ODYgNDkxLjMxMyAxMzcuNjg1QzQ4Ny42MjMgMTM1LjQ1OSA0ODMuNjc4IDEzMy42ODMgNDc5LjU2MyAxMzIuMzk2QzQ3NC41MjIgMTMwLjgzMSA0NjkuMjY1IDEzMC4wNzMgNDYzLjk4NiAxMzAuMTUxQzQ1NS45ODEgMTMwLjE2OCA0NDguMDY2IDEzMS44NTYgNDQwLjc0OSAxMzUuMTA1QzQzMy4yNzYgMTM4LjM0NiA0MjYuNDg3IDE0Mi45ODggNDIwLjc1IDE0OC43NzlDNDE0LjgzNiAxNTQuNzQ2IDQxMC4xMSAxNjEuNzg1IDQwNi44MjIgMTY5LjUyMkM0MDIuNjE3IDE3OS45MDUgNDAwLjcwOCAxOTEuMDc4IDQwMS4yMjggMjAyLjI3QzQwMS4xNzQgMjA5LjU0MyA0MDIuNDk0IDIxNi43NiA0MDUuMTIxIDIyMy41NDFDNDA3LjU3IDIyOS45MTQgNDExLjI5OSAyMzUuNzE2IDQxNi4wNzkgMjQwLjU4NkM0MjAuODQxIDI0NS4zODMgNDI2LjQ5IDI0OS4yIDQzMi43MTQgMjUxLjgyNUM0MzkuMjUxIDI1NC41ODcgNDQ2LjI4MyAyNTUuOTgyIDQ1My4zNzYgMjU1LjkyMUM0NTcuMzM3IDI1NS45ODUgNDYxLjI5IDI1NS41MTkgNDY1LjEyNiAyNTQuNTM1QzQ2OC4wNTcgMjUzLjc1NCA0NzAuOTI1IDI1Mi43NjEgNDczLjcwOSAyNTEuNTYzQzQ3NS41MjIgMjUwLjY2MSA0NzcuMjY3IDI0OS42MzMgNDc4LjkzNiAyNDguNDg3QzQ3OC45ODUgMjQ4LjQ1NCA0NzkuMDQgMjQ4LjQzNyA0NzkuMDk3IDI0OC40MzdDNDc5LjE1MiAyNDguNDM3IDQ3OS4yMSAyNDguNDU0IDQ3OS4yNTYgMjQ4LjQ4NUM0NzkuMzAzIDI0OC41MTcgNDc5LjM0MSAyNDguNTYxIDQ3OS4zNjMgMjQ4LjYxNEM0NzkuMzg1IDI0OC42NjYgNDc5LjM5IDI0OC43MjQgNDc5LjM3OSAyNDguNzhDNDcxLjQzNSAyODcuNDM2IDQ0My45MjcgMzA2LjgyNCA0MTYuMTM3IDMxNi40MzZDNDE0LjY0NCAzMTYuOTQ5IDQxMy4zODkgMzE3Ljk5MSA0MTIuNjExIDMxOS4zN0M0MTEuODM2IDMyMC43NDYgNDExLjU4OSAzMjIuMzYxIDQxMS45MjQgMzIzLjkwN0M0MTIuMjU4IDMyNS40NTMgNDEzLjE0NSAzMjYuODIxIDQxNC40MjIgMzI3Ljc1M0M0MTUuNjk5IDMyOC42ODggNDE3LjI3MSAzMjkuMTIxIDQxOC44NDQgMzI4Ljk3MUM0NjAuMDkzIDMyNC44MTQgNTA2LjE1IDMwNy4wMzggNTE2LjA1NiAyNTAuNTE5QzUyMi44MjkgMjExLjg2MyA1MzQuMDM5IDE0Ny44OTEgNTM2LjQ1IDEzNC4xNEM1MzYuNTA3IDEzMy44MTQgNTM2LjQ5MyAxMzMuNDggNTM2LjQwNiAxMzMuMTZDNTM2LjMyMSAxMzIuODQgNTM2LjE2NyAxMzIuNTQzIDUzNS45NTQgMTMyLjI5QzUzNS43NCAxMzIuMDM2IDUzNS40NzQgMTMxLjgzNCA1MzUuMTc2IDEzMS42OTRDNTM0Ljg3NCAxMzEuNTU1IDUzNC41NDggMTMxLjQ4MiA1MzQuMjE3IDEzMS40ODNMNTM0LjIgMTMxLjQ3MlpNNDcyLjY1NCAyMTkuOTJDNDY5LjI4MSAyMjEuMzc4IDQ2NS42NDMgMjIyLjEyIDQ2MS45NyAyMjIuMDk5QzQ1OC43NTkgMjIyLjI2OSA0NTUuNTQ1IDIyMS43ODMgNDUyLjUyNiAyMjAuNjcxQzQ0OS41MDcgMjE5LjU1OSA0NDYuNzQ5IDIxNy44NDMgNDQ0LjQxMiAyMTUuNjI5QzQ0MC4xMTMgMjEwLjkzIDQzNy43MTEgMjA0LjgwMyA0MzcuNjY3IDE5OC40MzJDNDM3LjM2NiAxOTIuNjM0IDQzOC4zMDggMTg2LjgzNyA0NDAuNDMxIDE4MS40MzRDNDQxLjg2NCAxNzguMDMxIDQ0My44NzUgMTc0LjkwMyA0NDYuMzczIDE3Mi4xODdDNDQ4Ljg0NCAxNjkuNTY5IDQ1MS44MzYgMTY3LjQ5OSA0NTUuMTU0IDE2Ni4xMDlDNDU4LjUzNyAxNjQuNjkzIDQ2Mi4xNzIgMTYzLjk3NCA0NjUuODM4IDE2My45OTZDNDY5LjA1MSAxNjMuODI3IDQ3Mi4yNjUgMTY0LjMxNSA0NzUuMjgxIDE2NS40MjhDNDc4LjMgMTY2LjU0MSA0ODEuMDYxIDE2OC4yNTYgNDgzLjM5NiAxNzAuNDcxQzQ4NS41MjcgMTcyLjU5NCA0ODcuMTk4IDE3NS4xMzEgNDg4LjMxIDE3Ny45MjVDNDg5LjQyMyAxODAuNzIgNDg5Ljk1MSAxODMuNzE0IDQ4OS44NjQgMTg2LjcyQzQ4OS43NjUgMTkwLjc1OSA0ODkuNDEyIDE5NC43ODggNDg4LjgwNiAxOTguNzgzTDQ4OC4wNTYgMjAyLjc3NUM0ODcuODk5IDIwMy40NjQgNDg3LjY5NCAyMDQuMTQgNDg3LjQzOSAyMDQuOEM0ODYuMDY5IDIwOC4xNzUgNDg0LjA1MyAyMTEuMjQ5IDQ4MS41IDIxMy44NDhDNDc4Ljk3NCAyMTYuNDI3IDQ3NS45NjkgMjE4LjQ5IDQ3Mi42NTQgMjE5LjkyMyIvPiYjeGE7PHBhdGggZmlsbD0id2hpdGUiIGQ9Ik05MTYuMjc4IDEzMS40NzJIOTA4LjAzMkM5MDMuMTUzIDEzMS40NzEgODk4LjM1MSAxMzIuNjk2IDg5NC4wNjMgMTM1LjAzNEM4ODkuNzc5IDEzNy4zNzIgODg2LjE0OSAxNDAuNzQ5IDg4My41MDUgMTQ0Ljg1NEM4ODMuNDc4IDE0NC44OTggODgzLjQ0MiAxNDQuOTM0IDg4My4zOTggMTQ0Ljk2MUM4ODMuMzU0IDE0NC45ODkgODgzLjMwNSAxNDUuMDA2IDg4My4yNTYgMTQ1LjAxMkM4ODMuMjA0IDE0NS4wMTggODgzLjE1NSAxNDUuMDEyIDg4My4xMDUgMTQ0Ljk5NUM4ODMuMDU5IDE0NC45NzggODgzLjAxNSAxNDQuOTUxIDg4Mi45NzYgMTQ0LjkxNUM4ODAuMDk0IDE0Mi4xMTUgODc2Ljg3MyAxMzkuNjg2IDg3My4zODggMTM3LjY4NUM4NjkuNjk4IDEzNS40NTkgODY1Ljc1MyAxMzMuNjgzIDg2MS42NDEgMTMyLjM5NkM4NTYuNTk3IDEzMC44MzEgODUxLjM0IDEzMC4wNzMgODQ2LjA2NCAxMzAuMTUxQzgzOC4wNTYgMTMwLjE2OCA4MzAuMTQ0IDEzMS44NTYgODIyLjgyNyAxMzUuMTA1QzgxNS4zNTEgMTM4LjM0NiA4MDguNTYyIDE0Mi45ODggODAyLjgyOCAxNDguNzc5Qzc5Ni45MTEgMTU0Ljc0NiA3OTIuMTg1IDE2MS43ODUgNzg4LjkgMTY5LjUyMkM3ODQuNjkyIDE3OS45MDUgNzgyLjc4MyAxOTEuMDc4IDc4My4zMDYgMjAyLjI3Qzc4My4yNDkgMjA5LjU0MyA3ODQuNTY5IDIxNi43NiA3ODcuMTk5IDIyMy41NDFDNzg5LjY0NiAyMjkuOTE0IDc5My4zNzQgMjM1LjcxNiA3OTguMTU3IDI0MC41ODZDODAyLjkxNiAyNDUuMzgzIDgwOC41NjggMjQ5LjIgODE0Ljc5MiAyNTEuODI1QzgyMS4zMjYgMjU0LjU4NyA4MjguMzU4IDI1NS45ODIgODM1LjQ1MyAyNTUuOTIxQzgzOS40MTIgMjU1Ljk4NSA4NDMuMzY1IDI1NS41MTkgODQ3LjIwMyAyNTQuNTM1Qzg1MC4xMzIgMjUzLjc1NCA4NTMgMjUyLjc2MSA4NTUuNzg2IDI1MS41NjNDODU3LjU5NyAyNTAuNjYxIDg1OS4zNDUgMjQ5LjYzMyA4NjEuMDEzIDI0OC40ODdDODYxLjA2IDI0OC40NTQgODYxLjExNSAyNDguNDM3IDg2MS4xNzIgMjQ4LjQzN0M4NjEuMjMgMjQ4LjQzNyA4NjEuMjg1IDI0OC40NTQgODYxLjMzMSAyNDguNDg1Qzg2MS4zODEgMjQ4LjUxNyA4NjEuNDE2IDI0OC41NjEgODYxLjQzOCAyNDguNjE0Qzg2MS40NiAyNDguNjY2IDg2MS40NjggMjQ4LjcyNCA4NjEuNDU3IDI0OC43OEM4NTMuNTEzIDI4Ny40MzYgODI2LjAwNSAzMDYuODI0IDc5OC4yMTUgMzE2LjQzNkM3OTYuNzE5IDMxNi45NDkgNzk1LjQ2NCAzMTcuOTkxIDc5NC42ODYgMzE5LjM3Qzc5My45MTEgMzIwLjc0NiA3OTMuNjY3IDMyMi4zNjEgNzkzLjk5OSAzMjMuOTA3Qzc5NC4zMzMgMzI1LjQ1MyA3OTUuMjIzIDMyNi44MjEgNzk2LjQ5NyAzMjcuNzUzQzc5Ny43NzQgMzI4LjY4OCA3OTkuMzQ2IDMyOS4xMjEgODAwLjkyMiAzMjguOTcxQzg0Mi4xNzEgMzI0LjgxNCA4ODguMjI1IDMwNy4wMzggODk4LjEzMiAyNTAuNTE5QzkwNC45MDQgMjExLjg2MyA5MTYuMTE3IDE0Ny44OTEgOTE4LjUyOCAxMzQuMTRDOTE4LjU4MiAxMzMuODE0IDkxOC41NjkgMTMzLjQ4IDkxOC40ODQgMTMzLjE2QzkxOC4zOTYgMTMyLjg0IDkxOC4yNDMgMTMyLjU0MyA5MTguMDI5IDEzMi4yOUM5MTcuODE1IDEzMi4wMzYgOTE3LjU0OSAxMzEuODM0IDkxNy4yNTEgMTMxLjY5NEM5MTYuOTUyIDEzMS41NTUgOTE2LjYyNCAxMzEuNDgyIDkxNi4yOTUgMTMxLjQ4M0w5MTYuMjc4IDEzMS40NzJaTTg1NC43MzIgMjE5LjkyQzg1MS4zNTkgMjIxLjM3OCA4NDcuNzIxIDIyMi4xMiA4NDQuMDQ3IDIyMi4wOTlDODQwLjgzNCAyMjIuMjY5IDgzNy42MiAyMjEuNzgzIDgzNC42MDQgMjIwLjY3MUM4MzEuNTg1IDIxOS41NTkgODI4LjgyNCAyMTcuODQzIDgyNi40OSAyMTUuNjI5QzgyMi4xOTEgMjEwLjkzIDgxOS43ODYgMjA0LjgwMyA4MTkuNzQ1IDE5OC40MzJDODE5LjQ0NCAxOTIuNjM0IDgyMC4zODMgMTg2LjgzNyA4MjIuNTA2IDE4MS40MzRDODIzLjkzOSAxNzguMDMxIDgyNS45NSAxNzQuOTAzIDgyOC40NTEgMTcyLjE4N0M4MzAuOTIgMTY5LjU2OSA4MzMuOTExIDE2Ny40OTkgODM3LjIzMSAxNjYuMTA5Qzg0MC42MTIgMTY0LjY5MyA4NDQuMjQ3IDE2My45NzQgODQ3LjkxNiAxNjMuOTk2Qzg1MS4xMjYgMTYzLjgyNyA4NTQuMzQgMTY0LjMxNSA4NTcuMzU5IDE2NS40MjhDODYwLjM3NSAxNjYuNTQxIDg2My4xMzcgMTY4LjI1NiA4NjUuNDczIDE3MC40NzFDODY3LjYwMiAxNzIuNTk0IDg2OS4yNzMgMTc1LjEzMSA4NzAuMzg1IDE3Ny45MjVDODcxLjQ5OCAxODAuNzIgODcyLjAyOSAxODMuNzE0IDg3MS45NDIgMTg2LjcyQzg3MS44NDMgMTkwLjc1OSA4NzEuNDkgMTk0Ljc4OCA4NzAuODg0IDE5OC43ODNMODcwLjEzMyAyMDIuNzc1Qzg2OS45NzUgMjAzLjQ2NCA4NjkuNzY5IDIwNC4xNCA4NjkuNTE3IDIwNC44Qzg2OC4xNDUgMjA4LjE3NSA4NjYuMTI4IDIxMS4yNDkgODYzLjU3OCAyMTMuODQ4Qzg2MS4wNDkgMjE2LjQyNyA4NTguMDQ0IDIxOC40OSA4NTQuNzMyIDIxOS45MjMiLz4mI3hhOzxwYXRoIGZpbGw9IndoaXRlIiBkPSJNMzI0LjIyOCAzNS44MzlDMzI0LjIyOCAzNS44MzkgMzQzLjk3NSAzOS41NDg2IDM1Mi4yNzggNzIuNzgxNUMzNTYuMjI5IDg4LjU5MTkgMzU5LjAwNCAxMDAuMTk3IDM2Mi43OTggMTE1Ljc0NEMzNjIuODk0IDExNi4wNTkgMzYyLjg2OSAxMTYuMzk4IDM2Mi43MyAxMTYuNjk3QzM2Mi41OSAxMTYuOTk1IDM2Mi4zNDkgMTE3LjIzMiAzNjIuMDQ4IDExNy4zNjRDMzYxLjc0NCAxMTcuNDk1IDM2MS40MDcgMTE3LjUxMSAzNjEuMDkyIDExNy40MDlDMzYwLjc3OSAxMTcuMzA3IDM2MC41MTYgMTE3LjA5NSAzNjAuMzQ5IDExNi44MTFDMzU1LjE5MSAxMDcuMjg0IDM0MS4xNzIgODEuNjU0NyAzMjAuNDM5IDY4LjE0NDRDMzA5LjE1NSA2MC43ODg5IDI5NC4xNCA1My4xMDQ0IDI4Mi43MSA2OS42ODI0QzI3My45MDggODIuNDQxNSAyNjcuNDYgOTkuODM5NiAyNjMuODA4IDExMS4wOEMyNjMuNjg5IDExMS40MzQgMjYzLjQ0MyAxMTEuNzMyIDI2My4xMTcgMTExLjkxNUMyNjIuNzkxIDExMi4wOTggMjYyLjQwOCAxMTIuMTUzIDI2Mi4wNDQgMTEyLjA2OUMyNjEuNjggMTExLjk4NSAyNjEuMzYxIDExMS43NjggMjYxLjE0NyAxMTEuNDYyQzI2MC45MzQgMTExLjE1NCAyNjAuODQyIDExMC43NzkgMjYwLjg5IDExMC40MDhDMjYyLjcxNyA5Ny43NDIxIDI2Ny4wODEgODQuMjY1NSAyNjAuMDMyIDc2LjMzMTVDMjUzLjI0NCA2OC42OTA4IDIzMy4yMTMgNzEuMDU2MiAyMTguNTUxIDcxLjEwMjhDMjE4LjI1NyA3MS4xMDM0IDIxNy45NzQgNzAuOTk0IDIxNy43NTggNzAuNzk1QzIxNy41NDIgNzAuNTk1NiAyMTcuNDEgNzAuMzIyIDIxNy4zODcgNzAuMDI5MkMyMTcuMzY0IDY5LjczNjIgMjE3LjQ1MyA2OS40NDU2IDIxNy42MzUgNjkuMjE1M0MyMTcuODE3IDY4Ljk4NSAyMTguMDc5IDY4LjgzMTcgMjE4LjM2OSA2OC43ODcxQzIzNS4xMTEgNjYuMjUzOSAyNjEuMDc5IDYyLjMzMjkgMjY5LjkzOSA1Ni4yMzNDMjc0LjY1MyA1Mi45ODcgMjkwLjE1OSA0MS44NDIxIDI2My44NzMgMjUuMDc3NkMyNDQuNTQgMTIuNzQwNyAyMTkuODkgNS45NDAwOSAyMDguNTU3IDIuMTg0MkMyMDguMyAyLjA5MjgzIDIwOC4wODUgMS45MTA5MSAyMDcuOTUyIDEuNjcyODNDMjA3LjgxOSAxLjQzNDc1IDIwNy43NzcgMS4xNTYzOCAyMDcuODM0IDAuODg5NzNDMjA3Ljg5MSAwLjYyMzA4IDIwOC4wNDMgMC4zODU5ODEgMjA4LjI2MiAwLjIyMzA4NkMyMDguNDggMC4wNjAxOTIzIDIwOC43NTEgLTAuMDE4MTQ3NCAyMDkuMDIyIDAuMDAzNTQ5MzJDMjIwLjQzMiAwLjk0OTM4IDI0Ni45NjUgMi42NjU4NyAyNTQuNjY2IDMuMjQ3MDhDMjY5LjI1OSA0LjM0MzY5IDMwMi40MzUgNi43NDA1OSAzMDcuOTE0IDI0LjA2MTZDMzE3Ljc5OCAxNi4wNzgzIDMyOS45NDYgMTMuNDg5OSAzMzUuNjIyIDE2LjEzODJDMzM2LjU2NCAxNi40ODY0IDMzNS40OTkgMTkuMTcyOSAzMzUuNDk5IDE5LjE3MjlDMzMyLjU5NSAyNS4yNTUxIDMyOC43OTUgMzAuODY4IDMyNC4yMjggMzUuODIyOCIvPiYjeGE7PHBhdGggZmlsbD0id2hpdGUiIGQ9Ik0xMTQyLjc4IDEyOC44NjhDMTE0OC45NyAxMjguODE2IDExNTUuMTIgMTI5LjgyIDExNjAuOTYgMTMxLjgzN0MxMTY2LjM0IDEzMy42NzYgMTE3MS4zMyAxMzYuNTE2IDExNzUuNjUgMTQwLjIwN0MxMTc5LjkgMTQzLjkyNCAxMTgzLjI4IDE0OC41MzkgMTE4NS41MyAxNTMuNzE5QzExODggMTU5LjM5MyAxMTg5LjI0IDE2NS41MjggMTE4OS4xNiAxNzEuNzE3QzExODkuMTUgMTc1LjA3MiAxMTg4Ljg4IDE3OC40MjIgMTE4OC4zNiAxODEuNzM2TDExNzUuOSAyNTIuNTkyQzExNzUuODEgMjUzLjA5MSAxMTc1LjU1IDI1My41NDQgMTE3NS4xNiAyNTMuODdDMTE3NC43OCAyNTQuMTk1IDExNzQuMjkgMjU0LjM3NSAxMTczLjc4IDI1NC4zNzZIMTE2NC4wOEMxMTYwLjc5IDI1NC4zNzkgMTE1Ny41OSAyNTMuMzA3IDExNTQuOTcgMjUxLjMyMkMxMTUyLjM1IDI0OS4zMzggMTE1MC40NSAyNDYuNTUgMTE0OS41NiAyNDMuMzg0TDExNDkuMjMgMjQyLjI0M0MxMTQ2LjQ0IDI0NC44NDYgMTE0My4zNCAyNDcuMTA0IDExNDAuMDEgMjQ4Ljk2OUMxMTM2LjYxIDI1MC44NyAxMTMzLjAzIDI1Mi40MzggMTEyOS4zMyAyNTMuNjUyQzExMjUuMTIgMjU1LjAzOSAxMTIwLjcyIDI1NS43MjkgMTExNi4yOSAyNTUuNjk0QzExMTAuNDUgMjU1Ljc5NyAxMTA0LjY0IDI1NC45MjggMTA5OS4wOSAyNTMuMTIzQzEwOTQuNTEgMjUxLjYyNSAxMDkwLjI2IDI0OS4yNTIgMTA4Ni41OCAyNDYuMTM2QzEwODMuMzEgMjQzLjM0IDEwODAuNyAyMzkuODUxIDEwNzguOTQgMjM1LjkyQzEwNzcuMjMgMjMyLjA2MSAxMDc2LjM1IDIyNy44ODMgMTA3Ni4zNyAyMjMuNjYyQzEwNzYuMTMgMjE2LjE5IDEwNzguMyAyMDguODM5IDEwODIuNTYgMjAyLjY5N0MxMDg2Ljk5IDE5Ni43NDIgMTA5Mi44MiAxOTEuOTg2IDEwOTkuNTUgMTg4Ljg1OUMxMTA3LjY3IDE4NS4wNjQgMTExNi4zIDE4Mi40ODcgMTEyNS4xNyAxODEuMjA5QzExMzUuODcgMTc5LjU2NSAxMTQ2LjY5IDE3OC43NzEgMTE1Ny41MSAxNzguODM1QzExNTguMDMgMTc2LjE1NCAxMTU3Ljk4IDE3My4zOTMgMTE1Ny4zNSAxNzAuNzM1QzExNTYuNzMgMTY4LjA3NiAxMTU1LjU1IDE2NS41ODEgMTE1My44OSAxNjMuNDE0QzExNTIuMDUgMTYxLjI4MyAxMTQ5Ljc1IDE1OS42MTMgMTE0Ny4xNSAxNTguNTM3QzExNDQuNTUgMTU3LjQ2MSAxMTQxLjc0IDE1Ny4wMSAxMTM4Ljk0IDE1Ny4yMTlDMTEzNS45MiAxNTcuMTE0IDExMzIuOTQgMTU3Ljg0NCAxMTMwLjMxIDE1OS4zM0MxMTI4LjE4IDE2MC41NzMgMTEyNi4yNSAxNjIuMTI2IDExMjQuNTcgMTYzLjk0QzExMjMuMTQgMTY1LjU4NiAxMTIxLjkzIDE2Ny40MDkgMTEyMC45NiAxNjkuMzY1QzExMjAuNzcgMTY5Ljc0NiAxMTIwLjQ5IDE3MC4wNjYgMTEyMC4xMyAxNzAuMjg2QzExMTkuNzcgMTcwLjUwNiAxMTE5LjM2IDE3MC42MTcgMTExOC45MyAxNzAuNjA1TDEwOTEuNjMgMTY5LjQ2NEMxMDkxLjI5IDE2OS40NTIgMTA5MC45NyAxNjkuMzYyIDEwOTAuNjcgMTY5LjE5OUMxMDkwLjM4IDE2OS4wMzcgMTA5MC4xMiAxNjguODA3IDEwODkuOTMgMTY4LjUyOUMxMDg5Ljc0IDE2OC4yNTEgMTA4OS42MiAxNjcuOTMyIDEwODkuNTggMTY3LjU5OEMxMDg5LjU0IDE2Ny4yNjUgMTA4OS41NyAxNjYuOTI1IDEwODkuNjggMTY2LjYwOEMxMDkxLjM4IDE2Mi4wNTUgMTA5My42MyAxNTcuNzI3IDEwOTYuMzggMTUzLjcyMkMxMDk5LjcgMTQ4Ljg3MSAxMTAzLjcxIDE0NC41NCAxMTA4LjMgMTQwLjg3MkMxMTEyLjk5IDEzNy4xMzkgMTExOC4yNCAxMzQuMTc5IDExMjMuODUgMTMyLjFDMTEyOS45MSAxMjkuODk1IDExMzYuMzEgMTI4LjgwMSAxMTQyLjc1IDEyOC44N0wxMTQyLjc4IDEyOC44NjhaTTExMjEuNjcgMjMxLjQzN0MxMTI5LjI1IDIzMS42MTYgMTEzNi42MyAyMjkuMDE0IDExNDIuNDIgMjI0LjEyMkMxMTQ4LjA2IDIxOS40NTEgMTE1MS44NiAyMTIuOTM3IDExNTMuMTYgMjA1LjczMkwxMTU0LjM1IDIwMC4zMjVDMTE0Ni43MyAyMDAuMjM5IDExMzkuMTEgMjAwLjY1OCAxMTMxLjU1IDIwMS41NzhDMTEyNi42MiAyMDIuMTE4IDExMjEuNzggMjAzLjM2MSAxMTE3LjE5IDIwNS4yNzJDMTExNC4xNiAyMDYuNSAxMTExLjU3IDIwOC42MTQgMTEwOS43NSAyMTEuMzM4QzExMDguMjggMjEzLjgyNyAxMTA3LjUzIDIxNi42NzMgMTEwNy41OCAyMTkuNTYzQzExMDcuNTkgMjIxLjEyOSAxMTA3Ljk1IDIyMi42NzIgMTEwOC42MSAyMjQuMDkzQzExMDkuMjYgMjI1LjUxMyAxMTEwLjIyIDIyNi43NzggMTExMS40IDIyNy44MDRDMTExNC4yMSAyMzAuMzE5IDExMTcuOTEgMjMxLjYyMiAxMTIxLjY3IDIzMS40MjYiLz4mI3hhOzxwYXRoIGZpbGw9IndoaXRlIiBkPSJNNzQzLjY1NiAyNTcuNzM1SDczMi45NUM3MzAuNjg5IDI1Ny43MzUgNzI4LjQ1NyAyNTcuMjQxIDcyNi40MDggMjU2LjI4NUM3MjQuMzU4IDI1NS4zMyA3MjIuNTQ1IDI1My45MzcgNzIxLjA5MyAyNTIuMjA1QzcxOS42MzggMjUwLjQ3MiA3MTguNTgzIDI0OC40NDIgNzE3Ljk5NyAyNDYuMjU4QzcxNy40MTQgMjQ0LjA3MyA3MTcuMzE1IDI0MS43ODcgNzE3LjcwNyAyMzkuNTZMNzM2LjA2MiAxMzUuMzMyQzczNi4xNDkgMTM0LjgzMyA3MzYuNDEgMTM0LjM4IDczNi43OTkgMTM0LjA1NEM3MzcuMTg1IDEzMy43MjggNzM3LjY3OCAxMzMuNTQ5IDczOC4xODUgMTMzLjU1SDc0OC44OTFDNzUxLjE1MSAxMzMuNTUgNzUzLjM4NCAxMzQuMDQ1IDc1NS40MyAxMzVDNzU3LjQ3OSAxMzUuOTU2IDc1OS4yOTMgMTM3LjM0OSA3NjAuNzQ1IDEzOS4wODFDNzYyLjIgMTQwLjgxMyA3NjMuMjU0IDE0Mi44NDMgNzYzLjg0MSAxNDUuMDI3Qzc2NC40MjQgMTQ3LjIxMSA3NjQuNTI2IDE0OS40OTcgNzY0LjEzNCAxNTEuNzI0TDc0NS43NzkgMjU1Ljk1MkM3NDUuNjkxIDI1Ni40NTEgNzQ1LjQzMSAyNTYuOTA0IDc0NS4wNDIgMjU3LjIzQzc0NC42NTMgMjU3LjU1NiA3NDQuMTYzIDI1Ny43MzUgNzQzLjY1NiAyNTcuNzM1Wk03NTcuMDU4IDExNy4zMzNDNzU0LjkxIDExNy4zOTcgNzUyLjc3IDExNi45OTUgNzUwLjc5MiAxMTYuMTUzQzc0OC44MTQgMTE1LjMxIDc0Ny4wNDIgMTE0LjA0OCA3NDUuNTk4IDExMi40NTRDNzQyLjY4NiAxMDkuNDAyIDc0MS4wODEgMTA1LjMzNSA3NDEuMTE2IDEwMS4xMTZDNzQxLjA5NyA5OC41OTU4IDc0MS42MjMgOTYuMTAxIDc0Mi42NTYgOTMuODAyN0M3NDMuNjkxIDkxLjUwNDggNzQ1LjIxMiA4OS40NTc3IDc0Ny4xMSA4Ny44MDIxQzc1MC42MzYgODQuMzA1OCA3NTUuMzg0IDgyLjMyMDQgNzYwLjM0OCA4Mi4yNjYxQzc2Mi40OTggODIuMjAxOSA3NjQuNjM1IDgyLjYwNDcgNzY2LjYxNiA4My40NDYzQzc2OC41OTQgODQuMjg4MiA3NzAuMzY2IDg1LjU0ODggNzcxLjgxMyA4Ny4xNDE5Qzc3NC43MTcgOTAuMTk3MSA3NzYuMzI1IDk0LjI2MjIgNzc2LjI5MiA5OC40Nzk1Qzc3Ni4zMTEgMTAxLjAwMSA3NzUuNzg1IDEwMy40OTYgNzc0Ljc1IDEwNS43OTRDNzczLjcxNCAxMDguMDkzIDc3Mi4xOTYgMTEwLjE0MSA3NzAuMjk4IDExMS43OTdDNzY2Ljc2OSAxMTUuMjkzIDc2Mi4wMjIgMTE3LjI3OSA3NTcuMDU4IDExNy4zMzNaIi8+JiN4YTs8cGF0aCBmaWxsPSJ3aGl0ZSIgZD0iTTk1MS44NjIgMjU3LjczNUg5NDEuMTU2QzkzOC44OTYgMjU3LjczNSA5MzYuNjYzIDI1Ny4yNDEgOTM0LjYxNCAyNTYuMjg1QzkzMi41NjQgMjU1LjMzIDkzMC43NTEgMjUzLjkzNyA5MjkuMjk5IDI1Mi4yMDVDOTI3Ljg0NCAyNTAuNDcyIDkyNi43ODkgMjQ4LjQ0MiA5MjYuMjAzIDI0Ni4yNThDOTI1LjYyIDI0NC4wNzMgOTI1LjUyMSAyNDEuNzg3IDkyNS45MTMgMjM5LjU2TDk0NC4yNjggMTM1LjMzMkM5NDQuMzU1IDEzNC44MzMgOTQ0LjYxNiAxMzQuMzggOTQ1LjAwNSAxMzQuMDU0Qzk0NS4zOTEgMTMzLjcyOCA5NDUuODg0IDEzMy41NDkgOTQ2LjM5MSAxMzMuNTVIOTU3LjA5N0M5NTkuMzU3IDEzMy41NSA5NjEuNTkgMTM0LjA0NSA5NjMuNjM2IDEzNUM5NjUuNjg2IDEzNS45NTYgOTY3LjQ5OSAxMzcuMzQ5IDk2OC45NTEgMTM5LjA4MUM5NzAuNDA2IDE0MC44MTMgOTcxLjQ2MSAxNDIuODQzIDk3Mi4wNDcgMTQ1LjAyN0M5NzIuNjMgMTQ3LjIxMSA5NzIuNzMyIDE0OS40OTcgOTcyLjM0IDE1MS43MjRMOTUzLjk4NSAyNTUuOTUyQzk1My44OTcgMjU2LjQ1MSA5NTMuNjM3IDI1Ni45MDQgOTUzLjI0OCAyNTcuMjNDOTUyLjg1OSAyNTcuNTU2IDk1Mi4zNjkgMjU3LjczNSA5NTEuODYyIDI1Ny43MzVaTTk2NS4yNjQgMTE3LjMzM0M5NjMuMTE2IDExNy4zOTcgOTYwLjk3NiAxMTYuOTk1IDk1OC45OTggMTE2LjE1M0M5NTcuMDIgMTE1LjMxIDk1NS4yNDggMTE0LjA0OCA5NTMuODA0IDExMi40NTRDOTUwLjg5MiAxMDkuNDAyIDk0OS4yODcgMTA1LjMzNSA5NDkuMzIyIDEwMS4xMTZDOTQ5LjMwMyA5OC41OTU4IDk0OS44MjkgOTYuMTAxIDk1MC44NjIgOTMuODAyN0M5NTEuODk3IDkxLjUwNDggOTUzLjQxOCA4OS40NTc3IDk1NS4zMTYgODcuODAyMUM5NTguODQyIDg0LjMwNTggOTYzLjU5IDgyLjMyMDQgOTY4LjU1NCA4Mi4yNjYxQzk3MC43MDQgODIuMjAxOSA5NzIuODQxIDgyLjYwNDcgOTc0LjgyMiA4My40NDYzQzk3Ni44IDg0LjI4ODIgOTc4LjU3MiA4NS41NDg4IDk4MC4wMTkgODcuMTQxOUM5ODIuOTIzIDkwLjE5NzEgOTg0LjUzMSA5NC4yNjIyIDk4NC40OTggOTguNDc5NUM5ODQuNTE3IDEwMS4wMDEgOTgzLjk5MSAxMDMuNDk2IDk4Mi45NTYgMTA1Ljc5NEM5ODEuOTIgMTA4LjA5MyA5ODAuNDAyIDExMC4xNDEgOTc4LjUwNCAxMTEuNzk3Qzk3NC45NzUgMTE1LjI5MyA5NzAuMjI4IDExNy4yNzkgOTY1LjI2NCAxMTcuMzMzWiIvPiYjeGE7PHBhdGggZmlsbD0id2hpdGUiIGQ9Ik0xMDI5LjYyIDIwOS44ODhDMTAyOS4wMiAyMTIuMjYgMTAyOC45NyAyMTQuNzM2IDEwMjkuNDYgMjE3LjEzMkMxMDI5Ljk1IDIxOS41MjkgMTAzMC45NyAyMjEuNzg0IDEwMzIuNDUgMjIzLjczMUMxMDM0LjUxIDIyNS45NTIgMTAzNy4xMSAyMjcuNTk4IDEwMzkuOTkgMjI4LjUwNkMxMDQyLjg4IDIyOS40MTMgMTA0NS45NSAyMjkuNTUgMTA0OC45MSAyMjguOTA0QzEwNDkuMjUgMjI4LjgzNiAxMDQ5LjYxIDIyOC44NTMgMTA0OS45NSAyMjguOTU0QzEwNTAuMjggMjI5LjA1NSAxMDUwLjU5IDIyOS4yMzcgMTA1MC44NCAyMjkuNDg0QzEwNTEuMDkgMjI5LjczMSAxMDUxLjI3IDIzMC4wMzUgMTA1MS4zOCAyMzAuMzdDMTA1MS40OCAyMzAuNzA0IDEwNTEuNTEgMjMxLjA2IDEwNTEuNDQgMjMxLjQwNkwxMDQ3LjM4IDI1My45MjVDMTA0Ny4zMSAyNTQuMzI4IDEwNDcuMTIgMjU0LjcwMyAxMDQ2Ljg1IDI1NS4wMDZDMTA0Ni41NyAyNTUuMzA4IDEwNDYuMjEgMjU1LjUyNCAxMDQ1LjgyIDI1NS42MjlDMTA0Mi42MyAyNTYuNDI3IDEwMzkuMzcgMjU2LjgzIDEwMzYuMDkgMjU2LjgzQzEwMzAuNDUgMjU2Ljk1OSAxMDI0Ljg1IDI1NS45NSAxMDE5LjYyIDI1My44NjJDMTAxNS4xNSAyNTIuMDIgMTAxMS4xMyAyNDkuMjM1IDEwMDcuODMgMjQ1LjY5OEMxMDA0LjU0IDI0Mi4xNiAxMDAyLjA0IDIzNy45NTQgMTAwMC41MiAyMzMuMzY0Qzk5OC45IDIyOC40NzUgOTk4LjEgMjIzLjM1MyA5OTguMTQ3IDIxOC4yMDRDOTk4LjE0NCAyMTQuOTggOTk4LjQwNyAyMTEuNzYxIDk5OC45MzggMjA4LjU4TDEwMDcuMDYgMTYyLjE3QzEwMDcuMTIgMTYxLjg2MSAxMDA3LjEgMTYxLjU0NSAxMDA3LjAyIDE2MS4yNDNDMTAwNi45NCAxNjAuOTQgMTAwNi44IDE2MC42NTkgMTAwNi42IDE2MC40MThDMTAwNi40IDE2MC4xNzggMTAwNi4xNSAxNTkuOTgzIDEwMDUuODcgMTU5Ljg0OUMxMDA1LjU4IDE1OS43MTQgMTAwNS4yNyAxNTkuNjQzIDEwMDQuOTYgMTU5LjYzOUMxMDAyLjk4IDE1OS42MTggMTAwMS4wMyAxNTkuMTY3IDk5OS4yNDUgMTU4LjMxOEM5OTcuNDU2IDE1Ny40NjkgOTk1Ljg3NSAxNTYuMjQyIDk5NC42MDcgMTU0LjcyMUM5OTMuMzM5IDE1My4yMDEgOTkyLjQxMyAxNTEuNDIzIDk5MS44OTggMTQ5LjUxMUM5OTEuMzgzIDE0Ny41OTkgOTkxLjI5IDE0NS41OTcgOTkxLjYyMSAxNDMuNjQ1TDk5My40NCAxMzMuMDQyQzk5My41MjggMTMyLjU0MSA5OTMuNzg4IDEzMi4wODYgOTk0LjE3NyAxMzEuNzU4Qzk5NC41NjYgMTMxLjQzMSA5OTUuMDU5IDEzMS4yNTEgOTk1LjU2OSAxMzEuMjVIMTAwNy40NEMxMDEwIDEzMS4yNTEgMTAxMi40OCAxMzAuMzQxIDEwMTQuNDIgMTI4LjY4MUMxMDE2LjM3IDEyNy4wMjIgMTAxNy42NiAxMjQuNzIzIDEwMTguMDcgMTIyLjE5NkMxMDE4LjIxIDEyMS4zMjkgMTAxOC4zOCAxMjAuMzM4IDEwMTguNTYgMTE5LjE5NkwxMDIxLjI4IDEwMy4yNDVDMTAyMS4zNiAxMDIuNzQzIDEwMjEuNjIgMTAyLjI4OCAxMDIyLjAxIDEwMS45NTlDMTAyMi40IDEwMS42MzEgMTAyMi44OSAxMDEuNDUgMTAyMy40IDEwMS40NUgxMDMwLjYzQzEwMzIuODMgMTAxLjQ1IDEwMzQuOTkgMTAxLjkyOCAxMDM2Ljk4IDEwMi44NTFDMTAzOC45NyAxMDMuNzc0IDEwNDAuNzMgMTA1LjExOSAxMDQyLjE1IDEwNi43OTRDMTA0My41NyAxMDguNDY5IDEwNDQuNiAxMTAuNDMyIDEwNDUuMTggMTEyLjU0N0MxMDQ1Ljc2IDExNC42NjMgMTA0NS44OCAxMTYuODggMTA0NS41MSAxMTkuMDQzTDEwNDMuODggMTI4Ljc4M0MxMDQzLjgzIDEyOS4wOTIgMTA0My44NSAxMjkuNDA5IDEwNDMuOTMgMTI5LjcxMUMxMDQ0LjAxIDEzMC4wMTMgMTA0NC4xNyAxMzAuMjkzIDEwNDQuMzcgMTMwLjUzMUMxMDQ0LjU3IDEzMC43NyAxMDQ0LjgzIDEzMC45NiAxMDQ1LjExIDEzMS4wOUMxMDQ1LjQgMTMxLjIyMSAxMDQ1LjcxIDEzMS4yODcgMTA0Ni4wMiAxMzEuMjg0TDEwNjcuNzcgMTMxLjEyMkMxMDY4LjA4IDEzMS4xMTkgMTA2OC4zOSAxMzEuMTg1IDEwNjguNjggMTMxLjMxNUMxMDY4Ljk2IDEzMS40NDUgMTA2OS4yMiAxMzEuNjM2IDEwNjkuNDIgMTMxLjg3NEMxMDY5LjYyIDEzMi4xMTIgMTA2OS43NyAxMzIuMzkyIDEwNjkuODYgMTMyLjY5NUMxMDY5Ljk0IDEzMi45OTcgMTA2OS45NiAxMzMuMzE0IDEwNjkuOTEgMTMzLjYyNEwxMDY3LjcgMTQ3LjAzOEwxMDY1Ljk4IDE1Ny44MjZDMTA2NS45IDE1OC4zMzIgMTA2NS42NCAxNTguNzkyIDEwNjUuMjUgMTU5LjEyNUMxMDY0Ljg2IDE1OS40NTggMTA2NC4zNiAxNTkuNjQgMTA2My44NSAxNTkuNjM5SDEwNDAuMzhDMTAzOS44OCAxNTkuNjQgMTAzOS4zOSAxNTkuODE5IDEwMzkgMTYwLjE0NEMxMDM4LjYxIDE2MC40NjkgMTAzOC4zNSAxNjAuOTIxIDEwMzguMjYgMTYxLjQxOUwxMDI5LjYyIDIwOS44ODhaIi8+JiN4YTs8cGF0aCBmaWxsPSJ3aGl0ZSIgZD0iTTEyMjUuMjggMjUzLjI4MkMxMjI1LjE5IDI1My43ODEgMTIyNC45MyAyNTQuMjMzIDEyMjQuNTQgMjU0LjU1OUMxMjI0LjE1IDI1NC44ODUgMTIyMy42NiAyNTUuMDY0IDEyMjMuMTYgMjU1LjA2NUgxMjExLjk4QzEyMDkuNzcgMjU1LjA2NSAxMjA3LjYgMjU0LjU4MyAxMjA1LjYgMjUzLjY1MUMxMjAzLjYxIDI1Mi43MiAxMjAxLjg0IDI1MS4zNjMgMTIwMC40MiAyNDkuNjc1QzExOTkuMDEgMjQ3Ljk4NyAxMTk3Ljk4IDI0Ni4wMDkgMTE5Ny40MSAyNDMuODhDMTE5Ni44NCAyNDEuNzUyIDExOTYuNzQgMjM5LjUyNCAxMTk3LjEyIDIzNy4zNTNMMTIyMy42IDg2Ljc4MDZDMTIyMy42OSA4Ni4yODExIDEyMjMuOTUgODUuODI4NSAxMjI0LjMzIDg1LjUwMjhDMTIyNC43MiA4NS4xNzcxIDEyMjUuMjEgODQuOTk5NSAxMjI1LjcyIDg1LjAwMTFIMTIzNi45MkMxMjM5LjEyIDg1LjAwMDggMTI0MS4zIDg1LjQ4MjggMTI0My4yOSA4Ni40MTI3QzEyNDUuMjggODcuMzQyNyAxMjQ3LjA1IDg4LjY5ODMgMTI0OC40NiA5MC4zODQxQzEyNDkuODggOTIuMDcwMiAxMjUwLjkxIDk0LjA0NTcgMTI1MS40OCA5Ni4xNzIzQzEyNTIuMDUgOTguMjk4OSAxMjUyLjE1IDEwMC41MjUgMTI1MS43NyAxMDIuNjk0TDEyMjUuMjggMjUzLjI4MloiLz4mI3hhOzwvc3ZnPg==;" vertex="1" parent="k5EVcIYilxEmQTRuFI4G-1">
          <mxGeometry x="-800" y="5.8100000000000005" width="108.08" height="28.37" as="geometry" />
        </mxCell>
        <mxCell id="k5EVcIYilxEmQTRuFI4G-9" value="" style="fillColor=light-dark(#FFFFFF,#FFFFFF);strokeColor=none;dashed=0;outlineConnect=0;html=1;labelPosition=center;verticalLabelPosition=bottom;verticalAlign=top;part=1;movable=0;resizable=0;rotatable=0;shape=mxgraph.ibm_cloud.microservices--1" vertex="1" parent="k5EVcIYilxEmQTRuFI4G-1">
          <mxGeometry x="-1108" y="632" width="24" height="24" as="geometry">
            <mxPoint x="12" y="12" as="offset" />
          </mxGeometry>
        </mxCell>
        <mxCell id="Erimnjnf7j0wkaPnRZBJ-0" value="Sharing JWT tokens securely between different domains involves several key steps and best practices to ensure both security and functionality." style="text;html=1;align=left;verticalAlign=middle;whiteSpace=wrap;rounded=0;" vertex="1" parent="k5EVcIYilxEmQTRuFI4G-1">
          <mxGeometry x="-800" y="130" width="760" height="30" as="geometry" />
        </mxCell>
      </root>
    </mxGraphModel>
  </diagram>
  <diagram name="Defualt Page" id="hTZFtQj2oh3V8wcp_Qaz">
    <mxGraphModel dx="2704" dy="670" grid="1" gridSize="10" guides="1" tooltips="1" connect="1" arrows="1" fold="1" page="1" pageScale="1" pageWidth="827" pageHeight="1169" math="0" shadow="0">
      <root>
        <mxCell id="Qt78G0GaiZzMHMDEhITs-0" />
        <mxCell id="Qt78G0GaiZzMHMDEhITs-1" parent="Qt78G0GaiZzMHMDEhITs-0" />
        <mxCell id="Qt78G0GaiZzMHMDEhITs-2" value="" style="rounded=0;whiteSpace=wrap;html=1;fillColor=light-dark(#008a00, #1f1f3a);fontColor=#ffffff;strokeColor=none;" vertex="1" parent="Qt78G0GaiZzMHMDEhITs-1">
          <mxGeometry x="-825" width="825" height="40" as="geometry" />
        </mxCell>
        <mxCell id="Qt78G0GaiZzMHMDEhITs-3" value="&lt;h2&gt;Tittle&lt;/h2&gt;" style="text;html=1;align=left;verticalAlign=middle;whiteSpace=wrap;rounded=0;" vertex="1" parent="Qt78G0GaiZzMHMDEhITs-1">
          <mxGeometry x="-800" y="80" width="480" height="40" as="geometry" />
        </mxCell>
        <mxCell id="Qt78G0GaiZzMHMDEhITs-4" value="" style="shape=image;verticalLabelPosition=bottom;labelBackgroundColor=default;verticalAlign=top;aspect=fixed;imageAspect=0;image=data:image/svg+xml,PHN2ZyB4bWxucz0iaHR0cDovL3d3dy53My5vcmcvMjAwMC9zdmciIGZpbGw9Im5vbmUiIHZpZXdCb3g9IjAgMCAxMjUyIDMyOSIgaGVpZ2h0PSIzMjkiIHdpZHRoPSIxMjUyIj4mI3hhOzxwYXRoIGZpbGw9IndoaXRlIiBkPSJNNjI3LjI5NCAyNTYuNDg3QzYyMC4wMjkgMjU2LjU4NSA2MTIuODMyIDI1NS4wNzcgNjA2LjIxMyAyNTIuMDcxQzYwMC4wMTYgMjQ5LjIyIDU5NC40OTMgMjQ1LjA4NyA1OTAuMDA5IDIzOS45NDNDNTg1LjQzOSAyMzQuNjQzIDU4MS44ODkgMjI4LjU0MiA1NzkuNTM2IDIyMS45NDlDNTc3LjAyMSAyMTUuMDIgNTc1Ljc0OSAyMDcuNzAyIDU3NS43OCAyMDAuMzNDNTc1LjY3MyAxOTAuNTg5IDU3Ny42MDEgMTgwLjkzNCA1ODEuNDQ1IDE3MS45ODVDNTg0Ljk4NyAxNjMuNzI4IDU4OS45NiAxNTYuMTYxIDU5Ni4xMzQgMTQ5LjYzOEM2MDIgMTQzLjQ2IDYwOC45OTkgMTM4LjQ3MSA2MTYuNzUgMTM0Ljk0MUM2MjQuMTgyIDEzMS40ODkgNjMyLjI3NSAxMjkuNjkgNjQwLjQ2NiAxMjkuNjY3QzY0NS42MTEgMTI5LjU2NiA2NTAuNzM2IDEzMC4zNDYgNjU1LjYxNSAxMzEuOTc1QzY1OS40MTUgMTMzLjI2NiA2NjMuMDQyIDEzNS4wMTUgNjY2LjQxOCAxMzcuMTgzQzY2OS41ODcgMTM5LjMwMyA2NzIuNDY2IDE0MS44MjkgNjc0Ljk4MSAxNDQuNjk2TDY4NC42NzkgODkuNTI1MUM2ODQuNzcgODkuMDI1OSA2ODUuMDMgODguNTczOCA2ODUuNDE5IDg4LjI0ODFDNjg1LjgwOCA4Ny45MjIyIDY4Ni4yOTYgODcuNzQ0IDY4Ni44MDMgODcuNzQzNEg2OTcuNjRDNjk5LjkgODcuNzQzNCA3MDIuMTMzIDg4LjIzODUgNzA0LjE4MiA4OS4xOTQ1QzcwNi4yMzEgOTAuMTUwNSA3MDguMDQ1IDkxLjU0MzIgNzA5LjQ5NyA5My4yNzU4QzcxMC45NTIgOTUuMDA4NSA3MTIuMDA2IDk3LjAzODkgNzEyLjU5MyA5OS4yMjM2QzcxMy4xNzYgMTAxLjQwOCA3MTMuMjc4IDEwMy42OTUgNzEyLjg4MyAxMDUuOTIyTDY4Ni44OSAyNTMuMzg5QzY4Ni44MDMgMjUzLjg4OCA2ODYuNTQyIDI1NC4zNCA2ODYuMTUzIDI1NC42NjVDNjg1Ljc2NyAyNTQuOTkxIDY4NS4yNzcgMjU1LjE2OCA2ODQuNzcgMjU1LjE2OEg2NzYuMjQ3QzY3Mi42MjMgMjU1LjE2OSA2NjkuMDk3IDI1My45ODUgNjY2LjIwNyAyNTEuNzk2QzY2My4zMTYgMjQ5LjYwOCA2NjEuMjE4IDI0Ni41MzQgNjYwLjIzMiAyNDMuMDQzQzY1Ny4zMTEgMjQ1LjYwNiA2NTQuMTMxIDI0Ny44NiA2NTAuNzQ1IDI0OS43NjhDNjQ3LjMyOCAyNTEuNSA2NDMuODExIDI1My4wMTggNjQwLjIwNiAyNTQuMzE2QzYzNi4wNjYgMjU1Ljc5OCA2MzEuNjk0IDI1Ni41MzQgNjI3LjI5NyAyNTYuNDlMNjI3LjI5NCAyNTYuNDg3Wk02MzUuMDY5IDIyNy4zNUM2MzkuNTM0IDIyNy4zNTMgNjQzLjk1MSAyMjYuNDM0IDY0OC4wNDMgMjI0LjY1QzY1Mi4xODYgMjIyLjg3IDY1NS45MTEgMjIwLjI0NSA2NTguOTggMjE2Ljk0MUM2NjIuMTk5IDIxMy40MzcgNjY0Ljc0NCAyMDkuMzY5IDY2Ni40ODYgMjA0Ljk0MUM2NjguNDUzIDE5OS44NTggNjY5LjQxNSAxOTQuNDQgNjY5LjMxOSAxODguOTlDNjY5LjUwMiAxODUuMTIyIDY2OC45MDggMTgxLjI1OSA2NjcuNTcxIDE3Ny42MjVDNjY2LjIzNyAxNzMuOTkxIDY2NC4xODggMTcwLjY2MSA2NjEuNTQ3IDE2Ny44MzJDNjU4LjgxOCAxNjUuMTMzIDY1NS41NTggMTYzLjAzMiA2NTEuOTcyIDE2MS42NTlDNjQ4LjM4OSAxNjAuMjg2IDY0NC41NjEgMTU5LjY3MiA2NDAuNzI2IDE1OS44NTZDNjM2LjI4MyAxNTkuODQ3IDYzMS44ODYgMTYwLjc2OCA2MjcuODE1IDE2Mi41NTdDNjIzLjY4NiAxNjQuMzYgNjE5Ljk2NiAxNjYuOTg0IDYxNi44ODEgMTcwLjI2OUM2MTMuNjI0IDE3My43NTYgNjExLjA1NCAxNzcuODI2IDYwOS4zMDMgMTgyLjI2NkM2MDcuMzM5IDE4Ny4zNSA2MDYuMzc4IDE5Mi43NjYgNjA2LjQ3MyAxOTguMjE2QzYwNi4yOTUgMjAyLjA4OSA2MDYuODk1IDIwNS45NTkgNjA4LjI0MyAyMDkuNTk1QzYwOS41ODggMjEzLjIzIDYxMS42NTQgMjE2LjU1NyA2MTQuMzExIDIxOS4zNzdDNjE3LjAzNyAyMjIuMDYzIDYyMC4yODYgMjI0LjE1OSA2MjMuODU2IDIyNS41MzFDNjI3LjQyNiAyMjYuOTAzIDYzMS4yNDIgMjI3LjUyMiA2MzUuMDYxIDIyNy4zNSIvPiYjeGE7PHBhdGggZmlsbD0iI0FFQkQyNSIgZD0iTTUzNC4xODEgMTMxLjc2OUg1MjUuOTYyQzUyMS4wOTQgMTMxLjc2OCA1MTYuMzAyIDEzMi45ODkgNTEyLjAyNiAxMzUuMzIxQzUwNy43NSAxMzcuNjUyIDUwNC4xMjggMTQxLjAyIDUwMS40OSAxNDUuMTE2QzUwMS40NjIgMTQ1LjE1OSA1MDEuNDI3IDE0NS4xOTYgNTAxLjM4MyAxNDUuMjI0QzUwMS4zNDIgMTQ1LjI1MiA1MDEuMjkyIDE0NS4yNjkgNTAxLjI0MyAxNDUuMjc1QzUwMS4xOTEgMTQ1LjI4MSA1MDEuMTM5IDE0NS4yNzYgNTAxLjA5MiAxNDUuMjU5QzUwMS4wNDMgMTQ1LjI0MiA1MDAuOTk5IDE0NS4yMTUgNTAwLjk2NCAxNDUuMTc5QzQ5OC4wNzkgMTQyLjM4NCA0OTQuODYgMTM5Ljk2MSA0OTEuMzc1IDEzNy45NjNDNDg3LjY5MyAxMzUuNzQ2IDQ4My43NTcgMTMzLjk3NiA0NzkuNjU2IDEzMi42OUM0NzQuNjI2IDEzMS4xMjggNDY5LjM4IDEzMC4zNzIgNDY0LjExMSAxMzAuNDUxQzQ1Ni4xMjYgMTMwLjQ2NSA0NDguMjMgMTMyLjE0NyA0NDAuOTI5IDEzNS4zODZDNDMzLjQ3IDEzOC42MTggNDI2LjY5NyAxNDMuMjQ4IDQyMC45NzQgMTQ5LjAyN0M0MTUuMDczIDE1NC45OCA0MTAuMzU2IDE2Mi4wMDMgNDA3LjA3OSAxNjkuNzIxQzQwMi44ODIgMTgwLjA4MSA0MDAuOTc5IDE5MS4yMjggNDAxLjQ5OSAyMDIuMzk1QzQwMS40NDEgMjA5LjY1MiA0MDIuNzYyIDIxNi44NTMgNDA1LjM4NCAyMjMuNjE5QzQwNy44MjUgMjI5Ljk3NSA0MTEuNTQ4IDIzNS43NjEgNDE2LjMxNyAyNDAuNjE3QzQyMS4wNjggMjQ1LjM5OCA0MjYuNzA2IDI0OS4yMDQgNDMyLjkxMyAyNTEuODIxQzQzOS40MzQgMjU0LjU3NiA0NDYuNDQ5IDI1NS45NjcgNDUzLjUyOCAyNTUuOTA3QzQ1Ny40NzkgMjU1Ljk3NSA0NjEuNDIxIDI1NS41MTQgNDY1LjI1MSAyNTQuNTM2QzQ2OC4xNzQgMjUzLjc1NiA0NzEuMDM0IDI1Mi43NjQgNDczLjgxMiAyNTEuNTY3QzQ3NS42MTcgMjUwLjY2OCA0NzcuMzU3IDI0OS42NDMgNDc5LjAxNyAyNDguNTAyQzQ3OS4wNjQgMjQ4LjQ2MyA0NzkuMTE5IDI0OC40MzkgNDc5LjE3OSAyNDguNDM2QzQ3OS4yMzkgMjQ4LjQzMyA0NzkuMjk3IDI0OC40NSA0NzkuMzQ2IDI0OC40ODNDNDc5LjM5OCAyNDguNTE2IDQ3OS40MzQgMjQ4LjU2NCA0NzkuNDUzIDI0OC42MjFDNDc5LjQ3MiAyNDguNjc3IDQ3OS40NzUgMjQ4LjczOCA0NzkuNDU2IDI0OC43OTVDNDcxLjUzOCAyODcuMzY4IDQ0NC4wODggMzA2LjY5OCA0MTYuMzU4IDMxNi4yOTFDNDE0Ljg2OCAzMTYuODA0IDQxMy42MTYgMzE3Ljg0NSA0MTIuODQxIDMxOS4yMTlDNDEyLjA2OCAzMjAuNTkyIDQxMS44MjQgMzIyLjIwNCA0MTIuMTU2IDMyMy43NDVDNDEyLjQ5IDMyNS4yODkgNDEzLjM3OCAzMjYuNjU0IDQxNC42NDkgMzI3LjU4M0M0MTUuOTIgMzI4LjUxNiA0MTcuNDkgMzI4Ljk0OSA0MTkuMDU5IDMyOC43OThDNDYwLjIxMyAzMjQuNjUzIDUwNi4xNzcgMzA2LjkxOCA1MTYuMDM5IDI1MC41MjhDNTIyLjc5OCAyMTEuOTY4IDUzMy45ODQgMTQ4LjEzNyA1MzYuMzg2IDEzNC40MTNDNTM2LjQ0NCAxMzQuMDg4IDUzNi40MjcgMTMzLjc1NSA1MzYuMzM5IDEzMy40MzZDNTM2LjI1NSAxMzMuMTE3IDUzNi4wOTggMTMyLjgyMSA1MzUuODg3IDEzMi41NjlDNTM1LjY3NCAxMzIuMzE2IDUzNS40MTEgMTMyLjExMyA1MzUuMTA5IDEzMS45NzRDNTM0LjgxMSAxMzEuODM1IDUzNC40ODUgMTMxLjc2MyA1MzQuMTU2IDEzMS43NjRMNTM0LjE4MSAxMzEuNzY5Wk00NzIuNzM1IDIxOS45OThDNDY5LjM2MyAyMjEuNDU1IDQ2NS43MjUgMjIyLjE5NiA0NjIuMDUxIDIyMi4xNzJDNDU4Ljg0NiAyMjIuMzQgNDU1LjY0MSAyMjEuODU1IDQ1Mi42MyAyMjAuNzQ1QzQ0OS42MTkgMjE5LjYzNCA0NDYuODYzIDIxNy45MjIgNDQ0LjUzNSAyMTUuNzEzQzQ0MC4yNDQgMjExLjAyNSA0MzcuODQ3IDIwNC45MTIgNDM3LjgwNiAxOTguNTU3QzQzNy41MDIgMTkyLjc2OSA0MzguNDQ1IDE4Ni45ODMgNDQwLjU2NSAxODEuNTg5QzQ0MS45OTIgMTc4LjE5NCA0NDMuOTk4IDE3NS4wNzIgNDQ2LjQ5MyAxNzIuMzY0QzQ0OC45NTkgMTY5Ljc1MSA0NTEuOTQ1IDE2Ny42ODUgNDU1LjI2IDE2Ni4zQzQ1OC42MzggMTY0Ljg4NiA0NjIuMjY4IDE2NC4xNjggNDY1LjkyOCAxNjQuMTkxQzQ2OS4xMzYgMTY0LjAyMSA0NzIuMzQ0IDE2NC41MDYgNDc1LjM1NyAxNjUuNjE2QzQ3OC4zNzEgMTY2LjcyNSA0ODEuMTI5IDE2OC40MzggNDgzLjQ2MSAxNzAuNjQ3QzQ4NS41ODQgMTcyLjc2NiA0ODcuMjUyIDE3NS4yOTggNDg4LjM2MiAxNzguMDg2QzQ4OS40NzQgMTgwLjg3NSA0OTAgMTgzLjg2MSA0ODkuOTE1IDE4Ni44NjFDNDg5LjgxNyAxOTAuODkzIDQ4OS40NjMgMTk0LjkxNSA0ODguODYgMTk4LjkwMkw0ODguMTEgMjAyLjg4MkM0ODcuOTU0IDIwMy41NyA0ODcuNzUxIDIwNC4yNDYgNDg3LjQ5NiAyMDQuOTAzQzQ4Ni4xMjkgMjA4LjI3MSA0ODQuMTE2IDIxMS4zMzggNDgxLjU3IDIxMy45MzFDNDc5LjA1IDIxNi41MDYgNDc2LjA1IDIxOC41NjYgNDcyLjc0NCAyMTkuOTk1Ii8+JiN4YTs8cGF0aCBmaWxsPSIjQTlDQjM3IiBkPSJNMTkxLjkyMyA4NS40OTc1SDIwMy40ODhDMjA2LjI0OCA4NS40OTcyIDIwOC45NjIgODYuMjAxIDIxMS4zNzQgODcuNTQzQzIxMy43ODcgODguODg0OSAyMTUuODE4IDkwLjgyMDUgMjE3LjI3NSA5My4xNjY3QzIxOC43MzIgOTUuNTEyOSAyMTkuNTY3IDk4LjE5MTkgMjE5LjcwMSAxMDAuOTUxQzIxOS44MzUgMTAzLjcxIDIxOS4yNjUgMTA2LjQ1OCAyMTguMDQzIDEwOC45MzVMMTQ2LjEzNSAyNTQuNjYyQzE0NS45NDcgMjU1LjA0IDE0NS42NTcgMjU1LjM1OCAxNDUuMjk3IDI1NS41ODFDMTQ0LjkzOCAyNTUuODA0IDE0NC41MjQgMjU1LjkyMyAxNDQuMTAyIDI1NS45MjNIMTI5LjM0MkMxMjUuNTkyIDI1NS45MjMgMTIxLjk2OSAyNTQuNTYxIDExOS4xNDcgMjUyLjA5QzExNi4zMjYgMjQ5LjYxOSAxMTQuNDk3IDI0Ni4yMDcgMTE0IDI0Mi40ODhMMTAyLjk1OSAxNjAuNDA0QzEwMi45MTkgMTYwLjEwMyAxMDIuNzg0IDE1OS44MjIgMTAyLjU3MiAxNTkuNjA1QzEwMi4zNjEgMTU5LjM4NyAxMDIuMDg1IDE1OS4yNDMgMTAxLjc4NiAxNTkuMTk1QzEwMS40ODYgMTU5LjE0NyAxMDEuMTc5IDE1OS4xOTcgMTAwLjkxIDE1OS4zMzdDMTAwLjY0MSAxNTkuNDc3IDEwMC40MjQgMTU5LjcwMSAxMDAuMjkyIDE1OS45NzRMNTQuMjQyMiAyNTQuNjM0QzU0LjA1NzMgMjU1LjAxNyA1My43NjY5IDI1NS4zNDEgNTMuNDA2NCAyNTUuNTY2QzUzLjA0NTggMjU1Ljc5MyA1Mi42MjkyIDI1NS45MTEgNTIuMjAzNyAyNTUuOTExSDM3LjM1MjlDMzMuNjI1MiAyNTUuOTEgMzAuMDIzIDI1NC41NjQgMjcuMjA4IDI1Mi4xMThDMjQuMzkzMSAyNDkuNjcyIDIyLjU1MzggMjQ2LjI5MSAyMi4wMjk5IDI0Mi41OThMMC4wMTU4ODk0IDg3LjMwMzNDLTAuMDE2MzA3IDg3LjA3NjYgMC4wMDA1NDExNjMgODYuODQ1OCAwLjA2NTM4MzEgODYuNjI2MkMwLjEzMDIyNSA4Ni40MDYzIDAuMjQxNjA5IDg2LjIwMzIgMC4zOTE3NzQgODYuMDMwNEMwLjU0MTk0IDg1Ljg1NzUgMC43MjY1MTEgODUuNzE5NiAwLjkzNDg2OCA4NS42MjQ3QzEuMTQzMjMgODUuNTI5OCAxLjM2OTQ0IDg1LjQ4IDEuNTk4MzUgODUuNDgwMkgyMC4yMDUzQzI1LjI0ODUgODUuNDgwMiAzMC4xMTk3IDg3LjMxNjggMzMuOTA5OCA5MC42NDYxQzM3LjcgOTMuOTc1NCA0MC4xNTAzIDk4LjU3MDIgNDAuODA0MiAxMDMuNTc1TDUxLjQ4ODEgMTg1LjQ2N0M1MS41MjIxIDE4NS43MzMgNTEuNjQxNiAxODUuOTgxIDUxLjgyNzggMTg2LjE3NEM1Mi4wMTQxIDE4Ni4zNjcgNTIuMjU3NyAxODYuNDk1IDUyLjUyMiAxODYuNTM4QzUyLjc4NjcgMTg2LjU4MSA1My4wNTg3IDE4Ni41MzcgNTMuMjk2NSAxODYuNDE0QzUzLjUzNDMgMTg2LjI5IDUzLjcyNTUgMTg2LjA5MyA1My44NDIyIDE4NS44NTFMMTAxLjk2OCA4Ni43NTU5QzEwMi4xNTUgODYuMzc0IDEwMi40NDYgODYuMDUyMSAxMDIuODA2IDg1LjgyN0MxMDMuMTY3IDg1LjYwMTcgMTAzLjU4NCA4NS40ODA4IDEwNC4wMDkgODUuNDgwMkgxMTguODAyQzEyMS4wNCA4NS40ODAyIDEyMy4yIDg2LjI5NjQgMTI0Ljg4MSA4Ny43NzQ2QzEyNi41NjEgODkuMjUyOSAxMjcuNjQ2IDkxLjI5MjggMTI3LjkzMyA5My41MTM1TDEzOS44MjggMTg1LjQ1OUMxMzkuODYyIDE4NS43MjUgMTM5Ljk4MSAxODUuOTczIDE0MC4xNjggMTg2LjE2NkMxNDAuMzU0IDE4Ni4zNTkgMTQwLjU5NyAxODYuNDg2IDE0MC44NjIgMTg2LjUyOUMxNDEuMTI2IDE4Ni41NzIgMTQxLjM5NyAxODYuNTI5IDE0MS42MzUgMTg2LjQwNkMxNDEuODczIDE4Ni4yODIgMTQyLjA2NSAxODYuMDg1IDE0Mi4xODIgMTg1Ljg0M0wxOTAuNDg4IDg2LjM3OTdDMTkwLjYxOSA4Ni4xMTAyIDE5MC44MjMgODUuODgzIDE5MS4wNzcgODUuNzIzOUMxOTEuMzMxIDg1LjU2NDkgMTkxLjYyNCA4NS40ODAyIDE5MS45MjMgODUuNDgwMiIvPiYjeGE7PHBhdGggZmlsbD0iI0E5Q0IzNyIgZD0iTTIzNC45MTEgMjU1LjkyOEgyMTguODE3QzIxNi41NTcgMjU1LjkyOCAyMTQuMzI1IDI1NS40MzEgMjEyLjI3NyAyNTQuNDc2QzIxMC4yMjkgMjUzLjUyIDIwOC40MTUgMjUyLjEyNiAyMDYuOTYzIDI1MC4zOTRDMjA1LjUxIDI0OC42NjIgMjA0LjQ1NSAyNDYuNjMzIDIwMy44NjkgMjQ0LjQ0OUMyMDMuMjg0IDI0Mi4yNjUgMjAzLjE4NCAyMzkuOTc5IDIwMy41NzcgMjM3Ljc1MkwyMjEuOTYxIDEzMy4zNDlDMjIyLjA1NCAxMzIuODIzIDIyMi4zMjggMTMyLjM0NiAyMjIuNzM3IDEzMi4wMDNDMjIzLjE0NSAxMzEuNjYgMjIzLjY2MSAxMzEuNDczIDIyNC4xOTQgMTMxLjQ3M0gyNDYuNTRDMjQ4LjAzNCAxMzEuNDczIDI0OS41MSAxMzEuOCAyNTAuODYzIDEzMi40MzJDMjUyLjIxNyAxMzMuMDYzIDI1My40MTUgMTMzLjk4MyAyNTQuMzc1IDEzNS4xMjhDMjU1LjMzNSAxMzYuMjcyIDI1Ni4wMzMgMTM3LjYxNCAyNTYuNDE5IDEzOS4wNThDMjU2LjgwNSAxNDAuNTAyIDI1Ni44NzEgMTQyLjAxMiAyNTYuNjExIDE0My40ODRMMjM3LjE0NCAyNTQuMDVDMjM3LjA1MSAyNTQuNTc1IDIzNi43NzYgMjU1LjA1MSAyMzYuMzY4IDI1NS4zOTRDMjM1Ljk2IDI1NS43MzcgMjM1LjQ0NCAyNTUuOTI4IDIzNC45MTEgMjU1LjkyOFoiLz4mI3hhOzxwYXRoIGZpbGw9IiNBOUNCMzciIGQ9Ik0zNDUuMjkzIDEzMC4xMzlDMzUxLjg0OSAxMzAuMDA1IDM1OC4zNTUgMTMxLjI5IDM2NC4zNzEgMTMzLjkwNkMzNjkuNjE1IDEzNi4yMzEgMzc0LjMxMyAxMzkuNjI5IDM3OC4xNjggMTQzLjg4QzM4MS44NzQgMTQ4LjAzOSAzODQuNjgyIDE1Mi45MiAzODYuNDE2IDE1OC4yMTVDMzg4LjIzOCAxNjMuNzM1IDM4OS4xNSAxNjkuNTEyIDM4OS4xMjYgMTc1LjMyNEMzODkuMTIzIDE3OC43NzQgMzg4Ljg1NyAxODIuMjE5IDM4OC4zMzEgMTg1LjYyOEwzNzYuMjU1IDI1NC4wMzlDMzc2LjE2MiAyNTQuNTY0IDM3NS44ODggMjU1LjA0IDM3NS40OCAyNTUuMzgzQzM3NS4wNzIgMjU1LjcyNiAzNzQuNTU3IDI1NS45MTQgMzc0LjAyNSAyNTUuOTE1SDM1Ny44MDJDMzU1LjU0MiAyNTUuOTE1IDM1My4zMTIgMjU1LjQyIDM1MS4yNjMgMjU0LjQ2NEMzNDkuMjEzIDI1My41MDggMzQ3LjQgMjUyLjExNSAzNDUuOTQ4IDI1MC4zODJDMzQ0LjQ5NiAyNDguNjQ5IDM0My40MzggMjQ2LjYxOSAzNDIuODU1IDI0NC40MzRDMzQyLjI2OSAyNDIuMjUgMzQyLjE3IDIzOS45NjMgMzQyLjU2MiAyMzcuNzM2TDM1MC43MDkgMTkxLjU3N0MzNTIuMTE3IDE4My4xMiAzNTEuMjEzIDE3Ni40MDUgMzQ4LjAwMiAxNzEuNDMyQzM0NC43ODkgMTY2LjQ1OSAzMzkuMjE3IDE2My45NyAzMzEuMjg5IDE2My45NjZDMzI1LjIxOCAxNjMuOTM0IDMxOS4zMzYgMTY2LjA5MyAzMTQuNzI1IDE3MC4wNDVDMzA5LjU1MyAxNzQuNjE4IDMwNi4yIDE4MC45MDQgMzA1LjI4NyAxODcuNzVMMjkzLjcyOSAyNTQuMDM5QzI5My42MzkgMjU0LjU2NCAyOTMuMzY1IDI1NS4wNDEgMjkyLjk1NyAyNTUuMzg0QzI5Mi41NDkgMjU1LjcyOCAyOTIuMDM0IDI1NS45MTYgMjkxLjUwMiAyNTUuOTE3SDI3NS4yNzhDMjczLjAxOCAyNTUuOTE3IDI3MC43ODUgMjU1LjQyMiAyNjguNzM4IDI1NC40NjZDMjY2LjY5IDI1My41MTEgMjY0Ljg3NiAyNTIuMTE4IDI2My40MjQgMjUwLjM4NkMyNjEuOTcxIDI0OC42NTQgMjYwLjkxNiAyNDYuNjI1IDI2MC4zMyAyNDQuNDQxQzI1OS43NDUgMjQyLjI1NyAyNTkuNjQ2IDIzOS45NzEgMjYwLjAzOCAyMzcuNzQ0TDI3OC40MjMgMTMzLjM0MUMyNzguNTE0IDEzMi44MTYgMjc4Ljc4OCAxMzIuMzQgMjc5LjE5NiAxMzEuOTk3QzI3OS42MDQgMTMxLjY1NCAyODAuMTE5IDEzMS40NjYgMjgwLjY1MyAxMzEuNDY1SDI5My4xNTdDMjk2LjgwOSAxMzEuNDY1IDMwMC4zNjQgMTMyLjY0OSAzMDMuMjg4IDEzNC44NEMzMDYuMjExIDEzNy4wMzEgMzA4LjM0OCAxNDAuMTExIDMwOS4zNzUgMTQzLjYxOUMzMTIuNzk0IDE0MS4wNzcgMzE2LjQxNiAxMzguODI0IDMyMC4yMDcgMTM2Ljg4M0MzMjMuODg5IDEzNS4xMjIgMzI3LjY4MSAxMzMuNTk5IDMzMS41NiAxMzIuMzIzQzMzNS45ODQgMTMwLjg0NyAzNDAuNjIyIDEzMC4xMDYgMzQ1LjI5IDEzMC4xMzEiLz4mI3hhOzxwYXRoIGZpbGw9IiNBOUNCMzciIGQ9Ik01MzQuMiAxMzEuNDcySDUyNS45NTdDNTIxLjA3OCAxMzEuNDcxIDUxNi4yNzMgMTMyLjY5NiA1MTEuOTg4IDEzNS4wMzRDNTA3LjcwNCAxMzcuMzcyIDUwNC4wNzEgMTQwLjc0OSA1MDEuNDI3IDE0NC44NTRDNTAxLjQwMyAxNDQuODk4IDUwMS4zNjQgMTQ0LjkzNCA1MDEuMzIzIDE0NC45NjFDNTAxLjI3OSAxNDQuOTg5IDUwMS4yMyAxNDUuMDA2IDUwMS4xODEgMTQ1LjAxMkM1MDEuMTI5IDE0NS4wMTggNTAxLjA3NyAxNDUuMDEyIDUwMS4wMyAxNDQuOTk1QzUwMC45ODEgMTQ0Ljk3OCA1MDAuOTM3IDE0NC45NTEgNTAwLjkwMSAxNDQuOTE1QzQ5OC4wMTkgMTQyLjExNSA0OTQuNzk4IDEzOS42ODYgNDkxLjMxMyAxMzcuNjg1QzQ4Ny42MjMgMTM1LjQ1OSA0ODMuNjc4IDEzMy42ODMgNDc5LjU2MyAxMzIuMzk2QzQ3NC41MjIgMTMwLjgzMSA0NjkuMjY1IDEzMC4wNzMgNDYzLjk4NiAxMzAuMTUxQzQ1NS45ODEgMTMwLjE2OCA0NDguMDY2IDEzMS44NTYgNDQwLjc0OSAxMzUuMTA1QzQzMy4yNzYgMTM4LjM0NiA0MjYuNDg3IDE0Mi45ODggNDIwLjc1IDE0OC43NzlDNDE0LjgzNiAxNTQuNzQ2IDQxMC4xMSAxNjEuNzg1IDQwNi44MjIgMTY5LjUyMkM0MDIuNjE3IDE3OS45MDUgNDAwLjcwOCAxOTEuMDc4IDQwMS4yMjggMjAyLjI3QzQwMS4xNzQgMjA5LjU0MyA0MDIuNDk0IDIxNi43NiA0MDUuMTIxIDIyMy41NDFDNDA3LjU3IDIyOS45MTQgNDExLjI5OSAyMzUuNzE2IDQxNi4wNzkgMjQwLjU4NkM0MjAuODQxIDI0NS4zODMgNDI2LjQ5IDI0OS4yIDQzMi43MTQgMjUxLjgyNUM0MzkuMjUxIDI1NC41ODcgNDQ2LjI4MyAyNTUuOTgyIDQ1My4zNzYgMjU1LjkyMUM0NTcuMzM3IDI1NS45ODUgNDYxLjI5IDI1NS41MTkgNDY1LjEyNiAyNTQuNTM1QzQ2OC4wNTcgMjUzLjc1NCA0NzAuOTI1IDI1Mi43NjEgNDczLjcwOSAyNTEuNTYzQzQ3NS41MjIgMjUwLjY2MSA0NzcuMjY3IDI0OS42MzMgNDc4LjkzNiAyNDguNDg3QzQ3OC45ODUgMjQ4LjQ1NCA0NzkuMDQgMjQ4LjQzNyA0NzkuMDk3IDI0OC40MzdDNDc5LjE1MiAyNDguNDM3IDQ3OS4yMSAyNDguNDU0IDQ3OS4yNTYgMjQ4LjQ4NUM0NzkuMzAzIDI0OC41MTcgNDc5LjM0MSAyNDguNTYxIDQ3OS4zNjMgMjQ4LjYxNEM0NzkuMzg1IDI0OC42NjYgNDc5LjM5IDI0OC43MjQgNDc5LjM3OSAyNDguNzhDNDcxLjQzNSAyODcuNDM2IDQ0My45MjcgMzA2LjgyNCA0MTYuMTM3IDMxNi40MzZDNDE0LjY0NCAzMTYuOTQ5IDQxMy4zODkgMzE3Ljk5MSA0MTIuNjExIDMxOS4zN0M0MTEuODM2IDMyMC43NDYgNDExLjU4OSAzMjIuMzYxIDQxMS45MjQgMzIzLjkwN0M0MTIuMjU4IDMyNS40NTMgNDEzLjE0NSAzMjYuODIxIDQxNC40MjIgMzI3Ljc1M0M0MTUuNjk5IDMyOC42ODggNDE3LjI3MSAzMjkuMTIxIDQxOC44NDQgMzI4Ljk3MUM0NjAuMDkzIDMyNC44MTQgNTA2LjE1IDMwNy4wMzggNTE2LjA1NiAyNTAuNTE5QzUyMi44MjkgMjExLjg2MyA1MzQuMDM5IDE0Ny44OTEgNTM2LjQ1IDEzNC4xNEM1MzYuNTA3IDEzMy44MTQgNTM2LjQ5MyAxMzMuNDggNTM2LjQwNiAxMzMuMTZDNTM2LjMyMSAxMzIuODQgNTM2LjE2NyAxMzIuNTQzIDUzNS45NTQgMTMyLjI5QzUzNS43NCAxMzIuMDM2IDUzNS40NzQgMTMxLjgzNCA1MzUuMTc2IDEzMS42OTRDNTM0Ljg3NCAxMzEuNTU1IDUzNC41NDggMTMxLjQ4MiA1MzQuMjE3IDEzMS40ODNMNTM0LjIgMTMxLjQ3MlpNNDcyLjY1NCAyMTkuOTJDNDY5LjI4MSAyMjEuMzc4IDQ2NS42NDMgMjIyLjEyIDQ2MS45NyAyMjIuMDk5QzQ1OC43NTkgMjIyLjI2OSA0NTUuNTQ1IDIyMS43ODMgNDUyLjUyNiAyMjAuNjcxQzQ0OS41MDcgMjE5LjU1OSA0NDYuNzQ5IDIxNy44NDMgNDQ0LjQxMiAyMTUuNjI5QzQ0MC4xMTMgMjEwLjkzIDQzNy43MTEgMjA0LjgwMyA0MzcuNjY3IDE5OC40MzJDNDM3LjM2NiAxOTIuNjM0IDQzOC4zMDggMTg2LjgzNyA0NDAuNDMxIDE4MS40MzRDNDQxLjg2NCAxNzguMDMxIDQ0My44NzUgMTc0LjkwMyA0NDYuMzczIDE3Mi4xODdDNDQ4Ljg0NCAxNjkuNTY5IDQ1MS44MzYgMTY3LjQ5OSA0NTUuMTU0IDE2Ni4xMDlDNDU4LjUzNyAxNjQuNjkzIDQ2Mi4xNzIgMTYzLjk3NCA0NjUuODM4IDE2My45OTZDNDY5LjA1MSAxNjMuODI3IDQ3Mi4yNjUgMTY0LjMxNSA0NzUuMjgxIDE2NS40MjhDNDc4LjMgMTY2LjU0MSA0ODEuMDYxIDE2OC4yNTYgNDgzLjM5NiAxNzAuNDcxQzQ4NS41MjcgMTcyLjU5NCA0ODcuMTk4IDE3NS4xMzEgNDg4LjMxIDE3Ny45MjVDNDg5LjQyMyAxODAuNzIgNDg5Ljk1MSAxODMuNzE0IDQ4OS44NjQgMTg2LjcyQzQ4OS43NjUgMTkwLjc1OSA0ODkuNDEyIDE5NC43ODggNDg4LjgwNiAxOTguNzgzTDQ4OC4wNTYgMjAyLjc3NUM0ODcuODk5IDIwMy40NjQgNDg3LjY5NCAyMDQuMTQgNDg3LjQzOSAyMDQuOEM0ODYuMDY5IDIwOC4xNzUgNDg0LjA1MyAyMTEuMjQ5IDQ4MS41IDIxMy44NDhDNDc4Ljk3NCAyMTYuNDI3IDQ3NS45NjkgMjE4LjQ5IDQ3Mi42NTQgMjE5LjkyMyIvPiYjeGE7PHBhdGggZmlsbD0id2hpdGUiIGQ9Ik05MTYuMjc4IDEzMS40NzJIOTA4LjAzMkM5MDMuMTUzIDEzMS40NzEgODk4LjM1MSAxMzIuNjk2IDg5NC4wNjMgMTM1LjAzNEM4ODkuNzc5IDEzNy4zNzIgODg2LjE0OSAxNDAuNzQ5IDg4My41MDUgMTQ0Ljg1NEM4ODMuNDc4IDE0NC44OTggODgzLjQ0MiAxNDQuOTM0IDg4My4zOTggMTQ0Ljk2MUM4ODMuMzU0IDE0NC45ODkgODgzLjMwNSAxNDUuMDA2IDg4My4yNTYgMTQ1LjAxMkM4ODMuMjA0IDE0NS4wMTggODgzLjE1NSAxNDUuMDEyIDg4My4xMDUgMTQ0Ljk5NUM4ODMuMDU5IDE0NC45NzggODgzLjAxNSAxNDQuOTUxIDg4Mi45NzYgMTQ0LjkxNUM4ODAuMDk0IDE0Mi4xMTUgODc2Ljg3MyAxMzkuNjg2IDg3My4zODggMTM3LjY4NUM4NjkuNjk4IDEzNS40NTkgODY1Ljc1MyAxMzMuNjgzIDg2MS42NDEgMTMyLjM5NkM4NTYuNTk3IDEzMC44MzEgODUxLjM0IDEzMC4wNzMgODQ2LjA2NCAxMzAuMTUxQzgzOC4wNTYgMTMwLjE2OCA4MzAuMTQ0IDEzMS44NTYgODIyLjgyNyAxMzUuMTA1QzgxNS4zNTEgMTM4LjM0NiA4MDguNTYyIDE0Mi45ODggODAyLjgyOCAxNDguNzc5Qzc5Ni45MTEgMTU0Ljc0NiA3OTIuMTg1IDE2MS43ODUgNzg4LjkgMTY5LjUyMkM3ODQuNjkyIDE3OS45MDUgNzgyLjc4MyAxOTEuMDc4IDc4My4zMDYgMjAyLjI3Qzc4My4yNDkgMjA5LjU0MyA3ODQuNTY5IDIxNi43NiA3ODcuMTk5IDIyMy41NDFDNzg5LjY0NiAyMjkuOTE0IDc5My4zNzQgMjM1LjcxNiA3OTguMTU3IDI0MC41ODZDODAyLjkxNiAyNDUuMzgzIDgwOC41NjggMjQ5LjIgODE0Ljc5MiAyNTEuODI1QzgyMS4zMjYgMjU0LjU4NyA4MjguMzU4IDI1NS45ODIgODM1LjQ1MyAyNTUuOTIxQzgzOS40MTIgMjU1Ljk4NSA4NDMuMzY1IDI1NS41MTkgODQ3LjIwMyAyNTQuNTM1Qzg1MC4xMzIgMjUzLjc1NCA4NTMgMjUyLjc2MSA4NTUuNzg2IDI1MS41NjNDODU3LjU5NyAyNTAuNjYxIDg1OS4zNDUgMjQ5LjYzMyA4NjEuMDEzIDI0OC40ODdDODYxLjA2IDI0OC40NTQgODYxLjExNSAyNDguNDM3IDg2MS4xNzIgMjQ4LjQzN0M4NjEuMjMgMjQ4LjQzNyA4NjEuMjg1IDI0OC40NTQgODYxLjMzMSAyNDguNDg1Qzg2MS4zODEgMjQ4LjUxNyA4NjEuNDE2IDI0OC41NjEgODYxLjQzOCAyNDguNjE0Qzg2MS40NiAyNDguNjY2IDg2MS40NjggMjQ4LjcyNCA4NjEuNDU3IDI0OC43OEM4NTMuNTEzIDI4Ny40MzYgODI2LjAwNSAzMDYuODI0IDc5OC4yMTUgMzE2LjQzNkM3OTYuNzE5IDMxNi45NDkgNzk1LjQ2NCAzMTcuOTkxIDc5NC42ODYgMzE5LjM3Qzc5My45MTEgMzIwLjc0NiA3OTMuNjY3IDMyMi4zNjEgNzkzLjk5OSAzMjMuOTA3Qzc5NC4zMzMgMzI1LjQ1MyA3OTUuMjIzIDMyNi44MjEgNzk2LjQ5NyAzMjcuNzUzQzc5Ny43NzQgMzI4LjY4OCA3OTkuMzQ2IDMyOS4xMjEgODAwLjkyMiAzMjguOTcxQzg0Mi4xNzEgMzI0LjgxNCA4ODguMjI1IDMwNy4wMzggODk4LjEzMiAyNTAuNTE5QzkwNC45MDQgMjExLjg2MyA5MTYuMTE3IDE0Ny44OTEgOTE4LjUyOCAxMzQuMTRDOTE4LjU4MiAxMzMuODE0IDkxOC41NjkgMTMzLjQ4IDkxOC40ODQgMTMzLjE2QzkxOC4zOTYgMTMyLjg0IDkxOC4yNDMgMTMyLjU0MyA5MTguMDI5IDEzMi4yOUM5MTcuODE1IDEzMi4wMzYgOTE3LjU0OSAxMzEuODM0IDkxNy4yNTEgMTMxLjY5NEM5MTYuOTUyIDEzMS41NTUgOTE2LjYyNCAxMzEuNDgyIDkxNi4yOTUgMTMxLjQ4M0w5MTYuMjc4IDEzMS40NzJaTTg1NC43MzIgMjE5LjkyQzg1MS4zNTkgMjIxLjM3OCA4NDcuNzIxIDIyMi4xMiA4NDQuMDQ3IDIyMi4wOTlDODQwLjgzNCAyMjIuMjY5IDgzNy42MiAyMjEuNzgzIDgzNC42MDQgMjIwLjY3MUM4MzEuNTg1IDIxOS41NTkgODI4LjgyNCAyMTcuODQzIDgyNi40OSAyMTUuNjI5QzgyMi4xOTEgMjEwLjkzIDgxOS43ODYgMjA0LjgwMyA4MTkuNzQ1IDE5OC40MzJDODE5LjQ0NCAxOTIuNjM0IDgyMC4zODMgMTg2LjgzNyA4MjIuNTA2IDE4MS40MzRDODIzLjkzOSAxNzguMDMxIDgyNS45NSAxNzQuOTAzIDgyOC40NTEgMTcyLjE4N0M4MzAuOTIgMTY5LjU2OSA4MzMuOTExIDE2Ny40OTkgODM3LjIzMSAxNjYuMTA5Qzg0MC42MTIgMTY0LjY5MyA4NDQuMjQ3IDE2My45NzQgODQ3LjkxNiAxNjMuOTk2Qzg1MS4xMjYgMTYzLjgyNyA4NTQuMzQgMTY0LjMxNSA4NTcuMzU5IDE2NS40MjhDODYwLjM3NSAxNjYuNTQxIDg2My4xMzcgMTY4LjI1NiA4NjUuNDczIDE3MC40NzFDODY3LjYwMiAxNzIuNTk0IDg2OS4yNzMgMTc1LjEzMSA4NzAuMzg1IDE3Ny45MjVDODcxLjQ5OCAxODAuNzIgODcyLjAyOSAxODMuNzE0IDg3MS45NDIgMTg2LjcyQzg3MS44NDMgMTkwLjc1OSA4NzEuNDkgMTk0Ljc4OCA4NzAuODg0IDE5OC43ODNMODcwLjEzMyAyMDIuNzc1Qzg2OS45NzUgMjAzLjQ2NCA4NjkuNzY5IDIwNC4xNCA4NjkuNTE3IDIwNC44Qzg2OC4xNDUgMjA4LjE3NSA4NjYuMTI4IDIxMS4yNDkgODYzLjU3OCAyMTMuODQ4Qzg2MS4wNDkgMjE2LjQyNyA4NTguMDQ0IDIxOC40OSA4NTQuNzMyIDIxOS45MjMiLz4mI3hhOzxwYXRoIGZpbGw9IndoaXRlIiBkPSJNMzI0LjIyOCAzNS44MzlDMzI0LjIyOCAzNS44MzkgMzQzLjk3NSAzOS41NDg2IDM1Mi4yNzggNzIuNzgxNUMzNTYuMjI5IDg4LjU5MTkgMzU5LjAwNCAxMDAuMTk3IDM2Mi43OTggMTE1Ljc0NEMzNjIuODk0IDExNi4wNTkgMzYyLjg2OSAxMTYuMzk4IDM2Mi43MyAxMTYuNjk3QzM2Mi41OSAxMTYuOTk1IDM2Mi4zNDkgMTE3LjIzMiAzNjIuMDQ4IDExNy4zNjRDMzYxLjc0NCAxMTcuNDk1IDM2MS40MDcgMTE3LjUxMSAzNjEuMDkyIDExNy40MDlDMzYwLjc3OSAxMTcuMzA3IDM2MC41MTYgMTE3LjA5NSAzNjAuMzQ5IDExNi44MTFDMzU1LjE5MSAxMDcuMjg0IDM0MS4xNzIgODEuNjU0NyAzMjAuNDM5IDY4LjE0NDRDMzA5LjE1NSA2MC43ODg5IDI5NC4xNCA1My4xMDQ0IDI4Mi43MSA2OS42ODI0QzI3My45MDggODIuNDQxNSAyNjcuNDYgOTkuODM5NiAyNjMuODA4IDExMS4wOEMyNjMuNjg5IDExMS40MzQgMjYzLjQ0MyAxMTEuNzMyIDI2My4xMTcgMTExLjkxNUMyNjIuNzkxIDExMi4wOTggMjYyLjQwOCAxMTIuMTUzIDI2Mi4wNDQgMTEyLjA2OUMyNjEuNjggMTExLjk4NSAyNjEuMzYxIDExMS43NjggMjYxLjE0NyAxMTEuNDYyQzI2MC45MzQgMTExLjE1NCAyNjAuODQyIDExMC43NzkgMjYwLjg5IDExMC40MDhDMjYyLjcxNyA5Ny43NDIxIDI2Ny4wODEgODQuMjY1NSAyNjAuMDMyIDc2LjMzMTVDMjUzLjI0NCA2OC42OTA4IDIzMy4yMTMgNzEuMDU2MiAyMTguNTUxIDcxLjEwMjhDMjE4LjI1NyA3MS4xMDM0IDIxNy45NzQgNzAuOTk0IDIxNy43NTggNzAuNzk1QzIxNy41NDIgNzAuNTk1NiAyMTcuNDEgNzAuMzIyIDIxNy4zODcgNzAuMDI5MkMyMTcuMzY0IDY5LjczNjIgMjE3LjQ1MyA2OS40NDU2IDIxNy42MzUgNjkuMjE1M0MyMTcuODE3IDY4Ljk4NSAyMTguMDc5IDY4LjgzMTcgMjE4LjM2OSA2OC43ODcxQzIzNS4xMTEgNjYuMjUzOSAyNjEuMDc5IDYyLjMzMjkgMjY5LjkzOSA1Ni4yMzNDMjc0LjY1MyA1Mi45ODcgMjkwLjE1OSA0MS44NDIxIDI2My44NzMgMjUuMDc3NkMyNDQuNTQgMTIuNzQwNyAyMTkuODkgNS45NDAwOSAyMDguNTU3IDIuMTg0MkMyMDguMyAyLjA5MjgzIDIwOC4wODUgMS45MTA5MSAyMDcuOTUyIDEuNjcyODNDMjA3LjgxOSAxLjQzNDc1IDIwNy43NzcgMS4xNTYzOCAyMDcuODM0IDAuODg5NzNDMjA3Ljg5MSAwLjYyMzA4IDIwOC4wNDMgMC4zODU5ODEgMjA4LjI2MiAwLjIyMzA4NkMyMDguNDggMC4wNjAxOTIzIDIwOC43NTEgLTAuMDE4MTQ3NCAyMDkuMDIyIDAuMDAzNTQ5MzJDMjIwLjQzMiAwLjk0OTM4IDI0Ni45NjUgMi42NjU4NyAyNTQuNjY2IDMuMjQ3MDhDMjY5LjI1OSA0LjM0MzY5IDMwMi40MzUgNi43NDA1OSAzMDcuOTE0IDI0LjA2MTZDMzE3Ljc5OCAxNi4wNzgzIDMyOS45NDYgMTMuNDg5OSAzMzUuNjIyIDE2LjEzODJDMzM2LjU2NCAxNi40ODY0IDMzNS40OTkgMTkuMTcyOSAzMzUuNDk5IDE5LjE3MjlDMzMyLjU5NSAyNS4yNTUxIDMyOC43OTUgMzAuODY4IDMyNC4yMjggMzUuODIyOCIvPiYjeGE7PHBhdGggZmlsbD0id2hpdGUiIGQ9Ik0xMTQyLjc4IDEyOC44NjhDMTE0OC45NyAxMjguODE2IDExNTUuMTIgMTI5LjgyIDExNjAuOTYgMTMxLjgzN0MxMTY2LjM0IDEzMy42NzYgMTE3MS4zMyAxMzYuNTE2IDExNzUuNjUgMTQwLjIwN0MxMTc5LjkgMTQzLjkyNCAxMTgzLjI4IDE0OC41MzkgMTE4NS41MyAxNTMuNzE5QzExODggMTU5LjM5MyAxMTg5LjI0IDE2NS41MjggMTE4OS4xNiAxNzEuNzE3QzExODkuMTUgMTc1LjA3MiAxMTg4Ljg4IDE3OC40MjIgMTE4OC4zNiAxODEuNzM2TDExNzUuOSAyNTIuNTkyQzExNzUuODEgMjUzLjA5MSAxMTc1LjU1IDI1My41NDQgMTE3NS4xNiAyNTMuODdDMTE3NC43OCAyNTQuMTk1IDExNzQuMjkgMjU0LjM3NSAxMTczLjc4IDI1NC4zNzZIMTE2NC4wOEMxMTYwLjc5IDI1NC4zNzkgMTE1Ny41OSAyNTMuMzA3IDExNTQuOTcgMjUxLjMyMkMxMTUyLjM1IDI0OS4zMzggMTE1MC40NSAyNDYuNTUgMTE0OS41NiAyNDMuMzg0TDExNDkuMjMgMjQyLjI0M0MxMTQ2LjQ0IDI0NC44NDYgMTE0My4zNCAyNDcuMTA0IDExNDAuMDEgMjQ4Ljk2OUMxMTM2LjYxIDI1MC44NyAxMTMzLjAzIDI1Mi40MzggMTEyOS4zMyAyNTMuNjUyQzExMjUuMTIgMjU1LjAzOSAxMTIwLjcyIDI1NS43MjkgMTExNi4yOSAyNTUuNjk0QzExMTAuNDUgMjU1Ljc5NyAxMTA0LjY0IDI1NC45MjggMTA5OS4wOSAyNTMuMTIzQzEwOTQuNTEgMjUxLjYyNSAxMDkwLjI2IDI0OS4yNTIgMTA4Ni41OCAyNDYuMTM2QzEwODMuMzEgMjQzLjM0IDEwODAuNyAyMzkuODUxIDEwNzguOTQgMjM1LjkyQzEwNzcuMjMgMjMyLjA2MSAxMDc2LjM1IDIyNy44ODMgMTA3Ni4zNyAyMjMuNjYyQzEwNzYuMTMgMjE2LjE5IDEwNzguMyAyMDguODM5IDEwODIuNTYgMjAyLjY5N0MxMDg2Ljk5IDE5Ni43NDIgMTA5Mi44MiAxOTEuOTg2IDEwOTkuNTUgMTg4Ljg1OUMxMTA3LjY3IDE4NS4wNjQgMTExNi4zIDE4Mi40ODcgMTEyNS4xNyAxODEuMjA5QzExMzUuODcgMTc5LjU2NSAxMTQ2LjY5IDE3OC43NzEgMTE1Ny41MSAxNzguODM1QzExNTguMDMgMTc2LjE1NCAxMTU3Ljk4IDE3My4zOTMgMTE1Ny4zNSAxNzAuNzM1QzExNTYuNzMgMTY4LjA3NiAxMTU1LjU1IDE2NS41ODEgMTE1My44OSAxNjMuNDE0QzExNTIuMDUgMTYxLjI4MyAxMTQ5Ljc1IDE1OS42MTMgMTE0Ny4xNSAxNTguNTM3QzExNDQuNTUgMTU3LjQ2MSAxMTQxLjc0IDE1Ny4wMSAxMTM4Ljk0IDE1Ny4yMTlDMTEzNS45MiAxNTcuMTE0IDExMzIuOTQgMTU3Ljg0NCAxMTMwLjMxIDE1OS4zM0MxMTI4LjE4IDE2MC41NzMgMTEyNi4yNSAxNjIuMTI2IDExMjQuNTcgMTYzLjk0QzExMjMuMTQgMTY1LjU4NiAxMTIxLjkzIDE2Ny40MDkgMTEyMC45NiAxNjkuMzY1QzExMjAuNzcgMTY5Ljc0NiAxMTIwLjQ5IDE3MC4wNjYgMTEyMC4xMyAxNzAuMjg2QzExMTkuNzcgMTcwLjUwNiAxMTE5LjM2IDE3MC42MTcgMTExOC45MyAxNzAuNjA1TDEwOTEuNjMgMTY5LjQ2NEMxMDkxLjI5IDE2OS40NTIgMTA5MC45NyAxNjkuMzYyIDEwOTAuNjcgMTY5LjE5OUMxMDkwLjM4IDE2OS4wMzcgMTA5MC4xMiAxNjguODA3IDEwODkuOTMgMTY4LjUyOUMxMDg5Ljc0IDE2OC4yNTEgMTA4OS42MiAxNjcuOTMyIDEwODkuNTggMTY3LjU5OEMxMDg5LjU0IDE2Ny4yNjUgMTA4OS41NyAxNjYuOTI1IDEwODkuNjggMTY2LjYwOEMxMDkxLjM4IDE2Mi4wNTUgMTA5My42MyAxNTcuNzI3IDEwOTYuMzggMTUzLjcyMkMxMDk5LjcgMTQ4Ljg3MSAxMTAzLjcxIDE0NC41NCAxMTA4LjMgMTQwLjg3MkMxMTEyLjk5IDEzNy4xMzkgMTExOC4yNCAxMzQuMTc5IDExMjMuODUgMTMyLjFDMTEyOS45MSAxMjkuODk1IDExMzYuMzEgMTI4LjgwMSAxMTQyLjc1IDEyOC44N0wxMTQyLjc4IDEyOC44NjhaTTExMjEuNjcgMjMxLjQzN0MxMTI5LjI1IDIzMS42MTYgMTEzNi42MyAyMjkuMDE0IDExNDIuNDIgMjI0LjEyMkMxMTQ4LjA2IDIxOS40NTEgMTE1MS44NiAyMTIuOTM3IDExNTMuMTYgMjA1LjczMkwxMTU0LjM1IDIwMC4zMjVDMTE0Ni43MyAyMDAuMjM5IDExMzkuMTEgMjAwLjY1OCAxMTMxLjU1IDIwMS41NzhDMTEyNi42MiAyMDIuMTE4IDExMjEuNzggMjAzLjM2MSAxMTE3LjE5IDIwNS4yNzJDMTExNC4xNiAyMDYuNSAxMTExLjU3IDIwOC42MTQgMTEwOS43NSAyMTEuMzM4QzExMDguMjggMjEzLjgyNyAxMTA3LjUzIDIxNi42NzMgMTEwNy41OCAyMTkuNTYzQzExMDcuNTkgMjIxLjEyOSAxMTA3Ljk1IDIyMi42NzIgMTEwOC42MSAyMjQuMDkzQzExMDkuMjYgMjI1LjUxMyAxMTEwLjIyIDIyNi43NzggMTExMS40IDIyNy44MDRDMTExNC4yMSAyMzAuMzE5IDExMTcuOTEgMjMxLjYyMiAxMTIxLjY3IDIzMS40MjYiLz4mI3hhOzxwYXRoIGZpbGw9IndoaXRlIiBkPSJNNzQzLjY1NiAyNTcuNzM1SDczMi45NUM3MzAuNjg5IDI1Ny43MzUgNzI4LjQ1NyAyNTcuMjQxIDcyNi40MDggMjU2LjI4NUM3MjQuMzU4IDI1NS4zMyA3MjIuNTQ1IDI1My45MzcgNzIxLjA5MyAyNTIuMjA1QzcxOS42MzggMjUwLjQ3MiA3MTguNTgzIDI0OC40NDIgNzE3Ljk5NyAyNDYuMjU4QzcxNy40MTQgMjQ0LjA3MyA3MTcuMzE1IDI0MS43ODcgNzE3LjcwNyAyMzkuNTZMNzM2LjA2MiAxMzUuMzMyQzczNi4xNDkgMTM0LjgzMyA3MzYuNDEgMTM0LjM4IDczNi43OTkgMTM0LjA1NEM3MzcuMTg1IDEzMy43MjggNzM3LjY3OCAxMzMuNTQ5IDczOC4xODUgMTMzLjU1SDc0OC44OTFDNzUxLjE1MSAxMzMuNTUgNzUzLjM4NCAxMzQuMDQ1IDc1NS40MyAxMzVDNzU3LjQ3OSAxMzUuOTU2IDc1OS4yOTMgMTM3LjM0OSA3NjAuNzQ1IDEzOS4wODFDNzYyLjIgMTQwLjgxMyA3NjMuMjU0IDE0Mi44NDMgNzYzLjg0MSAxNDUuMDI3Qzc2NC40MjQgMTQ3LjIxMSA3NjQuNTI2IDE0OS40OTcgNzY0LjEzNCAxNTEuNzI0TDc0NS43NzkgMjU1Ljk1MkM3NDUuNjkxIDI1Ni40NTEgNzQ1LjQzMSAyNTYuOTA0IDc0NS4wNDIgMjU3LjIzQzc0NC42NTMgMjU3LjU1NiA3NDQuMTYzIDI1Ny43MzUgNzQzLjY1NiAyNTcuNzM1Wk03NTcuMDU4IDExNy4zMzNDNzU0LjkxIDExNy4zOTcgNzUyLjc3IDExNi45OTUgNzUwLjc5MiAxMTYuMTUzQzc0OC44MTQgMTE1LjMxIDc0Ny4wNDIgMTE0LjA0OCA3NDUuNTk4IDExMi40NTRDNzQyLjY4NiAxMDkuNDAyIDc0MS4wODEgMTA1LjMzNSA3NDEuMTE2IDEwMS4xMTZDNzQxLjA5NyA5OC41OTU4IDc0MS42MjMgOTYuMTAxIDc0Mi42NTYgOTMuODAyN0M3NDMuNjkxIDkxLjUwNDggNzQ1LjIxMiA4OS40NTc3IDc0Ny4xMSA4Ny44MDIxQzc1MC42MzYgODQuMzA1OCA3NTUuMzg0IDgyLjMyMDQgNzYwLjM0OCA4Mi4yNjYxQzc2Mi40OTggODIuMjAxOSA3NjQuNjM1IDgyLjYwNDcgNzY2LjYxNiA4My40NDYzQzc2OC41OTQgODQuMjg4MiA3NzAuMzY2IDg1LjU0ODggNzcxLjgxMyA4Ny4xNDE5Qzc3NC43MTcgOTAuMTk3MSA3NzYuMzI1IDk0LjI2MjIgNzc2LjI5MiA5OC40Nzk1Qzc3Ni4zMTEgMTAxLjAwMSA3NzUuNzg1IDEwMy40OTYgNzc0Ljc1IDEwNS43OTRDNzczLjcxNCAxMDguMDkzIDc3Mi4xOTYgMTEwLjE0MSA3NzAuMjk4IDExMS43OTdDNzY2Ljc2OSAxMTUuMjkzIDc2Mi4wMjIgMTE3LjI3OSA3NTcuMDU4IDExNy4zMzNaIi8+JiN4YTs8cGF0aCBmaWxsPSJ3aGl0ZSIgZD0iTTk1MS44NjIgMjU3LjczNUg5NDEuMTU2QzkzOC44OTYgMjU3LjczNSA5MzYuNjYzIDI1Ny4yNDEgOTM0LjYxNCAyNTYuMjg1QzkzMi41NjQgMjU1LjMzIDkzMC43NTEgMjUzLjkzNyA5MjkuMjk5IDI1Mi4yMDVDOTI3Ljg0NCAyNTAuNDcyIDkyNi43ODkgMjQ4LjQ0MiA5MjYuMjAzIDI0Ni4yNThDOTI1LjYyIDI0NC4wNzMgOTI1LjUyMSAyNDEuNzg3IDkyNS45MTMgMjM5LjU2TDk0NC4yNjggMTM1LjMzMkM5NDQuMzU1IDEzNC44MzMgOTQ0LjYxNiAxMzQuMzggOTQ1LjAwNSAxMzQuMDU0Qzk0NS4zOTEgMTMzLjcyOCA5NDUuODg0IDEzMy41NDkgOTQ2LjM5MSAxMzMuNTVIOTU3LjA5N0M5NTkuMzU3IDEzMy41NSA5NjEuNTkgMTM0LjA0NSA5NjMuNjM2IDEzNUM5NjUuNjg2IDEzNS45NTYgOTY3LjQ5OSAxMzcuMzQ5IDk2OC45NTEgMTM5LjA4MUM5NzAuNDA2IDE0MC44MTMgOTcxLjQ2MSAxNDIuODQzIDk3Mi4wNDcgMTQ1LjAyN0M5NzIuNjMgMTQ3LjIxMSA5NzIuNzMyIDE0OS40OTcgOTcyLjM0IDE1MS43MjRMOTUzLjk4NSAyNTUuOTUyQzk1My44OTcgMjU2LjQ1MSA5NTMuNjM3IDI1Ni45MDQgOTUzLjI0OCAyNTcuMjNDOTUyLjg1OSAyNTcuNTU2IDk1Mi4zNjkgMjU3LjczNSA5NTEuODYyIDI1Ny43MzVaTTk2NS4yNjQgMTE3LjMzM0M5NjMuMTE2IDExNy4zOTcgOTYwLjk3NiAxMTYuOTk1IDk1OC45OTggMTE2LjE1M0M5NTcuMDIgMTE1LjMxIDk1NS4yNDggMTE0LjA0OCA5NTMuODA0IDExMi40NTRDOTUwLjg5MiAxMDkuNDAyIDk0OS4yODcgMTA1LjMzNSA5NDkuMzIyIDEwMS4xMTZDOTQ5LjMwMyA5OC41OTU4IDk0OS44MjkgOTYuMTAxIDk1MC44NjIgOTMuODAyN0M5NTEuODk3IDkxLjUwNDggOTUzLjQxOCA4OS40NTc3IDk1NS4zMTYgODcuODAyMUM5NTguODQyIDg0LjMwNTggOTYzLjU5IDgyLjMyMDQgOTY4LjU1NCA4Mi4yNjYxQzk3MC43MDQgODIuMjAxOSA5NzIuODQxIDgyLjYwNDcgOTc0LjgyMiA4My40NDYzQzk3Ni44IDg0LjI4ODIgOTc4LjU3MiA4NS41NDg4IDk4MC4wMTkgODcuMTQxOUM5ODIuOTIzIDkwLjE5NzEgOTg0LjUzMSA5NC4yNjIyIDk4NC40OTggOTguNDc5NUM5ODQuNTE3IDEwMS4wMDEgOTgzLjk5MSAxMDMuNDk2IDk4Mi45NTYgMTA1Ljc5NEM5ODEuOTIgMTA4LjA5MyA5ODAuNDAyIDExMC4xNDEgOTc4LjUwNCAxMTEuNzk3Qzk3NC45NzUgMTE1LjI5MyA5NzAuMjI4IDExNy4yNzkgOTY1LjI2NCAxMTcuMzMzWiIvPiYjeGE7PHBhdGggZmlsbD0id2hpdGUiIGQ9Ik0xMDI5LjYyIDIwOS44ODhDMTAyOS4wMiAyMTIuMjYgMTAyOC45NyAyMTQuNzM2IDEwMjkuNDYgMjE3LjEzMkMxMDI5Ljk1IDIxOS41MjkgMTAzMC45NyAyMjEuNzg0IDEwMzIuNDUgMjIzLjczMUMxMDM0LjUxIDIyNS45NTIgMTAzNy4xMSAyMjcuNTk4IDEwMzkuOTkgMjI4LjUwNkMxMDQyLjg4IDIyOS40MTMgMTA0NS45NSAyMjkuNTUgMTA0OC45MSAyMjguOTA0QzEwNDkuMjUgMjI4LjgzNiAxMDQ5LjYxIDIyOC44NTMgMTA0OS45NSAyMjguOTU0QzEwNTAuMjggMjI5LjA1NSAxMDUwLjU5IDIyOS4yMzcgMTA1MC44NCAyMjkuNDg0QzEwNTEuMDkgMjI5LjczMSAxMDUxLjI3IDIzMC4wMzUgMTA1MS4zOCAyMzAuMzdDMTA1MS40OCAyMzAuNzA0IDEwNTEuNTEgMjMxLjA2IDEwNTEuNDQgMjMxLjQwNkwxMDQ3LjM4IDI1My45MjVDMTA0Ny4zMSAyNTQuMzI4IDEwNDcuMTIgMjU0LjcwMyAxMDQ2Ljg1IDI1NS4wMDZDMTA0Ni41NyAyNTUuMzA4IDEwNDYuMjEgMjU1LjUyNCAxMDQ1LjgyIDI1NS42MjlDMTA0Mi42MyAyNTYuNDI3IDEwMzkuMzcgMjU2LjgzIDEwMzYuMDkgMjU2LjgzQzEwMzAuNDUgMjU2Ljk1OSAxMDI0Ljg1IDI1NS45NSAxMDE5LjYyIDI1My44NjJDMTAxNS4xNSAyNTIuMDIgMTAxMS4xMyAyNDkuMjM1IDEwMDcuODMgMjQ1LjY5OEMxMDA0LjU0IDI0Mi4xNiAxMDAyLjA0IDIzNy45NTQgMTAwMC41MiAyMzMuMzY0Qzk5OC45IDIyOC40NzUgOTk4LjEgMjIzLjM1MyA5OTguMTQ3IDIxOC4yMDRDOTk4LjE0NCAyMTQuOTggOTk4LjQwNyAyMTEuNzYxIDk5OC45MzggMjA4LjU4TDEwMDcuMDYgMTYyLjE3QzEwMDcuMTIgMTYxLjg2MSAxMDA3LjEgMTYxLjU0NSAxMDA3LjAyIDE2MS4yNDNDMTAwNi45NCAxNjAuOTQgMTAwNi44IDE2MC42NTkgMTAwNi42IDE2MC40MThDMTAwNi40IDE2MC4xNzggMTAwNi4xNSAxNTkuOTgzIDEwMDUuODcgMTU5Ljg0OUMxMDA1LjU4IDE1OS43MTQgMTAwNS4yNyAxNTkuNjQzIDEwMDQuOTYgMTU5LjYzOUMxMDAyLjk4IDE1OS42MTggMTAwMS4wMyAxNTkuMTY3IDk5OS4yNDUgMTU4LjMxOEM5OTcuNDU2IDE1Ny40NjkgOTk1Ljg3NSAxNTYuMjQyIDk5NC42MDcgMTU0LjcyMUM5OTMuMzM5IDE1My4yMDEgOTkyLjQxMyAxNTEuNDIzIDk5MS44OTggMTQ5LjUxMUM5OTEuMzgzIDE0Ny41OTkgOTkxLjI5IDE0NS41OTcgOTkxLjYyMSAxNDMuNjQ1TDk5My40NCAxMzMuMDQyQzk5My41MjggMTMyLjU0MSA5OTMuNzg4IDEzMi4wODYgOTk0LjE3NyAxMzEuNzU4Qzk5NC41NjYgMTMxLjQzMSA5OTUuMDU5IDEzMS4yNTEgOTk1LjU2OSAxMzEuMjVIMTAwNy40NEMxMDEwIDEzMS4yNTEgMTAxMi40OCAxMzAuMzQxIDEwMTQuNDIgMTI4LjY4MUMxMDE2LjM3IDEyNy4wMjIgMTAxNy42NiAxMjQuNzIzIDEwMTguMDcgMTIyLjE5NkMxMDE4LjIxIDEyMS4zMjkgMTAxOC4zOCAxMjAuMzM4IDEwMTguNTYgMTE5LjE5NkwxMDIxLjI4IDEwMy4yNDVDMTAyMS4zNiAxMDIuNzQzIDEwMjEuNjIgMTAyLjI4OCAxMDIyLjAxIDEwMS45NTlDMTAyMi40IDEwMS42MzEgMTAyMi44OSAxMDEuNDUgMTAyMy40IDEwMS40NUgxMDMwLjYzQzEwMzIuODMgMTAxLjQ1IDEwMzQuOTkgMTAxLjkyOCAxMDM2Ljk4IDEwMi44NTFDMTAzOC45NyAxMDMuNzc0IDEwNDAuNzMgMTA1LjExOSAxMDQyLjE1IDEwNi43OTRDMTA0My41NyAxMDguNDY5IDEwNDQuNiAxMTAuNDMyIDEwNDUuMTggMTEyLjU0N0MxMDQ1Ljc2IDExNC42NjMgMTA0NS44OCAxMTYuODggMTA0NS41MSAxMTkuMDQzTDEwNDMuODggMTI4Ljc4M0MxMDQzLjgzIDEyOS4wOTIgMTA0My44NSAxMjkuNDA5IDEwNDMuOTMgMTI5LjcxMUMxMDQ0LjAxIDEzMC4wMTMgMTA0NC4xNyAxMzAuMjkzIDEwNDQuMzcgMTMwLjUzMUMxMDQ0LjU3IDEzMC43NyAxMDQ0LjgzIDEzMC45NiAxMDQ1LjExIDEzMS4wOUMxMDQ1LjQgMTMxLjIyMSAxMDQ1LjcxIDEzMS4yODcgMTA0Ni4wMiAxMzEuMjg0TDEwNjcuNzcgMTMxLjEyMkMxMDY4LjA4IDEzMS4xMTkgMTA2OC4zOSAxMzEuMTg1IDEwNjguNjggMTMxLjMxNUMxMDY4Ljk2IDEzMS40NDUgMTA2OS4yMiAxMzEuNjM2IDEwNjkuNDIgMTMxLjg3NEMxMDY5LjYyIDEzMi4xMTIgMTA2OS43NyAxMzIuMzkyIDEwNjkuODYgMTMyLjY5NUMxMDY5Ljk0IDEzMi45OTcgMTA2OS45NiAxMzMuMzE0IDEwNjkuOTEgMTMzLjYyNEwxMDY3LjcgMTQ3LjAzOEwxMDY1Ljk4IDE1Ny44MjZDMTA2NS45IDE1OC4zMzIgMTA2NS42NCAxNTguNzkyIDEwNjUuMjUgMTU5LjEyNUMxMDY0Ljg2IDE1OS40NTggMTA2NC4zNiAxNTkuNjQgMTA2My44NSAxNTkuNjM5SDEwNDAuMzhDMTAzOS44OCAxNTkuNjQgMTAzOS4zOSAxNTkuODE5IDEwMzkgMTYwLjE0NEMxMDM4LjYxIDE2MC40NjkgMTAzOC4zNSAxNjAuOTIxIDEwMzguMjYgMTYxLjQxOUwxMDI5LjYyIDIwOS44ODhaIi8+JiN4YTs8cGF0aCBmaWxsPSJ3aGl0ZSIgZD0iTTEyMjUuMjggMjUzLjI4MkMxMjI1LjE5IDI1My43ODEgMTIyNC45MyAyNTQuMjMzIDEyMjQuNTQgMjU0LjU1OUMxMjI0LjE1IDI1NC44ODUgMTIyMy42NiAyNTUuMDY0IDEyMjMuMTYgMjU1LjA2NUgxMjExLjk4QzEyMDkuNzcgMjU1LjA2NSAxMjA3LjYgMjU0LjU4MyAxMjA1LjYgMjUzLjY1MUMxMjAzLjYxIDI1Mi43MiAxMjAxLjg0IDI1MS4zNjMgMTIwMC40MiAyNDkuNjc1QzExOTkuMDEgMjQ3Ljk4NyAxMTk3Ljk4IDI0Ni4wMDkgMTE5Ny40MSAyNDMuODhDMTE5Ni44NCAyNDEuNzUyIDExOTYuNzQgMjM5LjUyNCAxMTk3LjEyIDIzNy4zNTNMMTIyMy42IDg2Ljc4MDZDMTIyMy42OSA4Ni4yODExIDEyMjMuOTUgODUuODI4NSAxMjI0LjMzIDg1LjUwMjhDMTIyNC43MiA4NS4xNzcxIDEyMjUuMjEgODQuOTk5NSAxMjI1LjcyIDg1LjAwMTFIMTIzNi45MkMxMjM5LjEyIDg1LjAwMDggMTI0MS4zIDg1LjQ4MjggMTI0My4yOSA4Ni40MTI3QzEyNDUuMjggODcuMzQyNyAxMjQ3LjA1IDg4LjY5ODMgMTI0OC40NiA5MC4zODQxQzEyNDkuODggOTIuMDcwMiAxMjUwLjkxIDk0LjA0NTcgMTI1MS40OCA5Ni4xNzIzQzEyNTIuMDUgOTguMjk4OSAxMjUyLjE1IDEwMC41MjUgMTI1MS43NyAxMDIuNjk0TDEyMjUuMjggMjUzLjI4MloiLz4mI3hhOzwvc3ZnPg==;" vertex="1" parent="Qt78G0GaiZzMHMDEhITs-1">
          <mxGeometry x="-800" y="5.8100000000000005" width="108.08" height="28.37" as="geometry" />
        </mxCell>
        <mxCell id="Qt78G0GaiZzMHMDEhITs-5" value="" style="fillColor=light-dark(#FFFFFF,#FFFFFF);strokeColor=none;dashed=0;outlineConnect=0;html=1;labelPosition=center;verticalLabelPosition=bottom;verticalAlign=top;part=1;movable=0;resizable=0;rotatable=0;shape=mxgraph.ibm_cloud.microservices--1" vertex="1" parent="Qt78G0GaiZzMHMDEhITs-1">
          <mxGeometry x="-1108" y="632" width="24" height="24" as="geometry">
            <mxPoint x="12" y="12" as="offset" />
          </mxGeometry>
        </mxCell>
      </root>
    </mxGraphModel>
  </diagram>
</mxfile>
